<?xml version="1.0" standalone="no"?>
<!DOCTYPE svg PUBLIC "-//W3C//DTD SVG 20010904//EN"
 "http://www.w3.org/TR/2001/REC-SVG-20010904/DTD/svg10.dtd">
<svg version="1.0" xmlns="http://www.w3.org/2000/svg"
 width="500.000000pt" height="500.000000pt" viewBox="0 0 500.000000 500.000000"
 preserveAspectRatio="xMidYMid meet">

<g transform="translate(0.000000,500.000000) scale(0.100000,-0.100000)"
fill="#000000" stroke="none">
<path d="M2227 4393 c-5 -4 -24 -8 -44 -10 -19 -1 -37 -4 -40 -7 -2 -2 3 -19
12 -37 13 -23 16 -48 12 -88 -3 -35 1 -72 10 -101 10 -30 13 -62 9 -98 -6 -47
-4 -53 11 -50 10 1 24 -1 31 -5 7 -5 12 -3 12 3 0 7 8 9 22 4 20 -6 21 -5 10
8 -7 9 -10 22 -6 31 3 8 1 18 -5 22 -7 4 -8 12 -1 24 5 10 6 22 2 26 -4 5 -2
5 5 2 6 -4 13 -2 15 4 6 19 48 0 58 -27 5 -13 21 -26 35 -30 15 -4 25 -13 25
-24 0 -22 16 -35 25 -20 4 6 15 8 25 5 10 -3 21 -1 25 5 4 6 16 8 27 4 14 -4
18 -2 14 5 -4 6 -16 11 -27 11 -12 0 -28 14 -40 34 -11 19 -33 39 -49 45 -55
19 -65 90 -15 99 10 2 33 20 53 39 26 27 30 34 14 29 -11 -4 -23 -2 -27 4 -5
8 -11 8 -20 0 -8 -7 -23 -9 -35 -5 -15 5 -20 2 -20 -13 0 -13 -10 -24 -29 -30
-19 -7 -31 -18 -33 -34 -2 -12 -11 -24 -21 -26 -23 -5 -37 35 -25 70 7 20 5
33 -7 52 -13 19 -14 29 -5 46 12 23 10 46 -3 33z"/>
<path d="M2696 4293 c-4 -4 -28 -10 -53 -13 -41 -4 -48 -9 -56 -35 -5 -16 -19
-40 -30 -52 -19 -21 -19 -25 -5 -60 9 -21 19 -51 24 -67 7 -23 18 -32 52 -41
23 -7 49 -19 57 -25 9 -7 26 -10 41 -6 14 4 32 2 39 -4 9 -7 16 -6 24 4 6 8
21 12 32 9 11 -3 19 -2 18 3 -1 5 -1 11 1 14 1 3 3 16 6 29 4 20 2 22 -11 11
-8 -7 -22 -9 -31 -6 -9 4 -23 1 -30 -5 -11 -9 -18 -8 -29 1 -8 6 -23 9 -34 5
-14 -4 -24 0 -33 14 -7 12 -20 21 -30 21 -23 0 -32 18 -18 35 15 18 66 20 76
4 4 -7 24 -9 52 -6 30 3 53 0 67 -9 20 -13 23 -12 34 10 11 19 10 28 -3 54 -9
17 -16 40 -16 52 0 13 -9 24 -27 30 -16 6 -40 17 -55 25 -28 16 -51 19 -62 8z
m10 -54 c3 -6 17 -8 30 -5 17 5 24 2 24 -8 0 -8 10 -18 21 -21 l21 -7 -21 -21
c-18 -19 -24 -20 -42 -9 -12 8 -32 11 -50 7 -32 -7 -59 7 -59 31 0 8 9 14 20
14 11 0 23 7 26 15 7 18 20 19 30 4z"/>
<path d="M1985 4230 c-4 -6 -17 -10 -30 -8 -14 2 -34 -7 -49 -21 -14 -13 -36
-29 -48 -35 -19 -10 -24 -23 -31 -81 -7 -66 -6 -71 16 -91 14 -11 32 -32 41
-46 16 -24 21 -25 88 -22 49 2 75 8 80 18 5 8 16 12 28 9 14 -4 20 0 20 11 0
9 10 21 23 26 12 5 16 9 9 9 -8 1 -10 10 -6 29 5 22 4 25 -7 15 -7 -7 -21 -13
-30 -13 -9 0 -20 -7 -23 -16 -4 -10 -12 -14 -23 -10 -9 4 -24 -1 -34 -10 -13
-12 -22 -14 -31 -6 -7 5 -24 12 -38 14 -16 2 -26 10 -28 23 -2 11 -8 30 -14
42 -9 18 -8 27 4 40 8 10 18 26 21 36 5 12 13 16 26 12 10 -3 23 1 31 10 7 8
17 12 22 9 5 -3 25 -7 43 -8 23 -1 31 2 24 10 -5 6 -6 14 -3 17 10 9 -24 39
-36 32 -6 -4 -17 -2 -25 5 -10 8 -15 8 -20 0z"/>
<path d="M2970 4197 c0 -31 -6 -49 -20 -62 -12 -11 -20 -31 -20 -50 0 -17 -11
-46 -25 -65 l-24 -33 26 -14 c14 -7 28 -11 31 -8 3 3 11 0 19 -6 10 -9 13 -5
13 20 0 19 6 34 15 37 9 4 15 19 15 39 0 18 7 38 15 45 8 7 15 19 15 27 0 8 8
13 18 11 9 -1 23 1 30 6 8 5 18 4 25 -3 6 -6 19 -11 29 -11 11 0 18 -7 18 -19
0 -11 6 -21 13 -24 10 -4 10 -7 0 -18 -7 -7 -13 -25 -13 -40 0 -15 -7 -29 -15
-33 -9 -3 -15 -18 -15 -37 0 -19 -7 -37 -17 -45 -17 -12 -16 -13 5 -14 12 0
22 -5 22 -11 0 -5 5 -7 10 -4 6 4 17 1 25 -5 13 -10 15 -8 15 18 0 16 7 35 15
42 8 7 15 25 15 40 0 15 6 33 14 39 15 12 19 121 4 121 -5 0 -21 12 -35 26
-17 17 -32 24 -46 20 -12 -3 -27 0 -34 6 -10 8 -18 7 -31 -6 -10 -9 -27 -16
-38 -16 -11 0 -15 3 -8 8 6 4 13 15 17 24 4 12 2 15 -9 11 -7 -3 -14 0 -14 7
0 7 -7 10 -15 7 -8 -4 -17 -2 -20 3 -14 22 -25 7 -25 -33z"/>
<path d="M1626 4065 c-11 -8 -33 -15 -49 -15 -20 0 -30 -6 -34 -20 -3 -11 -14
-20 -24 -20 -12 0 -19 -7 -19 -18 0 -11 -10 -24 -22 -30 -13 -6 -17 -11 -10
-11 6 -1 12 -8 12 -16 0 -8 5 -15 11 -15 5 0 7 -4 4 -10 -3 -5 -1 -10 4 -10 6
0 11 7 11 15 0 9 7 18 15 21 8 3 17 14 20 25 4 10 15 19 25 19 10 0 20 5 22
11 6 18 78 19 78 2 0 -24 -49 -81 -75 -87 -30 -8 -41 -27 -50 -88 -7 -45 -6
-48 18 -57 14 -5 28 -15 32 -20 4 -8 13 -7 26 3 11 7 28 12 38 9 11 -3 21 4
29 21 6 14 18 26 27 26 8 0 15 9 15 19 0 26 17 36 35 21 12 -10 15 -10 15 0 0
7 7 10 15 6 9 -3 15 0 15 9 0 8 7 15 15 15 22 0 18 17 -5 23 -13 3 -20 14 -20
31 0 15 -8 30 -20 36 -12 6 -20 21 -20 36 0 19 -8 28 -33 39 -19 8 -39 21 -47
29 -15 20 -29 20 -54 1z m88 -164 c17 -19 17 -20 -3 -31 -12 -6 -21 -17 -21
-24 0 -13 -18 -22 -61 -32 -11 -2 -19 5 -22 18 -7 26 -1 38 19 38 8 0 19 11
24 25 11 30 40 33 64 6z"/>
<path d="M3351 4026 c-14 -14 -30 -26 -37 -26 -16 0 -45 -40 -37 -52 3 -6 -3
-27 -12 -48 -18 -39 -17 -39 8 -69 14 -17 29 -40 32 -52 5 -15 13 -19 28 -15
12 3 29 -2 39 -11 14 -13 21 -14 30 -5 17 17 25 15 31 -7 3 -13 -1 -21 -12
-24 -14 -4 -14 -5 2 -6 9 0 17 -5 17 -11 0 -5 9 -10 20 -10 11 0 20 -4 20 -10
0 -27 20 -5 30 31 7 26 29 59 56 88 24 25 49 62 54 81 6 22 27 52 52 75 34 31
39 40 26 43 -10 2 -18 10 -18 19 0 9 -6 13 -15 9 -8 -3 -19 2 -24 12 -9 14
-10 13 -11 -11 0 -20 -7 -30 -24 -37 -17 -6 -26 -18 -28 -37 -4 -41 -38 -45
-38 -4 0 20 -6 32 -19 36 -10 3 -21 14 -24 24 -3 13 -17 20 -43 24 -22 2 -48
8 -59 11 -15 5 -27 0 -44 -18z m109 -66 c6 -11 20 -20 30 -20 15 0 20 -7 20
-28 0 -15 5 -33 11 -39 8 -8 6 -14 -9 -22 -11 -6 -22 -21 -26 -35 -4 -18 -11
-23 -26 -19 -11 3 -27 -1 -36 -8 -14 -12 -19 -11 -32 9 -8 12 -22 22 -32 22
-23 0 -36 81 -15 92 7 4 15 18 19 32 4 18 11 22 30 19 13 -3 27 0 30 6 11 17
24 13 36 -9z"/>
<path d="M1247 3895 c-4 -9 -22 -22 -42 -31 -22 -9 -37 -23 -41 -39 -4 -17
-18 -31 -40 -40 -22 -9 -36 -23 -40 -40 -4 -18 -18 -32 -41 -42 -32 -13 -34
-16 -21 -35 8 -11 29 -26 48 -32 23 -8 42 -24 59 -54 15 -25 43 -53 65 -65 24
-13 48 -38 60 -61 28 -52 43 -55 61 -12 8 19 27 41 42 48 14 7 34 27 43 43 9
17 29 36 44 43 15 8 32 26 37 40 6 15 18 35 26 45 13 14 14 22 5 43 -7 13 -12
34 -12 44 0 11 -3 20 -7 21 -30 3 -47 9 -54 21 -7 10 -12 11 -29 1 -21 -14
-50 -17 -50 -6 0 3 7 15 16 25 16 16 16 18 0 24 -9 3 -16 16 -16 29 0 18 -7
24 -32 28 -18 3 -43 8 -54 12 -15 5 -23 2 -27 -10z m53 -85 c10 -10 15 -22 10
-25 -5 -3 -7 -12 -3 -20 3 -8 0 -15 -6 -15 -6 0 -16 -11 -21 -24 -5 -13 -17
-27 -28 -30 -10 -4 -24 -18 -30 -31 -13 -28 -62 -36 -62 -10 0 8 -7 15 -15 15
-26 0 -19 49 9 60 13 5 27 18 31 29 3 11 15 23 26 26 10 4 19 12 19 20 0 7 10
16 23 18 12 2 23 5 25 6 1 0 11 -8 22 -19z m118 -97 c9 -10 17 -27 17 -38 0
-11 -8 -23 -17 -27 -10 -4 -18 -14 -18 -22 0 -9 -13 -22 -30 -31 -17 -9 -30
-24 -30 -34 0 -10 -7 -22 -16 -25 -28 -11 -54 -6 -54 9 0 8 -7 15 -15 15 -10
0 -15 10 -15 30 0 23 5 31 25 36 15 4 28 16 31 30 4 14 14 24 24 24 10 0 22 9
25 21 4 12 12 18 21 15 7 -3 16 -1 19 4 8 14 12 13 33 -7z"/>
<path d="M3691 3533 c-1 -7 -6 -13 -12 -13 -6 0 -17 -7 -25 -15 -9 -8 -11 -15
-5 -15 6 0 11 -7 11 -15 0 -10 10 -15 30 -15 17 0 30 5 30 10 0 6 8 10 18 11
10 0 12 3 5 6 -7 2 -13 11 -13 19 0 8 -6 14 -14 14 -8 0 -17 6 -19 13 -4 10
-6 10 -6 0z"/>
<path d="M4114 3365 c-26 -29 -38 -35 -72 -35 -28 0 -49 -7 -69 -24 -42 -35
-68 -46 -107 -46 -35 0 -47 -12 -25 -25 6 -4 8 -13 5 -20 -2 -7 2 -16 9 -19 9
-3 12 -12 8 -23 -6 -17 -5 -17 14 0 11 9 31 17 44 17 13 0 30 9 37 20 16 25
33 25 60 0 14 -13 22 -33 22 -54 0 -20 8 -40 20 -51 11 -10 20 -31 20 -47 0
-26 3 -29 23 -22 12 4 25 11 28 17 4 5 12 6 18 3 19 -12 12 10 -9 29 -11 10
-20 30 -20 45 0 15 -11 39 -25 54 -14 15 -25 33 -25 41 0 26 12 45 30 45 10 0
20 6 23 13 9 24 57 -34 57 -69 0 -21 9 -43 25 -60 17 -18 25 -38 25 -62 0 -29
2 -33 15 -22 8 6 19 9 25 5 5 -3 10 -1 10 4 0 6 7 11 15 11 22 0 19 13 -10 44
-14 15 -25 38 -25 51 0 33 -18 76 -42 102 -13 14 -21 37 -22 65 -1 38 -4 43
-26 45 -18 2 -34 -8 -56 -32z"/>
<path d="M1100 3222 c-17 -8 -20 -32 -5 -48 31 -33 72 -12 61 31 -6 25 -26 31
-56 17z"/>
<path d="M660 2985 c0 -8 -4 -15 -8 -15 -5 0 -9 -13 -9 -29 0 -27 3 -29 27
-24 16 3 31 0 35 -6 4 -7 19 -9 39 -5 43 8 59 -21 21 -38 -14 -6 -25 -20 -25
-30 0 -11 -7 -26 -15 -34 -10 -10 -12 -21 -5 -37 5 -12 11 -38 15 -58 4 -30
11 -38 33 -44 15 -3 37 -16 50 -28 20 -18 26 -20 55 -9 19 7 47 12 65 12 23 0
32 5 37 23 4 12 19 34 33 49 20 22 23 30 13 42 -7 9 -10 24 -6 36 5 15 1 26
-11 34 -19 15 -10 40 12 32 8 -3 14 0 15 7 1 7 2 27 4 46 l3 33 -45 -6 c-34
-4 -57 -1 -90 14 -30 13 -67 20 -107 20 -39 0 -69 5 -82 15 -25 19 -54 19 -54
0z m244 -109 c17 -1 31 -7 34 -16 3 -8 11 -23 19 -32 9 -10 12 -22 7 -30 -4
-7 -7 -25 -6 -40 2 -22 -2 -28 -17 -28 -11 0 -25 -9 -32 -21 -8 -15 -14 -18
-22 -10 -6 6 -24 11 -39 11 -18 0 -31 6 -35 18 -4 9 -14 22 -22 29 -13 9 -14
16 -4 31 6 11 9 28 7 39 -4 14 2 23 20 31 14 6 26 17 26 23 0 7 7 8 18 3 9 -4
30 -8 46 -8z"/>
<path d="M4224 2949 c-3 -6 -20 -8 -38 -5 -19 3 -38 0 -50 -9 -11 -9 -29 -12
-43 -9 -15 4 -30 0 -41 -9 -9 -8 -26 -17 -37 -19 -14 -2 -22 -14 -26 -38 -3
-19 -9 -42 -13 -51 -4 -9 0 -21 9 -29 8 -7 15 -21 15 -31 0 -12 10 -23 25 -29
22 -8 24 -12 13 -24 -7 -7 -18 -12 -24 -9 -7 3 -10 -5 -7 -21 3 -14 10 -26 15
-26 6 0 8 -7 4 -15 -7 -19 13 -19 41 0 15 11 34 14 61 9 29 -4 47 -1 65 11 19
12 37 15 65 10 38 -6 39 -6 39 24 0 17 -5 31 -10 31 -5 0 -7 7 -3 15 6 17 -19
21 -29 4 -4 -6 -19 -7 -37 -4 -21 5 -35 2 -48 -10 -15 -13 -23 -14 -39 -5 -12
6 -26 8 -31 5 -15 -10 -54 37 -53 64 1 47 14 73 34 68 10 -3 26 1 36 8 10 8
28 11 41 8 12 -3 29 0 37 7 9 7 26 9 47 5 28 -7 31 -6 20 7 -7 9 -10 23 -6 32
4 9 1 16 -6 16 -7 0 -10 7 -6 15 6 17 -9 21 -20 4z"/>
<path d="M872 2554 c-16 -11 -26 -12 -46 -3 -21 10 -29 9 -44 -4 -10 -10 -28
-17 -40 -17 -21 0 -26 -9 -23 -37 1 -7 -5 -23 -14 -36 -14 -22 -14 -25 0 -37
10 -9 14 -22 11 -37 -5 -18 -1 -24 18 -29 38 -9 42 -34 5 -30 -23 3 -27 1 -19
-9 8 -9 8 -15 0 -20 -8 -5 -8 -11 0 -20 7 -8 9 -19 5 -25 -3 -5 2 -10 14 -10
11 0 23 4 26 10 3 5 34 10 68 9 34 0 76 1 92 3 17 1 41 -1 54 -6 20 -7 23 -6
17 9 -3 10 -1 24 5 31 9 11 9 14 0 14 -8 0 -10 8 -6 20 7 21 -9 28 -21 9 -4
-7 -20 -8 -41 -4 -21 4 -40 2 -49 -6 -11 -9 -21 -9 -39 -1 -14 6 -32 9 -40 6
-10 -4 -15 0 -15 10 0 9 -6 19 -13 22 -7 2 -13 20 -13 39 0 19 6 37 13 39 7 3
13 13 13 21 0 12 6 15 20 10 12 -4 28 -1 36 6 12 9 20 9 39 -1 20 -10 27 -11
40 0 8 7 25 10 38 6 19 -4 23 -2 22 18 0 14 -3 28 -7 32 -4 4 -3 13 3 21 14
16 8 16 -24 2 -17 -8 -30 -8 -44 -1 -15 8 -25 7 -41 -4z"/>
<path d="M4024 2545 c3 -10 1 -24 -5 -31 -9 -11 -9 -14 0 -14 8 0 10 -8 6 -21
-7 -21 -5 -21 26 -14 19 5 54 8 79 7 25 -1 68 -1 95 -1 28 0 68 1 90 1 22 0
53 -3 69 -7 24 -7 28 -5 23 7 -3 9 0 21 6 27 9 9 9 14 -1 20 -7 4 -10 15 -6
26 6 16 4 17 -22 9 -16 -4 -49 -8 -74 -8 -73 2 -122 2 -180 1 -30 -1 -68 2
-84 7 -26 8 -28 7 -22 -9z"/>
<path d="M4019 2393 c-1 -10 -2 -33 -4 -51 l-3 -33 58 7 c38 4 65 2 81 -6 12
-7 59 -14 103 -15 45 -2 96 -6 114 -10 27 -6 31 -5 26 9 -3 9 -2 16 3 16 6 0
10 14 9 31 l-1 31 -52 -7 c-35 -4 -66 -1 -96 9 -29 10 -63 13 -98 9 -38 -4
-66 0 -93 11 -47 20 -46 20 -47 -1z"/>
<path d="M4026 2234 c-4 -15 -18 -36 -32 -46 -16 -13 -24 -30 -24 -49 0 -18
-6 -32 -16 -36 -11 -4 -15 -17 -13 -42 1 -20 -1 -50 -5 -68 -7 -28 -3 -38 30
-78 21 -25 47 -45 58 -45 22 0 121 72 134 98 5 9 12 33 16 52 9 55 32 80 70
80 31 0 32 -2 32 -39 -1 -22 -4 -43 -8 -47 -5 -4 -8 -20 -8 -35 0 -16 -7 -32
-17 -37 -9 -5 -17 -20 -19 -33 -1 -13 -3 -27 -3 -30 -1 -4 -11 -10 -23 -14
l-23 -8 23 -4 c12 -2 22 -9 22 -15 0 -6 6 -6 15 2 10 9 15 9 15 1 0 -6 5 -11
10 -11 6 0 10 11 10 25 0 14 8 29 21 35 15 9 19 18 15 34 -4 16 1 29 15 41 14
14 18 26 14 47 -4 15 -1 43 6 61 11 32 10 37 -21 75 -18 22 -39 43 -47 46 -40
16 -147 -79 -157 -139 -12 -63 -30 -85 -74 -85 -37 0 -37 1 -38 40 -1 22 2 40
7 40 5 0 9 14 9 31 0 21 9 40 25 55 14 13 25 32 25 44 0 12 10 25 25 32 30 13
33 28 5 21 -12 -3 -20 0 -20 6 0 7 -5 9 -10 6 -6 -4 -17 -2 -24 4 -11 9 -15 6
-20 -15z"/>
<path d="M940 2189 c0 -4 7 -9 15 -13 8 -3 15 -14 15 -25 0 -11 5 -23 10 -26
6 -3 10 -16 10 -29 0 -12 6 -28 12 -34 10 -10 10 -17 1 -31 -7 -10 -9 -28 -6
-40 8 -32 -26 -40 -49 -11 -14 17 -18 33 -14 55 5 24 1 39 -15 59 -13 17 -19
36 -16 51 2 14 1 25 -4 25 -4 0 -14 3 -22 6 -9 3 -29 -9 -51 -30 -19 -20 -39
-36 -44 -36 -5 0 -9 -31 -9 -70 0 -56 4 -73 19 -87 11 -10 26 -30 34 -44 11
-23 21 -27 81 -33 65 -7 68 -6 95 23 16 17 36 34 45 39 21 12 26 161 6 169 -7
3 -13 15 -13 28 0 13 -7 25 -15 29 -8 3 -15 12 -15 20 0 9 -11 13 -35 13 -19
-1 -35 -4 -35 -8z m-65 -113 c12 -8 16 -20 13 -34 -4 -13 2 -31 13 -47 16 -19
18 -29 9 -45 -12 -23 -26 -26 -37 -7 -4 8 -16 16 -25 20 -11 4 -15 12 -12 22
4 8 1 22 -6 31 -10 11 -10 18 -2 26 7 7 12 20 12 30 0 21 10 23 35 4z"/>
<path d="M1111 1871 c0 -7 -7 -11 -14 -8 -8 3 -20 1 -28 -4 -10 -6 -10 -9 -1
-9 6 0 12 -7 12 -15 0 -8 4 -15 9 -15 5 0 12 -10 16 -22 11 -35 9 -83 -3 -81
-6 2 -16 -6 -22 -18 -8 -13 -17 -18 -29 -14 -13 4 -20 -1 -24 -15 -8 -30 -51
-12 -55 23 -2 15 -11 29 -23 32 -15 5 -18 12 -13 28 6 19 5 20 -8 10 -8 -7
-18 -10 -21 -6 -4 3 -7 1 -7 -5 0 -7 -8 -12 -17 -12 -17 -1 -17 -1 0 -11 9 -5
17 -20 17 -33 0 -16 7 -26 21 -29 15 -4 20 -11 15 -22 -3 -9 -6 -23 -6 -30 0
-8 -7 -11 -20 -8 -11 3 -20 0 -20 -6 0 -6 -6 -11 -14 -11 -8 0 -17 -4 -20 -9
-4 -5 3 -7 14 -4 14 4 20 0 20 -12 0 -12 5 -15 20 -10 14 5 20 2 20 -10 0 -15
2 -15 15 -1 20 20 42 11 50 -22 5 -19 9 -22 15 -13 4 8 13 10 19 7 6 -4 11 -1
11 8 0 10 6 13 16 9 14 -5 14 -3 3 16 -8 11 -17 21 -22 21 -4 0 -3 9 3 20 6
11 21 20 34 20 16 0 26 7 29 21 4 15 11 19 24 15 28 -9 80 71 64 96 -6 10 -11
29 -11 43 0 14 -7 28 -15 31 -8 4 -15 12 -15 20 0 8 -6 14 -14 14 -8 0 -17 8
-19 18 -3 9 -5 11 -6 3z"/>
<path d="M3838 1774 c-6 -12 -19 -25 -29 -27 -11 -3 -19 -14 -19 -26 0 -12 -4
-21 -9 -21 -14 0 -8 -53 8 -72 14 -16 16 -16 28 2 8 11 11 25 8 30 -3 6 1 10
9 10 9 0 16 9 16 20 0 13 7 20 19 20 11 0 22 6 25 13 3 8 8 7 16 -6 7 -11 18
-16 30 -12 11 3 20 0 24 -10 3 -8 14 -15 25 -15 28 0 36 -41 11 -62 -11 -9
-20 -24 -20 -34 0 -9 -8 -23 -17 -30 -17 -13 -17 -13 0 -14 9 0 17 -5 17 -12
0 -6 3 -8 7 -5 3 4 13 1 21 -6 13 -10 14 -8 8 11 -6 19 -4 25 13 29 14 3 21
13 21 29 0 31 39 54 52 30 5 -9 16 -16 23 -16 8 0 15 -4 15 -10 0 -5 5 -10 11
-10 8 0 8 4 0 13 -8 10 -7 17 2 26 9 9 9 14 -2 20 -7 5 -11 13 -8 17 5 10 -18
36 -25 28 -3 -2 -5 3 -5 11 0 8 4 15 8 15 3 0 9 8 11 18 6 20 -12 40 -30 34
-6 -2 -12 2 -12 10 0 8 -4 7 -11 -5 -5 -9 -7 -22 -4 -27 4 -6 -6 -10 -24 -10
-21 0 -32 6 -36 20 -5 15 -12 19 -25 15 -12 -4 -22 1 -28 12 -8 13 -24 18 -62
19 -45 1 -53 -2 -62 -22z"/>
<path d="M1256 1595 c-3 -14 -16 -25 -31 -29 -15 -4 -30 -17 -35 -31 -6 -16
-17 -25 -30 -25 -14 0 -26 -11 -36 -32 -8 -18 -20 -41 -26 -50 -10 -13 -9 -21
5 -36 9 -10 17 -28 17 -40 0 -15 8 -24 24 -28 14 -3 27 -13 30 -21 4 -10 14
-13 35 -8 18 4 32 2 37 -6 4 -8 3 -9 -4 -5 -7 4 -12 1 -12 -8 0 -8 -6 -17 -12
-19 -10 -4 -10 -6 0 -6 6 -1 12 -8 12 -16 0 -8 7 -15 15 -15 8 0 15 -4 15 -10
0 -21 20 -9 35 21 9 17 29 35 46 41 17 6 41 27 55 49 14 23 32 39 43 39 10 0
24 7 31 15 10 12 10 15 -4 15 -9 0 -16 5 -16 10 0 6 -9 19 -19 29 -18 18 -19
18 -30 -5 -6 -14 -19 -24 -31 -24 -13 0 -24 -10 -30 -25 -5 -14 -18 -28 -27
-32 -10 -3 -25 -12 -35 -20 -11 -10 -18 -11 -23 -4 -3 6 -13 11 -21 11 -42 0
-80 93 -43 105 9 3 21 17 27 30 6 14 20 25 30 25 10 0 24 11 30 25 7 15 20 25
32 25 11 0 20 5 20 10 0 6 -7 10 -15 10 -8 0 -15 5 -15 10 0 6 -9 19 -19 29
-19 19 -19 19 -25 -4z"/>
<path d="M3710 1580 c0 -6 -11 -16 -25 -22 -14 -6 -25 -19 -25 -29 0 -10 -9
-23 -20 -29 -15 -8 -18 -17 -13 -41 6 -30 5 -31 -16 -20 -14 8 -21 8 -21 1 0
-5 -6 -10 -12 -10 -7 0 -18 -11 -25 -25 -10 -22 -9 -25 8 -25 12 0 23 -10 29
-25 5 -14 21 -30 34 -35 13 -5 27 -18 31 -29 3 -12 14 -21 24 -21 10 0 36 -7
57 -16 37 -16 39 -15 53 5 8 12 29 28 48 36 22 9 33 21 33 34 0 12 7 21 15 21
9 0 15 9 15 23 0 13 4 27 9 33 5 5 -1 18 -15 31 l-23 23 -15 -31 c-8 -16 -13
-36 -10 -43 3 -8 -4 -16 -15 -19 -12 -3 -21 -12 -21 -21 0 -10 -9 -16 -23 -16
-13 0 -28 -5 -34 -11 -18 -18 -26 9 -12 44 7 18 25 46 41 63 27 29 28 34 22
87 -6 51 -9 57 -30 57 -12 0 -26 5 -29 10 -8 13 -35 13 -35 0z m41 -90 c15 0
10 -27 -6 -34 -8 -3 -15 -14 -15 -25 0 -28 -38 -53 -62 -40 -19 10 -25 39 -8
39 6 0 10 11 10 25 0 16 6 25 15 25 8 0 15 7 15 15 0 9 6 12 15 9 9 -4 15 0
16 7 1 8 3 6 6 -3 2 -10 9 -18 14 -18z"/>
<path d="M3445 1305 c-16 -8 -42 -16 -57 -19 -15 -4 -30 -15 -33 -26 -3 -11
-13 -20 -21 -20 -8 0 -14 -5 -14 -12 0 -6 -7 -20 -17 -30 -10 -12 -12 -18 -4
-18 7 0 9 -5 6 -10 -4 -6 -4 -17 -1 -25 4 -12 11 -9 31 11 14 14 25 29 25 34
0 6 7 10 16 10 9 0 23 8 30 17 8 12 27 18 58 19 38 1 47 -2 52 -20 4 -11 14
-26 22 -32 10 -7 12 -18 6 -35 -4 -13 -7 -30 -6 -37 2 -6 -8 -16 -21 -21 -13
-5 -27 -17 -31 -26 -4 -11 -12 -14 -25 -10 -11 3 -22 1 -26 -5 -3 -5 -16 -11
-28 -11 -16 -1 -17 -3 -5 -6 10 -2 15 -10 11 -19 -3 -9 1 -14 12 -14 10 0 13
-4 9 -12 -5 -9 -3 -9 9 1 9 7 26 11 36 8 12 -3 22 1 25 9 3 8 14 14 25 14 13
0 27 12 37 31 9 17 27 41 40 53 21 19 22 25 14 61 -5 22 -12 53 -15 68 -4 18
-15 31 -31 38 -15 5 -38 18 -52 29 -29 23 -36 24 -77 5z"/>
<path d="M1494 1293 c-12 -10 -36 -26 -53 -35 -24 -13 -31 -24 -31 -46 0 -16
-5 -44 -12 -62 -10 -31 -9 -35 15 -55 14 -13 32 -37 41 -54 12 -22 24 -31 41
-31 13 0 41 -8 60 -17 34 -16 38 -16 63 0 15 9 42 24 60 32 24 12 32 22 32 41
0 15 5 44 12 66 10 35 9 41 -13 66 -14 15 -32 38 -40 51 -14 22 -51 38 -134
57 -11 2 -30 -4 -41 -13z m102 -67 c3 -8 17 -17 31 -21 18 -4 24 -11 20 -24
-2 -10 0 -26 5 -35 8 -13 5 -23 -11 -37 -12 -11 -21 -26 -21 -33 0 -8 -16 -16
-41 -19 -32 -4 -45 -1 -60 14 -10 10 -23 19 -29 19 -5 0 -10 9 -10 21 0 11 -5
29 -10 39 -8 15 -6 21 10 30 11 6 20 19 20 30 0 14 9 20 33 23 17 2 38 5 45 5
7 1 15 -4 18 -12z"/>
<path d="M3225 1160 c-3 -5 -12 -7 -20 -3 -8 3 -15 0 -15 -6 0 -6 -8 -11 -17
-11 -15 0 -15 -2 -4 -9 8 -5 11 -16 8 -25 -4 -10 -1 -19 8 -22 15 -6 17 -54 2
-54 -4 0 -5 -4 -2 -10 4 -6 -6 -10 -24 -10 -20 0 -34 7 -41 20 -7 12 -21 20
-38 20 -17 0 -32 8 -41 22 -12 19 -14 20 -23 4 -5 -9 -14 -13 -20 -10 -6 4
-16 0 -22 -8 -6 -8 -18 -17 -26 -21 -8 -3 -1 -6 16 -6 19 -1 39 -10 54 -26 14
-15 35 -25 52 -25 32 0 68 -31 68 -59 0 -10 -11 -26 -25 -35 -14 -9 -25 -24
-25 -33 0 -9 -10 -28 -22 -42 -13 -14 -16 -20 -8 -13 8 6 24 12 36 12 13 0 26
5 29 10 3 6 15 10 26 10 14 0 19 7 19 25 0 14 8 29 21 36 13 7 19 17 16 29 -3
11 0 26 7 35 18 25 47 -3 50 -48 2 -22 13 -48 26 -62 15 -16 20 -30 15 -45 -6
-19 -4 -20 22 -14 15 4 30 11 31 16 2 4 10 8 18 8 21 0 17 15 -13 50 -16 19
-29 51 -34 81 -5 30 -20 67 -40 93 -20 29 -33 61 -36 90 -5 44 -15 57 -28 36z"/>
<path d="M1919 1105 c-1 -5 -1 -17 0 -26 1 -8 -8 -24 -19 -34 -11 -10 -20 -29
-20 -43 0 -28 -45 -87 -55 -71 -4 6 -14 8 -22 5 -9 -4 -22 -1 -29 5 -8 6 -14
8 -14 4 0 -5 -9 0 -20 10 -18 16 -20 16 -20 2 0 -10 -5 -17 -11 -17 -6 0 -9
-6 -6 -14 3 -7 1 -18 -5 -24 -14 -14 14 -27 38 -18 9 4 23 1 30 -5 11 -9 19
-8 32 5 24 21 50 22 32 1 -7 -8 -9 -15 -5 -15 4 0 1 -8 -6 -17 -12 -14 -12
-15 0 -9 7 5 16 4 20 -1 3 -6 18 -13 34 -17 26 -6 27 -5 27 29 0 23 8 43 22
57 11 11 25 42 30 67 5 28 16 51 28 60 23 16 27 43 5 35 -10 -4 -15 0 -15 11
0 12 -5 15 -17 11 -9 -4 -20 -1 -25 6 -4 7 -8 9 -9 3z"/>
<path d="M2276 985 c3 -13 -1 -27 -10 -34 -10 -9 -13 -22 -9 -43 4 -20 1 -33
-8 -39 -21 -13 -62 -10 -84 7 -14 10 -31 13 -56 9 -26 -5 -39 -2 -49 9 -16 20
-31 21 -24 1 4 -8 2 -15 -4 -15 -5 0 -9 -12 -8 -26 1 -22 5 -25 27 -20 15 3
35 -1 47 -10 11 -7 39 -13 61 -12 48 2 88 -26 70 -48 -6 -7 -8 -18 -4 -25 18
-29 -60 -39 -100 -13 -17 11 -36 14 -58 10 -22 -4 -40 -1 -52 9 -26 19 -35 19
-35 0 0 -8 -3 -15 -7 -15 -5 0 -8 -12 -8 -26 0 -24 2 -26 39 -21 28 4 51 0 77
-14 23 -11 59 -19 87 -19 35 0 57 -6 76 -21 22 -17 29 -19 42 -8 12 10 14 24
9 64 -5 42 -2 59 14 86 15 25 20 50 19 90 -1 38 4 63 15 80 9 13 17 29 17 35
0 12 -29 24 -67 28 -18 1 -21 -2 -17 -19z"/>
<path d="M2674 1002 c-16 -11 -24 -41 -13 -47 5 -4 7 -10 5 -14 -11 -17 41 -5
55 13 16 19 16 22 -4 38 -22 20 -27 21 -43 10z"/>
</g>
</svg>
