<?xml version="1.0" standalone="no"?>
<!DOCTYPE svg PUBLIC "-//W3C//DTD SVG 20010904//EN"
 "http://www.w3.org/TR/2001/REC-SVG-20010904/DTD/svg10.dtd">
<svg version="1.0" xmlns="http://www.w3.org/2000/svg"
 width="649.000000pt" height="717.000000pt" viewBox="0 0 649.000000 717.000000"
 preserveAspectRatio="xMidYMid meet">

<g transform="translate(0.000000,717.000000) scale(0.100000,-0.100000)"
fill="#000000" stroke="none">
<path d="M2790 7053 c-266 -22 -611 -150 -851 -314 -92 -63 -211 -175 -241
-225 l-16 -29 75 3 c70 4 76 3 103 -23 37 -35 44 -66 26 -110 -18 -42 -63 -65
-128 -65 -156 0 -489 -171 -654 -336 -57 -57 -134 -184 -134 -222 0 -21 62 26
125 94 38 42 59 56 87 61 33 5 41 2 73 -30 59 -59 47 -103 -57 -203 -60 -60
-146 -121 -272 -195 -124 -73 -274 -280 -322 -444 -17 -60 -23 -220 -10 -261
7 -21 64 -54 95 -54 13 0 27 24 56 98 53 136 126 281 185 365 55 81 169 198
245 253 73 53 199 110 299 135 82 21 90 26 137 77 90 98 125 203 112 337 -7
78 8 120 50 141 38 20 87 11 116 -20 46 -49 47 -248 2 -378 -30 -86 -79 -156
-177 -249 -152 -145 -173 -168 -201 -221 -26 -49 -28 -61 -27 -168 1 -94 6
-131 28 -204 15 -51 24 -97 20 -110 -18 -60 -87 -90 -142 -62 -37 19 -63 81
-92 225 -23 115 -25 191 -6 281 8 36 13 66 12 67 -1 1 -29 -20 -63 -47 -119
-97 -240 -290 -323 -520 -56 -152 -130 -210 -256 -197 -28 3 -70 14 -92 25
l-40 19 -48 -81 c-60 -101 -110 -231 -125 -326 -11 -71 -6 -183 10 -208 5 -8
29 12 74 62 121 135 249 216 343 216 43 0 54 -4 79 -30 57 -60 21 -150 -66
-165 -55 -9 -119 -56 -205 -149 -262 -284 -386 -580 -386 -916 0 -224 46 -355
164 -474 38 -38 73 -77 78 -87 18 -32 11 -68 -19 -101 -22 -25 -36 -32 -65
-32 l-37 0 7 -70 c28 -298 241 -639 553 -888 97 -78 139 -98 202 -98 45 0 55
-4 85 -34 35 -35 41 -57 24 -100 -27 -73 -164 -90 -273 -34 -21 10 -41 18 -43
16 -7 -7 89 -165 138 -227 96 -122 247 -222 414 -274 138 -44 254 -59 494 -66
250 -7 269 -12 290 -75 13 -39 6 -61 -28 -98 -20 -22 -35 -28 -66 -28 l-41 0
34 -21 c53 -32 189 -85 281 -110 70 -19 111 -23 235 -24 131 0 158 3 216 23
127 44 244 128 305 220 21 31 41 61 45 66 4 4 19 -11 34 -35 69 -111 182 -198
320 -245 105 -35 293 -44 431 -20 230 40 451 142 629 291 48 40 55 42 151 54
289 34 541 159 695 343 81 97 131 181 222 369 58 120 119 227 199 346 63 94
136 211 161 260 107 209 150 411 128 594 l-11 86 45 85 c60 114 85 213 92 368
11 253 -47 496 -173 716 l-45 79 30 65 c94 205 54 463 -115 747 l-59 98 0 140
c-1 153 -13 218 -66 333 -43 95 -127 216 -213 306 l-76 80 0 61 c0 147 -63
279 -196 411 -81 81 -128 115 -324 243 -71 47 -126 102 -144 146 -134 320
-707 647 -1219 695 -207 19 -358 -25 -449 -130 l-41 -48 -29 39 c-75 103 -220
156 -388 142z m905 -174 c318 -39 693 -202 900 -391 57 -52 135 -143 135 -157
0 -4 -26 -4 -57 0 -73 10 -109 2 -133 -29 -26 -33 -25 -75 3 -107 19 -23 34
-28 106 -36 51 -6 120 -23 179 -45 126 -47 136 -52 274 -146 169 -114 270
-230 293 -336 7 -33 6 -33 -16 -21 -13 7 -55 43 -93 81 -59 58 -74 68 -104 68
-78 0 -107 -79 -57 -153 36 -53 135 -131 260 -207 113 -67 181 -132 257 -243
88 -129 136 -277 125 -391 -8 -83 -12 -92 -62 -116 -48 -23 -71 -19 -79 15 -3
13 -29 78 -57 144 -149 354 -343 546 -632 627 -84 24 -97 31 -150 83 -32 31
-70 81 -85 111 -24 49 -27 68 -31 183 -3 122 -4 128 -28 147 -37 29 -79 26
-114 -9 -29 -29 -29 -31 -29 -143 0 -215 31 -280 222 -470 173 -172 194 -208
192 -343 -1 -60 -9 -116 -25 -170 -12 -44 -22 -95 -22 -113 0 -46 30 -74 83
-76 51 -1 72 21 95 97 44 148 56 341 25 421 -6 16 -8 31 -6 34 11 10 121 -85
173 -150 75 -92 134 -200 195 -353 28 -71 58 -140 67 -152 23 -33 108 -73 153
-73 21 0 66 9 99 20 72 25 63 31 133 -100 87 -165 119 -305 96 -424 -7 -37
-15 -66 -19 -65 -3 0 -28 27 -56 61 -142 173 -338 266 -410 193 -35 -34 -33
-78 4 -116 19 -19 40 -29 59 -29 63 0 208 -138 337 -321 155 -218 229 -443
229 -694 0 -209 -51 -351 -164 -459 -33 -32 -65 -66 -71 -77 -25 -48 24 -119
82 -119 34 0 37 -11 27 -113 -9 -97 -55 -234 -116 -351 -38 -73 -71 -116 -175
-225 -137 -146 -268 -268 -326 -303 -26 -17 -52 -23 -100 -23 -54 -1 -67 -5
-82 -24 -25 -31 -25 -95 0 -120 42 -42 155 -40 242 4 61 31 61 30 -4 -83 -111
-196 -263 -322 -472 -391 -138 -45 -257 -62 -475 -67 -107 -3 -205 -7 -217
-10 -58 -12 -82 -88 -42 -138 17 -21 29 -26 65 -26 24 0 44 -4 44 -10 0 -14
-151 -84 -245 -113 -116 -36 -221 -51 -327 -44 -223 12 -362 108 -429 293 -18
48 -23 88 -27 212 l-4 153 87 -57 c320 -209 785 -243 1139 -85 223 100 386
257 613 586 227 328 347 463 507 569 90 60 112 90 101 133 -18 75 -89 83 -185
22 -191 -121 -300 -242 -580 -644 -249 -358 -439 -508 -723 -572 -102 -23
-326 -22 -437 1 -190 40 -344 119 -457 234 l-63 63 0 500 c0 274 1 499 3 499
2 0 65 -20 139 -45 371 -122 605 -113 722 26 45 53 80 132 72 163 -10 42 -41
66 -84 66 -41 0 -65 -19 -92 -74 -18 -36 -63 -70 -114 -86 -85 -27 -296 13
-546 103 l-95 35 -3 990 -2 991 57 -23 c203 -80 344 -158 405 -224 49 -53 48
-60 -27 -192 -61 -108 -80 -154 -89 -225 -15 -114 39 -252 132 -335 92 -82
379 -210 471 -210 67 0 107 87 64 139 -10 11 -59 34 -113 51 -128 42 -252 103
-302 148 -50 45 -80 108 -80 169 0 46 7 63 108 252 35 66 39 81 39 145 -1 80
-14 113 -73 178 -72 79 -250 179 -479 269 l-113 44 0 349 c0 340 0 348 19 335
206 -149 274 -169 378 -109 62 36 83 63 83 109 0 77 -86 108 -149 55 -39 -32
-48 -29 -158 50 -49 35 -107 73 -130 85 l-43 21 0 364 0 364 36 12 c19 7 92
50 161 96 199 134 246 153 315 129 93 -32 148 -9 148 63 0 21 -7 47 -15 59
-24 34 -100 58 -185 58 -94 -1 -163 -31 -332 -146 -64 -43 -120 -79 -124 -79
-13 0 3 304 20 355 25 80 99 139 195 155 66 11 67 11 166 -1z m-1339 -134 c28
-18 48 -68 40 -101 -4 -15 -19 -36 -33 -48 -90 -74 -126 -114 -155 -174 -28
-57 -32 -75 -33 -152 0 -77 3 -93 30 -146 57 -110 125 -126 330 -74 190 49
305 42 401 -23 114 -76 154 -178 95 -238 -51 -51 -130 -31 -170 44 -7 14 -24
30 -38 36 -29 13 -144 14 -193 2 -19 -5 -47 -12 -62 -15 l-27 -6 22 -48 c17
-36 22 -65 21 -127 -1 -124 -48 -220 -177 -363 -45 -50 -71 -89 -83 -124 -51
-154 64 -295 327 -403 46 -19 94 -46 107 -60 32 -38 30 -89 -7 -126 -36 -36
-69 -37 -154 -5 -333 125 -519 354 -478 587 18 96 57 169 144 267 178 200 171
304 -27 397 -68 31 -103 55 -139 94 -180 193 -160 520 42 722 99 100 157 122
217 84z m464 -146 c80 -22 210 -82 275 -127 l40 -28 3 -112 c2 -71 -1 -112 -8
-112 -5 0 -49 29 -97 65 -183 136 -308 173 -421 125 -60 -26 -92 -22 -128 17
-32 34 -33 92 -1 128 53 62 203 81 337 44z m318 -1246 l-3 -98 -60 -36 c-143
-89 -260 -107 -347 -56 -84 49 -101 116 -43 174 31 31 40 35 72 30 20 -4 46
-15 58 -27 35 -33 82 -26 156 22 91 59 142 88 157 88 10 0 12 -23 10 -97z
m-1129 -248 c19 -18 26 -36 26 -64 0 -47 -22 -74 -85 -106 -93 -47 -120 -102
-120 -239 0 -104 15 -196 65 -396 91 -363 87 -491 -19 -597 -65 -65 -131 -87
-261 -86 -141 2 -252 44 -348 135 l-37 36 -26 -44 c-89 -151 -143 -360 -151
-584 -11 -304 55 -481 207 -557 116 -58 140 -115 76 -179 -44 -44 -74 -44
-164 1 -164 82 -265 242 -308 486 -21 124 -14 361 15 501 42 193 111 371 196
498 l46 69 -15 53 c-48 169 -37 389 27 540 30 72 111 87 164 30 21 -23 24 -33
19 -72 -3 -25 -12 -70 -21 -100 -21 -73 -22 -255 -1 -333 44 -161 129 -253
257 -277 73 -14 166 -3 192 23 32 32 19 170 -37 397 -61 246 -76 336 -76 455
0 162 37 263 127 345 106 97 197 120 252 65z m1131 -610 c0 -64 -4 -96 -12
-102 -7 -4 -66 -31 -131 -59 -219 -97 -347 -187 -347 -246 0 -13 29 -74 64
-137 36 -62 72 -142 82 -177 40 -150 -9 -310 -128 -418 -99 -90 -402 -226
-504 -226 -49 0 -94 45 -94 94 0 57 32 83 145 120 123 40 217 83 289 131 76
50 110 118 104 208 -3 55 -11 76 -66 172 -34 61 -70 134 -78 164 -48 162 59
303 336 441 110 55 321 140 332 134 4 -3 8 -47 8 -99z m-2482 -1010 c39 -32
48 -72 28 -120 -33 -78 -50 -206 -50 -370 1 -172 13 -248 59 -370 119 -316
432 -500 885 -522 l115 -5 33 50 c72 108 106 249 73 310 -20 38 -13 72 24 109
31 31 40 35 72 30 47 -8 78 -39 97 -95 19 -53 21 -164 5 -230 -18 -74 -82
-201 -134 -267 l-47 -60 5 -115 c6 -128 26 -201 76 -274 101 -146 297 -201
478 -134 60 22 139 89 179 153 53 82 140 90 179 15 22 -42 19 -70 -15 -123
-72 -115 -179 -197 -315 -243 -101 -34 -245 -39 -339 -10 -265 79 -428 294
-443 582 l-6 101 -86 7 c-651 53 -1030 385 -1092 955 -22 199 19 520 77 608
31 48 97 56 142 18z m2349 -145 c42 -25 50 -60 41 -168 -15 -181 -72 -317
-177 -422 -115 -115 -226 -154 -441 -154 -262 0 -380 56 -641 310 -183 177
-218 197 -367 204 -98 5 -105 6 -128 33 -47 55 -28 133 38 156 44 15 163 13
227 -4 125 -33 196 -82 391 -270 137 -132 196 -174 286 -206 121 -42 325 -34
423 15 112 57 191 207 191 364 0 75 17 120 53 142 40 25 64 25 104 0z m-702
-964 c20 -9 40 -28 51 -48 42 -84 85 -108 196 -108 103 0 196 22 403 95 88 30
165 57 170 58 6 1 11 -39 13 -100 l3 -101 -83 -32 c-252 -98 -375 -130 -504
-130 -169 0 -289 68 -359 202 -14 26 -25 60 -25 76 0 33 32 79 64 92 29 12 32
12 71 -4z m-1535 -322 c187 -113 337 -272 565 -599 200 -287 331 -428 484
-523 211 -130 395 -166 638 -127 237 38 455 143 613 293 36 34 66 62 67 62 2
0 3 -56 3 -125 l0 -124 -77 -55 c-392 -277 -817 -329 -1199 -147 -278 133
-464 310 -743 708 -157 224 -283 357 -433 456 -48 32 -92 66 -98 77 -17 33
-11 77 15 109 42 49 77 48 165 -5z"/>
<path d="M4072 6567 c-15 -15 -22 -36 -22 -61 0 -39 5 -46 93 -119 168 -138
147 -449 -33 -497 -39 -10 -57 -8 -169 19 -278 67 -385 48 -488 -88 -53 -69
-40 -151 25 -166 42 -9 78 9 107 54 32 47 73 67 138 64 42 -1 187 -31 187 -38
0 -1 -9 -24 -21 -50 -17 -38 -20 -63 -17 -129 3 -70 8 -93 40 -157 21 -43 65
-105 104 -148 70 -78 114 -157 114 -205 0 -116 -119 -239 -310 -319 -36 -15
-76 -33 -90 -40 -55 -28 -63 -112 -14 -144 37 -24 102 -12 209 40 182 88 281
175 338 295 29 61 32 76 32 163 0 90 -2 99 -37 170 -21 42 -66 106 -104 149
-123 137 -144 233 -69 310 23 23 60 46 95 59 157 58 250 204 250 395 0 182
-84 348 -218 435 -60 38 -109 41 -140 8z"/>
<path d="M4415 5025 c-27 -26 -33 -72 -15 -106 6 -10 30 -28 53 -40 64 -32
106 -77 122 -133 29 -96 17 -201 -55 -496 -74 -300 -75 -432 -7 -523 112 -148
427 -138 591 18 l45 44 24 -42 c99 -168 166 -460 153 -662 -15 -243 -83 -379
-223 -446 -89 -43 -108 -95 -54 -150 38 -37 69 -37 150 1 121 58 224 194 265
354 85 326 6 777 -186 1062 l-35 52 18 68 c35 135 20 394 -29 494 -30 61 -97
75 -142 30 -25 -25 -25 -56 1 -160 28 -110 23 -275 -10 -362 -51 -132 -131
-206 -243 -227 -76 -14 -151 -3 -182 28 -18 18 -21 32 -20 94 1 40 14 122 28
182 93 389 90 371 90 525 1 128 -2 152 -22 202 -30 76 -101 152 -173 189 -72
36 -112 37 -144 4z"/>
<path d="M5713 3500 c-32 -13 -56 -55 -50 -87 3 -16 16 -64 28 -108 19 -69 22
-106 22 -270 1 -166 -2 -200 -21 -269 -59 -213 -186 -373 -371 -469 -133 -70
-341 -119 -545 -130 l-68 -3 -44 65 c-41 62 -84 169 -84 212 0 10 7 39 16 65
27 79 -4 134 -75 134 -31 0 -44 -6 -64 -30 -26 -30 -47 -105 -47 -164 0 -101
52 -236 138 -355 l47 -66 -1 -90 c-1 -49 -7 -110 -14 -135 -33 -122 -111 -219
-214 -267 -54 -25 -72 -28 -161 -28 -87 0 -107 3 -156 26 -66 31 -129 86 -160
137 -30 50 -47 62 -89 62 -82 0 -111 -67 -64 -147 40 -70 133 -156 206 -192
91 -45 160 -61 263 -61 164 0 285 49 395 160 104 104 153 225 168 411 l7 94
98 7 c195 14 388 66 534 143 238 126 380 307 451 575 36 139 43 386 13 556
-26 157 -44 202 -87 220 -38 16 -41 16 -71 4z"/>
<path d="M3457 3348 c-30 -23 -36 -61 -27 -163 16 -169 87 -328 181 -408 105
-91 209 -121 404 -121 123 1 150 4 218 26 125 42 203 95 367 253 190 182 239
209 368 208 77 -1 87 1 108 23 32 32 33 92 1 122 -49 46 -219 37 -334 -17 -75
-36 -141 -89 -284 -227 -133 -129 -187 -166 -284 -197 -88 -27 -241 -29 -326
-4 -139 41 -231 172 -245 347 -8 105 -14 130 -35 151 -22 22 -86 26 -112 7z"/>
</g>
</svg>
