<svg width="117" height="86" viewBox="0 0 117 86" fill="none" xmlns="http://www.w3.org/2000/svg">
<mask id="path-1-inside-1_1343_222" fill="white">
<ellipse cx="113.069" cy="43.2009" rx="3.01811" ry="3.01095"/>
</mask>
<path d="M112.087 43.2009C112.087 42.6457 112.536 42.2118 113.069 42.2118V50.2118C116.936 50.2118 120.087 47.0819 120.087 43.2009H112.087ZM113.069 42.2118C113.602 42.2118 114.051 42.6457 114.051 43.2009H106.051C106.051 47.0819 109.202 50.2118 113.069 50.2118V42.2118ZM114.051 43.2009C114.051 43.7561 113.602 44.1899 113.069 44.1899V36.1899C109.202 36.1899 106.051 39.3199 106.051 43.2009H114.051ZM113.069 44.1899C112.536 44.1899 112.087 43.7561 112.087 43.2009H120.087C120.087 39.3199 116.936 36.1899 113.069 36.1899V44.1899Z" fill="#191D29" mask="url(#path-1-inside-1_1343_222)"/>
<mask id="path-3-inside-2_1343_222" fill="white">
<ellipse cx="113.069" cy="72.9089" rx="3.01811" ry="3.01095"/>
</mask>
<path d="M112.087 72.9089C112.087 72.3537 112.536 71.9198 113.069 71.9198V79.9198C116.936 79.9198 120.087 76.7899 120.087 72.9089H112.087ZM113.069 71.9198C113.602 71.9198 114.051 72.3537 114.051 72.9089H106.051C106.051 76.7899 109.202 79.9198 113.069 79.9198V71.9198ZM114.051 72.9089C114.051 73.4641 113.602 73.8979 113.069 73.8979V65.8979C109.202 65.8979 106.051 69.0279 106.051 72.9089H114.051ZM113.069 73.8979C112.536 73.8979 112.087 73.4641 112.087 72.9089H120.087C120.087 69.0279 116.936 65.8979 113.069 65.8979V73.8979Z" fill="#191D29" mask="url(#path-3-inside-2_1343_222)"/>
<mask id="path-5-inside-3_1343_222" fill="white">
<ellipse cx="113.069" cy="53.6389" rx="3.01811" ry="3.01095"/>
</mask>
<path d="M112.087 53.6389C112.087 53.0837 112.536 52.6498 113.069 52.6498V60.6498C116.936 60.6498 120.087 57.5199 120.087 53.6389H112.087ZM113.069 52.6498C113.602 52.6498 114.051 53.0837 114.051 53.6389H106.051C106.051 57.5199 109.202 60.6498 113.069 60.6498V52.6498ZM114.051 53.6389C114.051 54.1941 113.602 54.6279 113.069 54.6279V46.6279C109.202 46.6279 106.051 49.7579 106.051 53.6389H114.051ZM113.069 54.6279C112.536 54.6279 112.087 54.1941 112.087 53.6389H120.087C120.087 49.7579 116.936 46.6279 113.069 46.6279V54.6279Z" fill="#191D29" mask="url(#path-5-inside-3_1343_222)"/>
<mask id="path-7-inside-4_1343_222" fill="white">
<ellipse cx="113.069" cy="33.5656" rx="3.01811" ry="3.01095"/>
</mask>
<path d="M112.087 33.5656C112.087 33.0104 112.536 32.5766 113.069 32.5766V40.5766C116.936 40.5766 120.087 37.4466 120.087 33.5656H112.087ZM113.069 32.5766C113.602 32.5766 114.051 33.0104 114.051 33.5656H106.051C106.051 37.4466 109.202 40.5766 113.069 40.5766V32.5766ZM114.051 33.5656C114.051 34.1208 113.602 34.5547 113.069 34.5547V26.5547C109.202 26.5547 106.051 29.6846 106.051 33.5656H114.051ZM113.069 34.5547C112.536 34.5547 112.087 34.1208 112.087 33.5656H120.087C120.087 29.6846 116.936 26.5547 113.069 26.5547V34.5547Z" fill="#191D29" mask="url(#path-7-inside-4_1343_222)"/>
<mask id="path-9-inside-5_1343_222" fill="white">
<ellipse cx="113.069" cy="13.4929" rx="3.01811" ry="3.01095"/>
</mask>
<path d="M112.087 13.4929C112.087 12.9377 112.536 12.5038 113.069 12.5038V20.5038C116.936 20.5038 120.087 17.3739 120.087 13.4929H112.087ZM113.069 12.5038C113.602 12.5038 114.051 12.9377 114.051 13.4929H106.051C106.051 17.3739 109.202 20.5038 113.069 20.5038V12.5038ZM114.051 13.4929C114.051 14.0481 113.602 14.4819 113.069 14.4819V6.48193C109.202 6.48193 106.051 9.61189 106.051 13.4929H114.051ZM113.069 14.4819C112.536 14.4819 112.087 14.0481 112.087 13.4929H120.087C120.087 9.61189 116.936 6.48193 113.069 6.48193V14.4819Z" fill="#191D29" mask="url(#path-9-inside-5_1343_222)"/>
<mask id="path-11-inside-6_1343_222" fill="white">
<ellipse cx="113.069" cy="23.1276" rx="3.01811" ry="3.01095"/>
</mask>
<path d="M112.087 23.1276C112.087 22.5725 112.536 22.1386 113.069 22.1386V30.1386C116.936 30.1386 120.087 27.0086 120.087 23.1276H112.087ZM113.069 22.1386C113.602 22.1386 114.051 22.5725 114.051 23.1276H106.051C106.051 27.0086 109.202 30.1386 113.069 30.1386V22.1386ZM114.051 23.1276C114.051 23.6828 113.602 24.1167 113.069 24.1167V16.1167C109.202 16.1167 106.051 19.2467 106.051 23.1276H114.051ZM113.069 24.1167C112.536 24.1167 112.087 23.6828 112.087 23.1276H120.087C120.087 19.2467 116.936 16.1167 113.069 16.1167V24.1167Z" fill="#191D29" mask="url(#path-11-inside-6_1343_222)"/>
<mask id="path-13-inside-7_1343_222" fill="white">
<ellipse cx="113.069" cy="63.2736" rx="3.01811" ry="3.01095"/>
</mask>
<path d="M112.087 63.2736C112.087 62.7185 112.536 62.2846 113.069 62.2846V70.2846C116.936 70.2846 120.087 67.1546 120.087 63.2736H112.087ZM113.069 62.2846C113.602 62.2846 114.051 62.7185 114.051 63.2736H106.051C106.051 67.1546 109.202 70.2846 113.069 70.2846V62.2846ZM114.051 63.2736C114.051 63.8288 113.602 64.2627 113.069 64.2627V56.2627C109.202 56.2627 106.051 59.3927 106.051 63.2736H114.051ZM113.069 64.2627C112.536 64.2627 112.087 63.8288 112.087 63.2736H120.087C120.087 59.3927 116.936 56.2627 113.069 56.2627V64.2627Z" fill="#191D29" mask="url(#path-13-inside-7_1343_222)"/>
<mask id="path-15-inside-8_1343_222" fill="white">
<ellipse cx="99.3873" cy="43.2009" rx="3.01811" ry="3.01095"/>
</mask>
<path d="M98.4054 43.2009C98.4054 42.6457 98.8539 42.2118 99.3872 42.2118V50.2118C103.254 50.2118 106.405 47.0819 106.405 43.2009H98.4054ZM99.3872 42.2118C99.9206 42.2118 100.369 42.6457 100.369 43.2009H92.3691C92.3691 47.0819 95.5202 50.2118 99.3872 50.2118V42.2118ZM100.369 43.2009C100.369 43.7561 99.9206 44.1899 99.3872 44.1899V36.1899C95.5202 36.1899 92.3691 39.3199 92.3691 43.2009H100.369ZM99.3872 44.1899C98.8539 44.1899 98.4054 43.7561 98.4054 43.2009H106.405C106.405 39.3199 103.254 36.1899 99.3872 36.1899V44.1899Z" fill="#191D29" mask="url(#path-15-inside-8_1343_222)"/>
<mask id="path-17-inside-9_1343_222" fill="white">
<ellipse cx="99.3873" cy="72.9089" rx="3.01811" ry="3.01095"/>
</mask>
<path d="M98.4054 72.9089C98.4054 72.3537 98.8539 71.9198 99.3872 71.9198V79.9198C103.254 79.9198 106.405 76.7899 106.405 72.9089H98.4054ZM99.3872 71.9198C99.9206 71.9198 100.369 72.3537 100.369 72.9089H92.3691C92.3691 76.7899 95.5202 79.9198 99.3872 79.9198V71.9198ZM100.369 72.9089C100.369 73.4641 99.9206 73.8979 99.3872 73.8979V65.8979C95.5202 65.8979 92.3691 69.0279 92.3691 72.9089H100.369ZM99.3872 73.8979C98.8539 73.8979 98.4054 73.4641 98.4054 72.9089H106.405C106.405 69.0279 103.254 65.8979 99.3872 65.8979V73.8979Z" fill="#191D29" mask="url(#path-17-inside-9_1343_222)"/>
<mask id="path-19-inside-10_1343_222" fill="white">
<ellipse cx="99.3873" cy="53.6389" rx="3.01811" ry="3.01095"/>
</mask>
<path d="M98.4054 53.6389C98.4054 53.0837 98.8539 52.6498 99.3872 52.6498V60.6498C103.254 60.6498 106.405 57.5199 106.405 53.6389H98.4054ZM99.3872 52.6498C99.9206 52.6498 100.369 53.0837 100.369 53.6389H92.3691C92.3691 57.5199 95.5202 60.6498 99.3872 60.6498V52.6498ZM100.369 53.6389C100.369 54.1941 99.9206 54.6279 99.3872 54.6279V46.6279C95.5202 46.6279 92.3691 49.7579 92.3691 53.6389H100.369ZM99.3872 54.6279C98.8539 54.6279 98.4054 54.1941 98.4054 53.6389H106.405C106.405 49.7579 103.254 46.6279 99.3872 46.6279V54.6279Z" fill="#191D29" mask="url(#path-19-inside-10_1343_222)"/>
<mask id="path-21-inside-11_1343_222" fill="white">
<ellipse cx="99.3873" cy="33.5656" rx="3.01811" ry="3.01095"/>
</mask>
<path d="M98.4054 33.5656C98.4054 33.0104 98.8539 32.5766 99.3872 32.5766V40.5766C103.254 40.5766 106.405 37.4466 106.405 33.5656H98.4054ZM99.3872 32.5766C99.9206 32.5766 100.369 33.0104 100.369 33.5656H92.3691C92.3691 37.4466 95.5202 40.5766 99.3872 40.5766V32.5766ZM100.369 33.5656C100.369 34.1208 99.9206 34.5547 99.3872 34.5547V26.5547C95.5202 26.5547 92.3691 29.6846 92.3691 33.5656H100.369ZM99.3872 34.5547C98.8539 34.5547 98.4054 34.1208 98.4054 33.5656H106.405C106.405 29.6846 103.254 26.5547 99.3872 26.5547V34.5547Z" fill="#191D29" mask="url(#path-21-inside-11_1343_222)"/>
<mask id="path-23-inside-12_1343_222" fill="white">
<ellipse cx="99.3873" cy="13.4929" rx="3.01811" ry="3.01095"/>
</mask>
<path d="M98.4054 13.4929C98.4054 12.9377 98.8539 12.5038 99.3872 12.5038V20.5038C103.254 20.5038 106.405 17.3739 106.405 13.4929H98.4054ZM99.3872 12.5038C99.9206 12.5038 100.369 12.9377 100.369 13.4929H92.3691C92.3691 17.3739 95.5202 20.5038 99.3872 20.5038V12.5038ZM100.369 13.4929C100.369 14.0481 99.9206 14.4819 99.3872 14.4819V6.48193C95.5202 6.48193 92.3691 9.61189 92.3691 13.4929H100.369ZM99.3872 14.4819C98.8539 14.4819 98.4054 14.0481 98.4054 13.4929H106.405C106.405 9.61189 103.254 6.48193 99.3872 6.48193V14.4819Z" fill="#191D29" mask="url(#path-23-inside-12_1343_222)"/>
<mask id="path-25-inside-13_1343_222" fill="white">
<ellipse cx="113.069" cy="3.85763" rx="3.01811" ry="3.01095"/>
</mask>
<path d="M112.087 3.85763C112.087 3.30244 112.536 2.86858 113.069 2.86858V10.8686C116.936 10.8686 120.087 7.73862 120.087 3.85763H112.087ZM113.069 2.86858C113.602 2.86858 114.051 3.30244 114.051 3.85763H106.051C106.051 7.73862 109.202 10.8686 113.069 10.8686V2.86858ZM114.051 3.85763C114.051 4.41282 113.602 4.84668 113.069 4.84668V-3.15332C109.202 -3.15332 106.051 -0.0233632 106.051 3.85763H114.051ZM113.069 4.84668C112.536 4.84668 112.087 4.41282 112.087 3.85763H120.087C120.087 -0.0233632 116.936 -3.15332 113.069 -3.15332V4.84668Z" fill="#191D29" mask="url(#path-25-inside-13_1343_222)"/>
<mask id="path-27-inside-14_1343_222" fill="white">
<ellipse cx="99.3873" cy="3.85763" rx="3.01811" ry="3.01095"/>
</mask>
<path d="M98.4054 3.85763C98.4054 3.30244 98.8539 2.86858 99.3872 2.86858V10.8686C103.254 10.8686 106.405 7.73862 106.405 3.85763H98.4054ZM99.3872 2.86858C99.9206 2.86858 100.369 3.30244 100.369 3.85763H92.3691C92.3691 7.73862 95.5202 10.8686 99.3872 10.8686V2.86858ZM100.369 3.85763C100.369 4.41282 99.9206 4.84668 99.3872 4.84668V-3.15332C95.5202 -3.15332 92.3691 -0.0233632 92.3691 3.85763H100.369ZM99.3872 4.84668C98.8539 4.84668 98.4054 4.41282 98.4054 3.85763H106.405C106.405 -0.0233632 103.254 -3.15332 99.3872 -3.15332V4.84668Z" fill="#191D29" mask="url(#path-27-inside-14_1343_222)"/>
<mask id="path-29-inside-15_1343_222" fill="white">
<ellipse cx="99.3873" cy="23.1276" rx="3.01811" ry="3.01095"/>
</mask>
<path d="M98.4054 23.1276C98.4054 22.5725 98.8539 22.1386 99.3872 22.1386V30.1386C103.254 30.1386 106.405 27.0086 106.405 23.1276H98.4054ZM99.3872 22.1386C99.9206 22.1386 100.369 22.5725 100.369 23.1276H92.3691C92.3691 27.0086 95.5202 30.1386 99.3872 30.1386V22.1386ZM100.369 23.1276C100.369 23.6828 99.9206 24.1167 99.3872 24.1167V16.1167C95.5202 16.1167 92.3691 19.2467 92.3691 23.1276H100.369ZM99.3872 24.1167C98.8539 24.1167 98.4054 23.6828 98.4054 23.1276H106.405C106.405 19.2467 103.254 16.1167 99.3872 16.1167V24.1167Z" fill="#191D29" mask="url(#path-29-inside-15_1343_222)"/>
<mask id="path-31-inside-16_1343_222" fill="white">
<ellipse cx="85.7037" cy="13.4929" rx="3.01811" ry="3.01095"/>
</mask>
<path d="M84.7218 13.4929C84.7218 12.9377 85.1703 12.5038 85.7037 12.5038V20.5038C89.5707 20.5038 92.7218 17.3739 92.7218 13.4929H84.7218ZM85.7037 12.5038C86.237 12.5038 86.6855 12.9377 86.6855 13.4929H78.6855C78.6855 17.3739 81.8366 20.5038 85.7037 20.5038V12.5038ZM86.6855 13.4929C86.6855 14.0481 86.237 14.4819 85.7037 14.4819V6.48193C81.8366 6.48193 78.6855 9.61189 78.6855 13.4929H86.6855ZM85.7037 14.4819C85.1703 14.4819 84.7218 14.0481 84.7218 13.4929H92.7218C92.7218 9.61189 89.5707 6.48193 85.7037 6.48193V14.4819Z" fill="#191D29" mask="url(#path-31-inside-16_1343_222)"/>
<mask id="path-33-inside-17_1343_222" fill="white">
<ellipse cx="85.7037" cy="3.85763" rx="3.01811" ry="3.01095"/>
</mask>
<path d="M84.7218 3.85763C84.7218 3.30244 85.1703 2.86858 85.7037 2.86858V10.8686C89.5707 10.8686 92.7218 7.73862 92.7218 3.85763H84.7218ZM85.7037 2.86858C86.237 2.86858 86.6855 3.30244 86.6855 3.85763H78.6855C78.6855 7.73862 81.8366 10.8686 85.7037 10.8686V2.86858ZM86.6855 3.85763C86.6855 4.41282 86.237 4.84668 85.7037 4.84668V-3.15332C81.8366 -3.15332 78.6855 -0.0233632 78.6855 3.85763H86.6855ZM85.7037 4.84668C85.1703 4.84668 84.7218 4.41282 84.7218 3.85763H92.7218C92.7218 -0.0233632 89.5707 -3.15332 85.7037 -3.15332V4.84668Z" fill="#191D29" mask="url(#path-33-inside-17_1343_222)"/>
<mask id="path-35-inside-18_1343_222" fill="white">
<ellipse cx="85.7037" cy="23.1276" rx="3.01811" ry="3.01095"/>
</mask>
<path d="M84.7218 23.1276C84.7218 22.5725 85.1703 22.1386 85.7037 22.1386V30.1386C89.5707 30.1386 92.7218 27.0086 92.7218 23.1276H84.7218ZM85.7037 22.1386C86.237 22.1386 86.6855 22.5725 86.6855 23.1276H78.6855C78.6855 27.0086 81.8366 30.1386 85.7037 30.1386V22.1386ZM86.6855 23.1276C86.6855 23.6828 86.237 24.1167 85.7037 24.1167V16.1167C81.8366 16.1167 78.6855 19.2467 78.6855 23.1276H86.6855ZM85.7037 24.1167C85.1703 24.1167 84.7218 23.6828 84.7218 23.1276H92.7218C92.7218 19.2467 89.5707 16.1167 85.7037 16.1167V24.1167Z" fill="#191D29" mask="url(#path-35-inside-18_1343_222)"/>
<mask id="path-37-inside-19_1343_222" fill="white">
<ellipse cx="99.3873" cy="63.2736" rx="3.01811" ry="3.01095"/>
</mask>
<path d="M98.4054 63.2736C98.4054 62.7185 98.8539 62.2846 99.3872 62.2846V70.2846C103.254 70.2846 106.405 67.1546 106.405 63.2736H98.4054ZM99.3872 62.2846C99.9206 62.2846 100.369 62.7185 100.369 63.2736H92.3691C92.3691 67.1546 95.5202 70.2846 99.3872 70.2846V62.2846ZM100.369 63.2736C100.369 63.8288 99.9206 64.2627 99.3872 64.2627V56.2627C95.5202 56.2627 92.3691 59.3927 92.3691 63.2736H100.369ZM99.3872 64.2627C98.8539 64.2627 98.4054 63.8288 98.4054 63.2736H106.405C106.405 59.3927 103.254 56.2627 99.3872 56.2627V64.2627Z" fill="#191D29" mask="url(#path-37-inside-19_1343_222)"/>
<mask id="path-39-inside-20_1343_222" fill="white">
<ellipse cx="85.7037" cy="43.2009" rx="3.01811" ry="3.01095"/>
</mask>
<path d="M84.7218 43.2009C84.7218 42.6457 85.1703 42.2118 85.7037 42.2118V50.2118C89.5707 50.2118 92.7218 47.0819 92.7218 43.2009H84.7218ZM85.7037 42.2118C86.237 42.2118 86.6855 42.6457 86.6855 43.2009H78.6855C78.6855 47.0819 81.8366 50.2118 85.7037 50.2118V42.2118ZM86.6855 43.2009C86.6855 43.7561 86.237 44.1899 85.7037 44.1899V36.1899C81.8366 36.1899 78.6855 39.3199 78.6855 43.2009H86.6855ZM85.7037 44.1899C85.1703 44.1899 84.7218 43.7561 84.7218 43.2009H92.7218C92.7218 39.3199 89.5707 36.1899 85.7037 36.1899V44.1899Z" fill="#191D29" mask="url(#path-39-inside-20_1343_222)"/>
<mask id="path-41-inside-21_1343_222" fill="white">
<ellipse cx="85.7037" cy="72.9089" rx="3.01811" ry="3.01095"/>
</mask>
<path d="M84.7218 72.9089C84.7218 72.3537 85.1703 71.9198 85.7037 71.9198V79.9198C89.5707 79.9198 92.7218 76.7899 92.7218 72.9089H84.7218ZM85.7037 71.9198C86.237 71.9198 86.6855 72.3537 86.6855 72.9089H78.6855C78.6855 76.7899 81.8366 79.9198 85.7037 79.9198V71.9198ZM86.6855 72.9089C86.6855 73.4641 86.237 73.8979 85.7037 73.8979V65.8979C81.8366 65.8979 78.6855 69.0279 78.6855 72.9089H86.6855ZM85.7037 73.8979C85.1703 73.8979 84.7218 73.4641 84.7218 72.9089H92.7218C92.7218 69.0279 89.5707 65.8979 85.7037 65.8979V73.8979Z" fill="#191D29" mask="url(#path-41-inside-21_1343_222)"/>
<mask id="path-43-inside-22_1343_222" fill="white">
<ellipse cx="85.7037" cy="53.6389" rx="3.01811" ry="3.01095"/>
</mask>
<path d="M84.7218 53.6389C84.7218 53.0837 85.1703 52.6498 85.7037 52.6498V60.6498C89.5707 60.6498 92.7218 57.5199 92.7218 53.6389H84.7218ZM85.7037 52.6498C86.237 52.6498 86.6855 53.0837 86.6855 53.6389H78.6855C78.6855 57.5199 81.8366 60.6498 85.7037 60.6498V52.6498ZM86.6855 53.6389C86.6855 54.1941 86.237 54.6279 85.7037 54.6279V46.6279C81.8366 46.6279 78.6855 49.7579 78.6855 53.6389H86.6855ZM85.7037 54.6279C85.1703 54.6279 84.7218 54.1941 84.7218 53.6389H92.7218C92.7218 49.7579 89.5707 46.6279 85.7037 46.6279V54.6279Z" fill="#191D29" mask="url(#path-43-inside-22_1343_222)"/>
<mask id="path-45-inside-23_1343_222" fill="white">
<ellipse cx="85.7037" cy="33.5656" rx="3.01811" ry="3.01095"/>
</mask>
<path d="M84.7218 33.5656C84.7218 33.0104 85.1703 32.5766 85.7037 32.5766V40.5766C89.5707 40.5766 92.7218 37.4466 92.7218 33.5656H84.7218ZM85.7037 32.5766C86.237 32.5766 86.6855 33.0104 86.6855 33.5656H78.6855C78.6855 37.4466 81.8366 40.5766 85.7037 40.5766V32.5766ZM86.6855 33.5656C86.6855 34.1208 86.237 34.5547 85.7037 34.5547V26.5547C81.8366 26.5547 78.6855 29.6846 78.6855 33.5656H86.6855ZM85.7037 34.5547C85.1703 34.5547 84.7218 34.1208 84.7218 33.5656H92.7218C92.7218 29.6846 89.5707 26.5547 85.7037 26.5547V34.5547Z" fill="#191D29" mask="url(#path-45-inside-23_1343_222)"/>
<mask id="path-47-inside-24_1343_222" fill="white">
<ellipse cx="85.7037" cy="63.2736" rx="3.01811" ry="3.01095"/>
</mask>
<path d="M84.7218 63.2736C84.7218 62.7185 85.1703 62.2846 85.7037 62.2846V70.2846C89.5707 70.2846 92.7218 67.1546 92.7218 63.2736H84.7218ZM85.7037 62.2846C86.237 62.2846 86.6855 62.7185 86.6855 63.2736H78.6855C78.6855 67.1546 81.8366 70.2846 85.7037 70.2846V62.2846ZM86.6855 63.2736C86.6855 63.8288 86.237 64.2627 85.7037 64.2627V56.2627C81.8366 56.2627 78.6855 59.3927 78.6855 63.2736H86.6855ZM85.7037 64.2627C85.1703 64.2627 84.7218 63.8288 84.7218 63.2736H92.7218C92.7218 59.3927 89.5707 56.2627 85.7037 56.2627V64.2627Z" fill="#191D29" mask="url(#path-47-inside-24_1343_222)"/>
<mask id="path-49-inside-25_1343_222" fill="white">
<ellipse cx="58.3404" cy="72.9089" rx="3.01811" ry="3.01095"/>
</mask>
<path d="M57.3585 72.9089C57.3585 72.3537 57.8071 71.9198 58.3404 71.9198V79.9198C62.2074 79.9198 65.3585 76.7899 65.3585 72.9089H57.3585ZM58.3404 71.9198C58.8737 71.9198 59.3223 72.3537 59.3223 72.9089H51.3223C51.3223 76.7899 54.4733 79.9198 58.3404 79.9198V71.9198ZM59.3223 72.9089C59.3223 73.4641 58.8737 73.8979 58.3404 73.8979V65.8979C54.4733 65.8979 51.3223 69.0279 51.3223 72.9089H59.3223ZM58.3404 73.8979C57.8071 73.8979 57.3585 73.4641 57.3585 72.9089H65.3585C65.3585 69.0279 62.2074 65.8979 58.3404 65.8979V73.8979Z" fill="#191D29" mask="url(#path-49-inside-25_1343_222)"/>
<mask id="path-51-inside-26_1343_222" fill="white">
<ellipse cx="58.3404" cy="53.6389" rx="3.01811" ry="3.01095"/>
</mask>
<path d="M57.3585 53.6389C57.3585 53.0837 57.8071 52.6498 58.3404 52.6498V60.6498C62.2074 60.6498 65.3585 57.5199 65.3585 53.6389H57.3585ZM58.3404 52.6498C58.8737 52.6498 59.3223 53.0837 59.3223 53.6389H51.3223C51.3223 57.5199 54.4733 60.6498 58.3404 60.6498V52.6498ZM59.3223 53.6389C59.3223 54.1941 58.8737 54.6279 58.3404 54.6279V46.6279C54.4733 46.6279 51.3223 49.7579 51.3223 53.6389H59.3223ZM58.3404 54.6279C57.8071 54.6279 57.3585 54.1941 57.3585 53.6389H65.3585C65.3585 49.7579 62.2074 46.6279 58.3404 46.6279V54.6279Z" fill="#191D29" mask="url(#path-51-inside-26_1343_222)"/>
<mask id="path-53-inside-27_1343_222" fill="white">
<ellipse cx="58.3404" cy="63.2736" rx="3.01811" ry="3.01095"/>
</mask>
<path d="M57.3585 63.2736C57.3585 62.7185 57.8071 62.2846 58.3404 62.2846V70.2846C62.2074 70.2846 65.3585 67.1546 65.3585 63.2736H57.3585ZM58.3404 62.2846C58.8737 62.2846 59.3223 62.7185 59.3223 63.2736H51.3223C51.3223 67.1546 54.4733 70.2846 58.3404 70.2846V62.2846ZM59.3223 63.2736C59.3223 63.8288 58.8737 64.2627 58.3404 64.2627V56.2627C54.4733 56.2627 51.3223 59.3927 51.3223 63.2736H59.3223ZM58.3404 64.2627C57.8071 64.2627 57.3585 63.8288 57.3585 63.2736H65.3585C65.3585 59.3927 62.2074 56.2627 58.3404 56.2627V64.2627Z" fill="#191D29" mask="url(#path-53-inside-27_1343_222)"/>
<mask id="path-55-inside-28_1343_222" fill="white">
<ellipse cx="44.6587" cy="72.9089" rx="3.01811" ry="3.01095"/>
</mask>
<path d="M43.6768 72.9089C43.6768 72.3537 44.1254 71.9198 44.6587 71.9198V79.9198C48.5258 79.9198 51.6768 76.7899 51.6768 72.9089H43.6768ZM44.6587 71.9198C45.1921 71.9198 45.6406 72.3537 45.6406 72.9089H37.6406C37.6406 76.7899 40.7917 79.9198 44.6587 79.9198V71.9198ZM45.6406 72.9089C45.6406 73.4641 45.1921 73.8979 44.6587 73.8979V65.8979C40.7917 65.8979 37.6406 69.0279 37.6406 72.9089H45.6406ZM44.6587 73.8979C44.1254 73.8979 43.6768 73.4641 43.6768 72.9089H51.6768C51.6768 69.0279 48.5258 65.8979 44.6587 65.8979V73.8979Z" fill="#191D29" mask="url(#path-55-inside-28_1343_222)"/>
<mask id="path-57-inside-29_1343_222" fill="white">
<ellipse cx="44.6587" cy="53.6389" rx="3.01811" ry="3.01095"/>
</mask>
<path d="M43.6768 53.6389C43.6768 53.0837 44.1254 52.6498 44.6587 52.6498V60.6498C48.5258 60.6498 51.6768 57.5199 51.6768 53.6389H43.6768ZM44.6587 52.6498C45.1921 52.6498 45.6406 53.0837 45.6406 53.6389H37.6406C37.6406 57.5199 40.7917 60.6498 44.6587 60.6498V52.6498ZM45.6406 53.6389C45.6406 54.1941 45.1921 54.6279 44.6587 54.6279V46.6279C40.7917 46.6279 37.6406 49.7579 37.6406 53.6389H45.6406ZM44.6587 54.6279C44.1254 54.6279 43.6768 54.1941 43.6768 53.6389H51.6768C51.6768 49.7579 48.5258 46.6279 44.6587 46.6279V54.6279Z" fill="#191D29" mask="url(#path-57-inside-29_1343_222)"/>
<mask id="path-59-inside-30_1343_222" fill="white">
<ellipse cx="44.6587" cy="63.2736" rx="3.01811" ry="3.01095"/>
</mask>
<path d="M43.6768 63.2736C43.6768 62.7185 44.1254 62.2846 44.6587 62.2846V70.2846C48.5258 70.2846 51.6768 67.1546 51.6768 63.2736H43.6768ZM44.6587 62.2846C45.1921 62.2846 45.6406 62.7185 45.6406 63.2736H37.6406C37.6406 67.1546 40.7917 70.2846 44.6587 70.2846V62.2846ZM45.6406 63.2736C45.6406 63.8288 45.1921 64.2627 44.6587 64.2627V56.2627C40.7917 56.2627 37.6406 59.3927 37.6406 63.2736H45.6406ZM44.6587 64.2627C44.1254 64.2627 43.6768 63.8288 43.6768 63.2736H51.6768C51.6768 59.3927 48.5258 56.2627 44.6587 56.2627V64.2627Z" fill="#191D29" mask="url(#path-59-inside-30_1343_222)"/>
<mask id="path-61-inside-31_1343_222" fill="white">
<ellipse cx="30.9751" cy="63.2736" rx="3.01811" ry="3.01095"/>
</mask>
<path d="M29.9932 63.2736C29.9932 62.7185 30.4418 62.2846 30.9751 62.2846V70.2846C34.8422 70.2846 37.9932 67.1546 37.9932 63.2736H29.9932ZM30.9751 62.2846C31.5085 62.2846 31.957 62.7185 31.957 63.2736H23.957C23.957 67.1546 27.1081 70.2846 30.9751 70.2846V62.2846ZM31.957 63.2736C31.957 63.8288 31.5085 64.2627 30.9751 64.2627V56.2627C27.1081 56.2627 23.957 59.3927 23.957 63.2736H31.957ZM30.9751 64.2627C30.4418 64.2627 29.9932 63.8288 29.9932 63.2736H37.9932C37.9932 59.3927 34.8422 56.2627 30.9751 56.2627V64.2627Z" fill="#191D29" mask="url(#path-61-inside-31_1343_222)"/>
<mask id="path-63-inside-32_1343_222" fill="white">
<ellipse cx="17.2935" cy="63.2736" rx="3.01811" ry="3.01095"/>
</mask>
<path d="M16.3116 63.2736C16.3116 62.7185 16.7602 62.2846 17.2935 62.2846V70.2846C21.1605 70.2846 24.3116 67.1546 24.3116 63.2736H16.3116ZM17.2935 62.2846C17.8268 62.2846 18.2754 62.7185 18.2754 63.2736H10.2754C10.2754 67.1546 13.4265 70.2846 17.2935 70.2846V62.2846ZM18.2754 63.2736C18.2754 63.8288 17.8268 64.2627 17.2935 64.2627V56.2627C13.4265 56.2627 10.2754 59.3927 10.2754 63.2736H18.2754ZM17.2935 64.2627C16.7602 64.2627 16.3116 63.8288 16.3116 63.2736H24.3116C24.3116 59.3927 21.1605 56.2627 17.2935 56.2627V64.2627Z" fill="#191D29" mask="url(#path-63-inside-32_1343_222)"/>
<mask id="path-65-inside-33_1343_222" fill="white">
<ellipse cx="3.61186" cy="63.2736" rx="3.01811" ry="3.01095"/>
</mask>
<path d="M2.62997 63.2736C2.62997 62.7185 3.07854 62.2846 3.61186 62.2846V70.2846C7.47889 70.2846 10.63 67.1546 10.63 63.2736H2.62997ZM3.61186 62.2846C4.14518 62.2846 4.59375 62.7185 4.59375 63.2736H-3.40625C-3.40625 67.1546 -0.255173 70.2846 3.61186 70.2846V62.2846ZM4.59375 63.2736C4.59375 63.8288 4.14518 64.2627 3.61186 64.2627V56.2627C-0.255173 56.2627 -3.40625 59.3927 -3.40625 63.2736H4.59375ZM3.61186 64.2627C3.07854 64.2627 2.62997 63.8288 2.62997 63.2736H10.63C10.63 59.3927 7.47889 56.2627 3.61186 56.2627V64.2627Z" fill="#191D29" mask="url(#path-65-inside-33_1343_222)"/>
<mask id="path-67-inside-34_1343_222" fill="white">
<ellipse cx="30.9751" cy="72.9089" rx="3.01811" ry="3.01095"/>
</mask>
<path d="M29.9932 72.9089C29.9932 72.3537 30.4418 71.9198 30.9751 71.9198V79.9198C34.8422 79.9198 37.9932 76.7899 37.9932 72.9089H29.9932ZM30.9751 71.9198C31.5085 71.9198 31.957 72.3537 31.957 72.9089H23.957C23.957 76.7899 27.1081 79.9198 30.9751 79.9198V71.9198ZM31.957 72.9089C31.957 73.4641 31.5085 73.8979 30.9751 73.8979V65.8979C27.1081 65.8979 23.957 69.0279 23.957 72.9089H31.957ZM30.9751 73.8979C30.4418 73.8979 29.9932 73.4641 29.9932 72.9089H37.9932C37.9932 69.0279 34.8422 65.8979 30.9751 65.8979V73.8979Z" fill="#191D29" mask="url(#path-67-inside-34_1343_222)"/>
<mask id="path-69-inside-35_1343_222" fill="white">
<ellipse cx="17.2935" cy="72.9089" rx="3.01811" ry="3.01095"/>
</mask>
<path d="M16.3116 72.9089C16.3116 72.3537 16.7602 71.9198 17.2935 71.9198V79.9198C21.1605 79.9198 24.3116 76.7899 24.3116 72.9089H16.3116ZM17.2935 71.9198C17.8268 71.9198 18.2754 72.3537 18.2754 72.9089H10.2754C10.2754 76.7899 13.4265 79.9198 17.2935 79.9198V71.9198ZM18.2754 72.9089C18.2754 73.4641 17.8268 73.8979 17.2935 73.8979V65.8979C13.4265 65.8979 10.2754 69.0279 10.2754 72.9089H18.2754ZM17.2935 73.8979C16.7602 73.8979 16.3116 73.4641 16.3116 72.9089H24.3116C24.3116 69.0279 21.1605 65.8979 17.2935 65.8979V73.8979Z" fill="#191D29" mask="url(#path-69-inside-35_1343_222)"/>
<mask id="path-71-inside-36_1343_222" fill="white">
<ellipse cx="3.61186" cy="72.9089" rx="3.01811" ry="3.01095"/>
</mask>
<path d="M2.62997 72.9089C2.62997 72.3537 3.07854 71.9198 3.61186 71.9198V79.9198C7.47889 79.9198 10.63 76.7899 10.63 72.9089H2.62997ZM3.61186 71.9198C4.14518 71.9198 4.59375 72.3537 4.59375 72.9089H-3.40625C-3.40625 76.7899 -0.255173 79.9198 3.61186 79.9198V71.9198ZM4.59375 72.9089C4.59375 73.4641 4.14518 73.8979 3.61186 73.8979V65.8979C-0.255173 65.8979 -3.40625 69.0279 -3.40625 72.9089H4.59375ZM3.61186 73.8979C3.07854 73.8979 2.62997 73.4641 2.62997 72.9089H10.63C10.63 69.0279 7.47889 65.8979 3.61186 65.8979V73.8979Z" fill="#191D29" mask="url(#path-71-inside-36_1343_222)"/>
<mask id="path-73-inside-37_1343_222" fill="white">
<ellipse cx="72.022" cy="43.2009" rx="3.01811" ry="3.01095"/>
</mask>
<path d="M71.0401 43.2009C71.0401 42.6457 71.4887 42.2118 72.022 42.2118V50.2118C75.889 50.2118 79.0401 47.0819 79.0401 43.2009H71.0401ZM72.022 42.2118C72.5553 42.2118 73.0039 42.6457 73.0039 43.2009H65.0039C65.0039 47.0819 68.155 50.2118 72.022 50.2118V42.2118ZM73.0039 43.2009C73.0039 43.7561 72.5553 44.1899 72.022 44.1899V36.1899C68.155 36.1899 65.0039 39.3199 65.0039 43.2009H73.0039ZM72.022 44.1899C71.4887 44.1899 71.0401 43.7561 71.0401 43.2009H79.0401C79.0401 39.3199 75.889 36.1899 72.022 36.1899V44.1899Z" fill="#191D29" mask="url(#path-73-inside-37_1343_222)"/>
<mask id="path-75-inside-38_1343_222" fill="white">
<ellipse cx="72.022" cy="72.9089" rx="3.01811" ry="3.01095"/>
</mask>
<path d="M71.0401 72.9089C71.0401 72.3537 71.4887 71.9198 72.022 71.9198V79.9198C75.889 79.9198 79.0401 76.7899 79.0401 72.9089H71.0401ZM72.022 71.9198C72.5553 71.9198 73.0039 72.3537 73.0039 72.9089H65.0039C65.0039 76.7899 68.155 79.9198 72.022 79.9198V71.9198ZM73.0039 72.9089C73.0039 73.4641 72.5553 73.8979 72.022 73.8979V65.8979C68.155 65.8979 65.0039 69.0279 65.0039 72.9089H73.0039ZM72.022 73.8979C71.4887 73.8979 71.0401 73.4641 71.0401 72.9089H79.0401C79.0401 69.0279 75.889 65.8979 72.022 65.8979V73.8979Z" fill="#191D29" mask="url(#path-75-inside-38_1343_222)"/>
<mask id="path-77-inside-39_1343_222" fill="white">
<ellipse cx="113.069" cy="82.5437" rx="3.01811" ry="3.01095"/>
</mask>
<path d="M112.087 82.5437C112.087 81.9885 112.536 81.5546 113.069 81.5546V89.5546C116.936 89.5546 120.087 86.4247 120.087 82.5437H112.087ZM113.069 81.5546C113.602 81.5546 114.051 81.9885 114.051 82.5437H106.051C106.051 86.4247 109.202 89.5546 113.069 89.5546V81.5546ZM114.051 82.5437C114.051 83.0989 113.602 83.5327 113.069 83.5327V75.5327C109.202 75.5327 106.051 78.6627 106.051 82.5437H114.051ZM113.069 83.5327C112.536 83.5327 112.087 83.0989 112.087 82.5437H120.087C120.087 78.6627 116.936 75.5327 113.069 75.5327V83.5327Z" fill="#191D29" mask="url(#path-77-inside-39_1343_222)"/>
<mask id="path-79-inside-40_1343_222" fill="white">
<ellipse cx="99.3873" cy="82.5437" rx="3.01811" ry="3.01095"/>
</mask>
<path d="M98.4054 82.5437C98.4054 81.9885 98.8539 81.5546 99.3872 81.5546V89.5546C103.254 89.5546 106.405 86.4247 106.405 82.5437H98.4054ZM99.3872 81.5546C99.9206 81.5546 100.369 81.9885 100.369 82.5437H92.3691C92.3691 86.4247 95.5202 89.5546 99.3872 89.5546V81.5546ZM100.369 82.5437C100.369 83.0989 99.9206 83.5327 99.3872 83.5327V75.5327C95.5202 75.5327 92.3691 78.6627 92.3691 82.5437H100.369ZM99.3872 83.5327C98.8539 83.5327 98.4054 83.0989 98.4054 82.5437H106.405C106.405 78.6627 103.254 75.5327 99.3872 75.5327V83.5327Z" fill="#191D29" mask="url(#path-79-inside-40_1343_222)"/>
<mask id="path-81-inside-41_1343_222" fill="white">
<ellipse cx="85.7037" cy="82.5437" rx="3.01811" ry="3.01095"/>
</mask>
<path d="M84.7218 82.5437C84.7218 81.9885 85.1703 81.5546 85.7037 81.5546V89.5546C89.5707 89.5546 92.7218 86.4247 92.7218 82.5437H84.7218ZM85.7037 81.5546C86.237 81.5546 86.6855 81.9885 86.6855 82.5437H78.6855C78.6855 86.4247 81.8366 89.5546 85.7037 89.5546V81.5546ZM86.6855 82.5437C86.6855 83.0989 86.237 83.5327 85.7037 83.5327V75.5327C81.8366 75.5327 78.6855 78.6627 78.6855 82.5437H86.6855ZM85.7037 83.5327C85.1703 83.5327 84.7218 83.0989 84.7218 82.5437H92.7218C92.7218 78.6627 89.5707 75.5327 85.7037 75.5327V83.5327Z" fill="#191D29" mask="url(#path-81-inside-41_1343_222)"/>
<mask id="path-83-inside-42_1343_222" fill="white">
<ellipse cx="58.3404" cy="82.5437" rx="3.01811" ry="3.01095"/>
</mask>
<path d="M57.3585 82.5437C57.3585 81.9885 57.8071 81.5546 58.3404 81.5546V89.5546C62.2074 89.5546 65.3585 86.4247 65.3585 82.5437H57.3585ZM58.3404 81.5546C58.8737 81.5546 59.3223 81.9885 59.3223 82.5437H51.3223C51.3223 86.4247 54.4733 89.5546 58.3404 89.5546V81.5546ZM59.3223 82.5437C59.3223 83.0989 58.8737 83.5327 58.3404 83.5327V75.5327C54.4733 75.5327 51.3223 78.6627 51.3223 82.5437H59.3223ZM58.3404 83.5327C57.8071 83.5327 57.3585 83.0989 57.3585 82.5437H65.3585C65.3585 78.6627 62.2074 75.5327 58.3404 75.5327V83.5327Z" fill="#191D29" mask="url(#path-83-inside-42_1343_222)"/>
<mask id="path-85-inside-43_1343_222" fill="white">
<ellipse cx="44.6587" cy="82.5437" rx="3.01811" ry="3.01095"/>
</mask>
<path d="M43.6768 82.5437C43.6768 81.9885 44.1254 81.5546 44.6587 81.5546V89.5546C48.5258 89.5546 51.6768 86.4247 51.6768 82.5437H43.6768ZM44.6587 81.5546C45.1921 81.5546 45.6406 81.9885 45.6406 82.5437H37.6406C37.6406 86.4247 40.7917 89.5546 44.6587 89.5546V81.5546ZM45.6406 82.5437C45.6406 83.0989 45.1921 83.5327 44.6587 83.5327V75.5327C40.7917 75.5327 37.6406 78.6627 37.6406 82.5437H45.6406ZM44.6587 83.5327C44.1254 83.5327 43.6768 83.0989 43.6768 82.5437H51.6768C51.6768 78.6627 48.5258 75.5327 44.6587 75.5327V83.5327Z" fill="#191D29" mask="url(#path-85-inside-43_1343_222)"/>
<mask id="path-87-inside-44_1343_222" fill="white">
<ellipse cx="30.9751" cy="82.5437" rx="3.01811" ry="3.01095"/>
</mask>
<path d="M29.9932 82.5437C29.9932 81.9885 30.4418 81.5546 30.9751 81.5546V89.5546C34.8422 89.5546 37.9932 86.4247 37.9932 82.5437H29.9932ZM30.9751 81.5546C31.5085 81.5546 31.957 81.9885 31.957 82.5437H23.957C23.957 86.4247 27.1081 89.5546 30.9751 89.5546V81.5546ZM31.957 82.5437C31.957 83.0989 31.5085 83.5327 30.9751 83.5327V75.5327C27.1081 75.5327 23.957 78.6627 23.957 82.5437H31.957ZM30.9751 83.5327C30.4418 83.5327 29.9932 83.0989 29.9932 82.5437H37.9932C37.9932 78.6627 34.8422 75.5327 30.9751 75.5327V83.5327Z" fill="#191D29" mask="url(#path-87-inside-44_1343_222)"/>
<mask id="path-89-inside-45_1343_222" fill="white">
<ellipse cx="17.2935" cy="82.5437" rx="3.01811" ry="3.01095"/>
</mask>
<path d="M16.3116 82.5437C16.3116 81.9885 16.7602 81.5546 17.2935 81.5546V89.5546C21.1605 89.5546 24.3116 86.4247 24.3116 82.5437H16.3116ZM17.2935 81.5546C17.8268 81.5546 18.2754 81.9885 18.2754 82.5437H10.2754C10.2754 86.4247 13.4265 89.5546 17.2935 89.5546V81.5546ZM18.2754 82.5437C18.2754 83.0989 17.8268 83.5327 17.2935 83.5327V75.5327C13.4265 75.5327 10.2754 78.6627 10.2754 82.5437H18.2754ZM17.2935 83.5327C16.7602 83.5327 16.3116 83.0989 16.3116 82.5437H24.3116C24.3116 78.6627 21.1605 75.5327 17.2935 75.5327V83.5327Z" fill="#191D29" mask="url(#path-89-inside-45_1343_222)"/>
<mask id="path-91-inside-46_1343_222" fill="white">
<ellipse cx="3.61186" cy="82.5437" rx="3.01811" ry="3.01095"/>
</mask>
<path d="M2.62997 82.5437C2.62997 81.9885 3.07854 81.5546 3.61186 81.5546V89.5546C7.47889 89.5546 10.63 86.4247 10.63 82.5437H2.62997ZM3.61186 81.5546C4.14518 81.5546 4.59375 81.9885 4.59375 82.5437H-3.40625C-3.40625 86.4247 -0.255173 89.5546 3.61186 89.5546V81.5546ZM4.59375 82.5437C4.59375 83.0989 4.14518 83.5327 3.61186 83.5327V75.5327C-0.255173 75.5327 -3.40625 78.6627 -3.40625 82.5437H4.59375ZM3.61186 83.5327C3.07854 83.5327 2.62997 83.0989 2.62997 82.5437H10.63C10.63 78.6627 7.47889 75.5327 3.61186 75.5327V83.5327Z" fill="#191D29" mask="url(#path-91-inside-46_1343_222)"/>
<mask id="path-93-inside-47_1343_222" fill="white">
<ellipse cx="72.022" cy="82.5437" rx="3.01811" ry="3.01095"/>
</mask>
<path d="M71.0401 82.5437C71.0401 81.9885 71.4887 81.5546 72.022 81.5546V89.5546C75.889 89.5546 79.0401 86.4247 79.0401 82.5437H71.0401ZM72.022 81.5546C72.5553 81.5546 73.0039 81.9885 73.0039 82.5437H65.0039C65.0039 86.4247 68.155 89.5546 72.022 89.5546V81.5546ZM73.0039 82.5437C73.0039 83.0989 72.5553 83.5327 72.022 83.5327V75.5327C68.155 75.5327 65.0039 78.6627 65.0039 82.5437H73.0039ZM72.022 83.5327C71.4887 83.5327 71.0401 83.0989 71.0401 82.5437H79.0401C79.0401 78.6627 75.889 75.5327 72.022 75.5327V83.5327Z" fill="#191D29" mask="url(#path-93-inside-47_1343_222)"/>
<mask id="path-95-inside-48_1343_222" fill="white">
<ellipse cx="72.022" cy="53.6389" rx="3.01811" ry="3.01095"/>
</mask>
<path d="M71.0401 53.6389C71.0401 53.0837 71.4887 52.6498 72.022 52.6498V60.6498C75.889 60.6498 79.0401 57.5199 79.0401 53.6389H71.0401ZM72.022 52.6498C72.5553 52.6498 73.0039 53.0837 73.0039 53.6389H65.0039C65.0039 57.5199 68.155 60.6498 72.022 60.6498V52.6498ZM73.0039 53.6389C73.0039 54.1941 72.5553 54.6279 72.022 54.6279V46.6279C68.155 46.6279 65.0039 49.7579 65.0039 53.6389H73.0039ZM72.022 54.6279C71.4887 54.6279 71.0401 54.1941 71.0401 53.6389H79.0401C79.0401 49.7579 75.889 46.6279 72.022 46.6279V54.6279Z" fill="#191D29" mask="url(#path-95-inside-48_1343_222)"/>
<mask id="path-97-inside-49_1343_222" fill="white">
<ellipse cx="72.022" cy="33.5656" rx="3.01811" ry="3.01095"/>
</mask>
<path d="M71.0401 33.5656C71.0401 33.0104 71.4887 32.5766 72.022 32.5766V40.5766C75.889 40.5766 79.0401 37.4466 79.0401 33.5656H71.0401ZM72.022 32.5766C72.5553 32.5766 73.0039 33.0104 73.0039 33.5656H65.0039C65.0039 37.4466 68.155 40.5766 72.022 40.5766V32.5766ZM73.0039 33.5656C73.0039 34.1208 72.5553 34.5547 72.022 34.5547V26.5547C68.155 26.5547 65.0039 29.6846 65.0039 33.5656H73.0039ZM72.022 34.5547C71.4887 34.5547 71.0401 34.1208 71.0401 33.5656H79.0401C79.0401 29.6846 75.889 26.5547 72.022 26.5547V34.5547Z" fill="#191D29" mask="url(#path-97-inside-49_1343_222)"/>
<mask id="path-99-inside-50_1343_222" fill="white">
<ellipse cx="58.3404" cy="44.0036" rx="3.01811" ry="3.01095"/>
</mask>
<path d="M57.3585 44.0036C57.3585 43.4484 57.8071 43.0146 58.3404 43.0146V51.0146C62.2074 51.0146 65.3585 47.8846 65.3585 44.0036H57.3585ZM58.3404 43.0146C58.8737 43.0146 59.3223 43.4484 59.3223 44.0036H51.3223C51.3223 47.8846 54.4733 51.0146 58.3404 51.0146V43.0146ZM59.3223 44.0036C59.3223 44.5588 58.8737 44.9927 58.3404 44.9927V36.9927C54.4733 36.9927 51.3223 40.1226 51.3223 44.0036H59.3223ZM58.3404 44.9927C57.8071 44.9927 57.3585 44.5588 57.3585 44.0036H65.3585C65.3585 40.1226 62.2074 36.9927 58.3404 36.9927V44.9927Z" fill="#191D29" mask="url(#path-99-inside-50_1343_222)"/>
<mask id="path-101-inside-51_1343_222" fill="white">
<ellipse cx="58.3404" cy="34.3684" rx="3.01811" ry="3.01095"/>
</mask>
<path d="M57.3585 34.3684C57.3585 33.8132 57.8071 33.3793 58.3404 33.3793V41.3793C62.2074 41.3793 65.3585 38.2494 65.3585 34.3684H57.3585ZM58.3404 33.3793C58.8737 33.3793 59.3223 33.8132 59.3223 34.3684H51.3223C51.3223 38.2494 54.4733 41.3793 58.3404 41.3793V33.3793ZM59.3223 34.3684C59.3223 34.9236 58.8737 35.3574 58.3404 35.3574V27.3574C54.4733 27.3574 51.3223 30.4874 51.3223 34.3684H59.3223ZM58.3404 35.3574C57.8071 35.3574 57.3585 34.9236 57.3585 34.3684H65.3585C65.3585 30.4874 62.2074 27.3574 58.3404 27.3574V35.3574Z" fill="#191D29" mask="url(#path-101-inside-51_1343_222)"/>
<mask id="path-103-inside-52_1343_222" fill="white">
<ellipse cx="44.6587" cy="44.0036" rx="3.01811" ry="3.01095"/>
</mask>
<path d="M43.6768 44.0036C43.6768 43.4484 44.1254 43.0146 44.6587 43.0146V51.0146C48.5258 51.0146 51.6768 47.8846 51.6768 44.0036H43.6768ZM44.6587 43.0146C45.1921 43.0146 45.6406 43.4484 45.6406 44.0036H37.6406C37.6406 47.8846 40.7917 51.0146 44.6587 51.0146V43.0146ZM45.6406 44.0036C45.6406 44.5588 45.1921 44.9927 44.6587 44.9927V36.9927C40.7917 36.9927 37.6406 40.1226 37.6406 44.0036H45.6406ZM44.6587 44.9927C44.1254 44.9927 43.6768 44.5588 43.6768 44.0036H51.6768C51.6768 40.1226 48.5258 36.9927 44.6587 36.9927V44.9927Z" fill="#191D29" mask="url(#path-103-inside-52_1343_222)"/>
<mask id="path-105-inside-53_1343_222" fill="white">
<ellipse cx="44.6587" cy="34.3684" rx="3.01811" ry="3.01095"/>
</mask>
<path d="M43.6768 34.3684C43.6768 33.8132 44.1254 33.3793 44.6587 33.3793V41.3793C48.5258 41.3793 51.6768 38.2494 51.6768 34.3684H43.6768ZM44.6587 33.3793C45.1921 33.3793 45.6406 33.8132 45.6406 34.3684H37.6406C37.6406 38.2494 40.7917 41.3793 44.6587 41.3793V33.3793ZM45.6406 34.3684C45.6406 34.9236 45.1921 35.3574 44.6587 35.3574V27.3574C40.7917 27.3574 37.6406 30.4874 37.6406 34.3684H45.6406ZM44.6587 35.3574C44.1254 35.3574 43.6768 34.9236 43.6768 34.3684H51.6768C51.6768 30.4874 48.5258 27.3574 44.6587 27.3574V35.3574Z" fill="#191D29" mask="url(#path-105-inside-53_1343_222)"/>
<mask id="path-107-inside-54_1343_222" fill="white">
<ellipse cx="72.022" cy="63.2736" rx="3.01811" ry="3.01095"/>
</mask>
<path d="M71.0401 63.2736C71.0401 62.7185 71.4887 62.2846 72.022 62.2846V70.2846C75.889 70.2846 79.0401 67.1546 79.0401 63.2736H71.0401ZM72.022 62.2846C72.5553 62.2846 73.0039 62.7185 73.0039 63.2736H65.0039C65.0039 67.1546 68.155 70.2846 72.022 70.2846V62.2846ZM73.0039 63.2736C73.0039 63.8288 72.5553 64.2627 72.022 64.2627V56.2627C68.155 56.2627 65.0039 59.3927 65.0039 63.2736H73.0039ZM72.022 64.2627C71.4887 64.2627 71.0401 63.8288 71.0401 63.2736H79.0401C79.0401 59.3927 75.889 56.2627 72.022 56.2627V64.2627Z" fill="#191D29" mask="url(#path-107-inside-54_1343_222)"/>
</svg>
