<?xml version="1.0" standalone="no"?>
<!DOCTYPE svg PUBLIC "-//W3C//DTD SVG 20010904//EN"
 "http://www.w3.org/TR/2001/REC-SVG-20010904/DTD/svg10.dtd">
<svg version="1.0" xmlns="http://www.w3.org/2000/svg"
 width="228.000000pt" height="229.000000pt" viewBox="0 0 228.000000 229.000000"
 preserveAspectRatio="xMidYMid meet">

<g transform="translate(0.000000,229.000000) scale(0.100000,-0.100000)"
fill="#000000" stroke="none">
<path d="M910 2230 c0 -7 7 -52 16 -101 12 -63 21 -89 31 -89 11 0 12 9 7 38
-20 116 -31 156 -42 160 -7 2 -12 -2 -12 -8z"/>
<path d="M1300 2205 c0 -8 -3 -15 -7 -15 -5 0 -9 -32 -10 -70 -3 -67 -1 -71
22 -82 30 -14 47 -1 22 16 -30 23 -18 111 14 103 12 -3 19 0 19 9 0 8 -7 14
-15 14 -8 0 -15 9 -15 20 0 11 -7 20 -15 20 -8 0 -15 -7 -15 -15z"/>
<path d="M1093 2199 c-6 -8 -17 -33 -24 -56 -6 -24 -15 -43 -19 -43 -3 0 -17
23 -29 50 -12 28 -27 50 -32 50 -14 0 -11 -14 21 -82 27 -57 29 -68 19 -97
-11 -32 -6 -52 10 -35 5 5 23 53 41 107 31 95 36 134 13 106z"/>
<path d="M1152 2188 c-23 -23 -13 -47 28 -68 22 -11 40 -25 40 -31 0 -18 -31
-22 -49 -5 -21 19 -44 21 -39 4 13 -38 98 -48 112 -13 9 24 -2 40 -39 58 -37
18 -47 47 -16 47 10 0 24 -7 31 -15 14 -17 30 -20 30 -6 0 33 -72 55 -98 29z"/>
<path d="M844 2161 c5 -7 -3 -9 -23 -5 -23 5 -35 1 -55 -19 -31 -31 -32 -51
-6 -94 23 -39 65 -47 99 -20 8 7 23 11 34 9 17 -3 18 0 12 29 -15 66 -32 104
-50 107 -10 3 -15 0 -11 -7z m20 -64 c8 -21 6 -31 -9 -47 -24 -26 -50 -25 -69
2 -22 31 -20 54 5 72 28 19 61 7 73 -27z"/>
<path d="M628 2080 c-15 -11 -33 -20 -42 -20 -13 0 -10 -13 16 -65 18 -36 38
-65 45 -65 17 0 17 2 -9 55 -26 52 -17 80 23 80 17 0 30 -11 47 -42 23 -41 42
-56 42 -31 0 17 -49 98 -60 98 -4 0 -15 2 -22 5 -8 3 -26 -3 -40 -15z"/>
<path d="M1632 2013 c-46 -69 -55 -93 -34 -93 4 0 16 14 25 30 22 36 33 37 71
6 l30 -23 -22 -31 c-26 -35 -27 -42 -8 -42 18 0 109 138 100 152 -4 7 -17 -1
-34 -22 l-27 -33 -32 22 c-34 25 -39 42 -16 61 8 7 15 18 15 26 0 33 -20 17
-68 -53z"/>
<path d="M445 2010 c-11 -17 46 -189 61 -183 7 2 12 16 11 30 -3 35 42 69 71
54 14 -7 23 -8 27 -1 5 9 -139 110 -157 110 -4 0 -10 -4 -13 -10z m66 -51 c24
-17 27 -24 18 -35 -19 -23 -35 -16 -46 21 -13 41 -11 42 28 14z"/>
<path d="M1475 2000 c-3 -6 1 -13 10 -16 19 -8 30 0 20 15 -8 14 -22 14 -30 1z"/>
<path d="M1776 1880 c-24 -61 -33 -73 -64 -86 -24 -10 -32 -18 -25 -25 7 -7
44 5 117 37 76 33 104 50 97 57 -8 8 -25 4 -57 -11 -26 -13 -48 -21 -51 -19
-2 3 5 27 16 55 18 46 18 62 1 62 -4 0 -19 -32 -34 -70z"/>
<path d="M317 1844 c-3 -3 -3 -12 0 -20 3 -8 -1 -14 -9 -14 -23 0 -48 -34 -48
-64 0 -36 41 -76 78 -76 32 0 72 36 72 64 0 9 4 15 9 11 5 -3 12 -1 15 4 4 5
-15 26 -41 47 -67 53 -69 55 -76 48z m36 -53 c51 -20 42 -91 -11 -91 -16 0
-33 5 -40 12 -18 18 -15 65 6 77 21 13 16 13 45 2z"/>
<path d="M1866 1789 c-35 -28 -36 -81 -1 -113 14 -13 25 -28 25 -35 0 -18 9
-14 92 46 51 37 75 60 69 66 -7 7 -19 4 -34 -6 -24 -16 -25 -15 -37 14 -22 52
-69 64 -114 28z m88 -30 c32 -47 -32 -102 -74 -64 -25 23 -25 40 0 65 26 26
55 25 74 -1z"/>
<path d="M211 1696 c-8 -10 -21 -14 -32 -11 -11 4 -19 3 -19 -2 1 -14 30 -48
43 -48 7 0 33 -11 59 -25 39 -19 49 -21 62 -10 17 13 22 40 8 40 -4 0 -13 -5
-19 -11 -19 -19 -77 21 -83 56 -5 26 -6 27 -19 11z"/>
<path d="M1977 1637 c-31 -18 -57 -37 -57 -44 0 -18 10 -16 48 7 37 22 63 25
79 9 6 -6 17 -9 23 -7 9 3 8 8 -4 20 -9 9 -16 21 -16 27 0 21 -18 18 -73 -12z"/>
<path d="M153 1588 c2 -7 -4 -24 -14 -37 -11 -13 -19 -32 -19 -42 0 -25 40
-67 70 -74 37 -9 80 27 80 66 0 16 5 29 10 29 6 0 10 6 10 13 0 6 -26 22 -58
35 -66 25 -86 28 -79 10z m75 -44 c26 -18 28 -46 6 -68 -31 -32 -84 -8 -84 38
0 44 37 59 78 30z"/>
<path d="M2015 1554 c-50 -26 -59 -63 -26 -105 10 -13 16 -30 14 -36 -7 -19
18 -16 81 8 55 21 66 32 46 44 -5 3 -10 19 -10 34 0 51 -56 81 -105 55z m63
-30 c26 -18 28 -41 5 -66 -18 -21 -53 -24 -71 -6 -21 21 -15 68 11 78 30 12
30 12 55 -6z"/>
<path d="M79 1415 c-28 -15 -47 -51 -51 -99 -3 -29 -2 -29 77 -47 44 -10 85
-18 92 -18 17 -1 28 101 13 129 -11 21 -66 50 -92 50 -7 -1 -25 -7 -39 -15z
m97 -40 c21 -21 24 -31 19 -58 -4 -18 -9 -33 -10 -35 -2 -2 -20 1 -41 6 -22 6
-51 13 -66 16 -34 8 -36 33 -7 70 27 34 71 35 105 1z"/>
<path d="M2080 1383 c-14 -3 -33 -12 -42 -20 -20 -18 -24 -68 -8 -78 6 -4 8
-15 5 -26 -7 -22 -3 -23 82 -8 58 10 75 20 55 33 -4 2 -27 1 -51 -4 -53 -9
-68 -5 -76 21 -9 26 9 46 48 54 56 11 67 16 62 26 -6 9 -30 10 -75 2z"/>
<path d="M2083 1213 c-50 -4 -68 -15 -40 -25 6 -3 51 -3 100 0 65 3 87 8 87
18 0 14 -23 15 -147 7z"/>
<path d="M170 1145 c0 -8 7 -15 15 -15 8 0 15 7 15 15 0 8 -7 15 -15 15 -8 0
-15 -7 -15 -15z"/>
<path d="M2040 1135 c0 -12 14 -15 76 -15 56 0 75 3 72 13 -3 8 -30 13 -76 15
-60 2 -72 0 -72 -13z"/>
<path d="M2210 1136 c0 -9 7 -16 16 -16 9 0 14 5 12 12 -6 18 -28 21 -28 4z"/>
<path d="M2050 1070 c-23 -23 -26 -68 -6 -96 20 -27 32 -10 16 22 -19 34 -3
58 42 62 45 4 66 -18 50 -53 -7 -14 -16 -25 -22 -25 -5 0 -10 -7 -10 -15 0 -8
5 -15 10 -15 20 0 50 41 50 68 0 61 -86 96 -130 52z"/>
<path d="M66 1032 c-4 -7 -4 -18 1 -24 4 -7 6 -21 4 -32 -2 -16 2 -17 41 -11
82 12 98 17 98 28 0 8 -18 11 -58 9 -52 -3 -59 -1 -68 19 -7 15 -13 19 -18 11z"/>
<path d="M112 924 c-29 -20 -30 -76 -2 -104 41 -41 130 -8 130 49 0 36 -26 71
-53 71 -21 0 -21 -1 6 -25 28 -27 31 -34 21 -59 -11 -30 -30 -16 -45 31 -16
53 -25 59 -57 37z m43 -66 c8 -42 1 -47 -27 -21 -21 19 -23 44 -6 61 16 16 25
5 33 -40z"/>
<path d="M1960 773 c-8 -21 -16 -41 -18 -45 -2 -5 2 -8 10 -8 7 0 19 14 25 30
13 34 21 36 48 16 16 -12 17 -18 7 -40 -17 -37 4 -43 23 -6 14 27 18 29 38 19
12 -7 23 -13 25 -14 2 -2 -4 -17 -12 -34 -11 -20 -12 -32 -5 -36 6 -4 11 -5
12 -4 7 11 37 80 37 85 0 6 -150 74 -164 74 -7 0 -18 -17 -26 -37z"/>
<path d="M179 777 c-41 -31 -44 -84 -6 -116 9 -7 13 -19 10 -27 -8 -21 7 -18
103 27 104 48 98 45 89 58 -4 7 -17 6 -42 -4 -44 -19 -42 -19 -36 4 12 47 -76
90 -118 58z m89 -50 c2 -16 -2 -35 -9 -43 -14 -17 -60 -19 -77 -2 -32 32 2 81
52 76 26 -2 32 -8 34 -31z"/>
<path d="M1920 690 c0 -5 21 -23 46 -40 48 -34 56 -63 21 -84 -13 -9 -27 -5
-66 17 -65 36 -77 17 -14 -23 70 -44 93 -39 123 23 11 22 20 42 20 43 0 4
-117 74 -124 74 -3 0 -6 -4 -6 -10z"/>
<path d="M290 633 c-55 -20 -68 -86 -25 -128 31 -32 56 -31 94 1 21 18 31 35
31 54 0 19 -10 36 -31 54 -31 26 -41 29 -69 19z m58 -35 c18 -18 14 -53 -7
-72 -28 -25 -64 -17 -76 18 -8 24 -6 31 14 47 27 22 52 24 69 7z"/>
<path d="M1762 584 c-33 -23 -45 -60 -29 -88 12 -23 119 -126 131 -126 3 0 6
6 6 13 0 7 14 23 30 35 40 30 42 81 4 111 -48 37 -98 23 -118 -34 -7 -20 -8
-20 -22 -1 -8 11 -14 25 -14 32 0 19 29 44 50 44 25 0 34 16 14 24 -23 9 -27
8 -52 -10z m133 -88 c31 -46 -25 -97 -66 -60 -18 17 -26 64 -12 77 16 17 63 6
78 -17z"/>
<path d="M356 464 c-44 -41 -66 -68 -60 -74 6 -6 35 13 79 54 47 43 67 67 60
74 -7 7 -33 -11 -79 -54z"/>
<path d="M445 461 c-6 -11 1 -16 36 -25 29 -6 42 -27 33 -51 -5 -12 -15 -8
-52 22 -43 35 -45 36 -58 18 -27 -36 -13 -79 33 -103 31 -17 37 -15 72 14 39
33 41 74 6 109 -24 25 -59 33 -70 16z m39 -112 c-8 -13 -38 -11 -52 3 -7 7
-12 23 -12 36 l0 23 35 -27 c19 -14 32 -30 29 -35z"/>
<path d="M1715 440 c-9 -15 86 -123 98 -111 6 6 -8 29 -39 65 -53 62 -50 60
-59 46z"/>
<path d="M1670 397 c0 -7 12 -29 26 -50 28 -42 25 -72 -8 -83 -22 -7 -42 9
-79 66 -9 14 -20 22 -25 17 -17 -16 60 -117 90 -117 10 0 28 11 42 25 14 14
29 25 34 25 18 0 11 19 -26 75 -36 54 -54 68 -54 42z"/>
<path d="M553 319 c-51 -38 -65 -59 -42 -59 6 0 31 17 56 37 l46 38 -7 -45
c-11 -74 -11 -83 0 -87 9 -3 34 98 34 141 0 27 -32 18 -87 -25z"/>
<path d="M1825 310 c-10 -17 12 -37 25 -24 8 8 6 15 -4 23 -10 9 -16 9 -21 1z"/>
<path d="M1475 285 c-14 -13 -25 -31 -25 -39 0 -21 27 -9 33 15 4 13 14 19 35
19 49 0 47 -19 -5 -41 -26 -11 -49 -22 -52 -24 -2 -3 4 -16 13 -30 32 -48 126
-22 126 35 0 12 -7 34 -15 49 -24 48 -72 55 -110 16z m85 -90 c-15 -18 -42
-19 -58 -3 -9 9 -3 15 26 28 31 14 38 14 40 3 2 -8 -2 -20 -8 -28z"/>
<path d="M691 291 c-19 -12 3 -23 32 -16 26 7 57 -15 57 -41 0 -18 1 -18 -55
6 -54 23 -65 20 -65 -19 0 -56 77 -93 115 -54 55 54 27 133 -47 133 -13 0 -29
-4 -37 -9z m34 -75 c40 -17 45 -32 13 -42 -16 -5 -27 -1 -40 16 -18 22 -23 40
-13 40 3 0 21 -7 40 -14z"/>
<path d="M1338 248 c-27 -9 -46 -43 -33 -56 4 -4 14 3 22 16 17 25 55 29 73 8
9 -12 4 -17 -32 -26 -63 -16 -68 -18 -68 -30 0 -18 48 -60 68 -60 35 0 72 38
72 75 0 58 -48 93 -102 73z m72 -99 c-13 -23 -65 -26 -73 -5 -4 10 6 17 31 24
45 11 55 7 42 -19z"/>
<path d="M852 234 c-19 -9 -42 -59 -42 -92 0 -39 39 -77 92 -90 23 -6 43 -10
44 -9 8 8 37 177 31 183 -9 9 -108 15 -125 8z m87 -23 c11 -7 12 -19 0 -75
-12 -65 -14 -67 -38 -61 -40 10 -61 35 -61 72 0 55 56 91 99 64z"/>
<path d="M1243 180 c5 -43 3 -54 -13 -68 -28 -24 -25 -30 16 -30 l36 0 -7 57
c-8 72 -14 91 -27 91 -7 0 -9 -18 -5 -50z"/>
<path d="M1075 210 c-3 -6 1 -13 10 -16 19 -8 30 0 20 15 -8 14 -22 14 -30 1z"/>
</g>
</svg>
