<?xml version="1.0" standalone="no"?>
<!DOCTYPE svg PUBLIC "-//W3C//DTD SVG 20010904//EN"
 "http://www.w3.org/TR/2001/REC-SVG-20010904/DTD/svg10.dtd">
<svg version="1.0" xmlns="http://www.w3.org/2000/svg"
 width="229.000000pt" height="232.000000pt" viewBox="0 0 229.000000 232.000000"
 preserveAspectRatio="xMidYMid meet">

<g transform="translate(0.000000,232.000000) scale(0.100000,-0.100000)"
fill="#000000" stroke="none">
<path d="M0 1160 l0 -1160 1145 0 1145 0 0 1160 0 1160 -1145 0 -1145 0 0
-1160z m944 1078 c28 -132 32 -178 17 -178 -7 0 -41 155 -41 189 0 20 20 11
24 -11z m391 -18 c-5 -16 -2 -20 14 -20 12 0 21 -4 21 -10 0 -5 -9 -10 -19
-10 -24 0 -27 -4 -36 -57 -6 -36 -4 -43 9 -43 9 0 16 -7 16 -15 0 -11 -6 -12
-22 -6 -21 8 -23 15 -23 80 0 39 3 71 8 71 4 0 7 7 7 15 0 8 7 15 16 15 11 0
14 -6 9 -20z m-245 -97 c-18 -54 -39 -105 -46 -113 -17 -17 -18 -3 -4 35 8 22
4 39 -24 101 -23 48 -30 74 -22 74 7 0 23 -22 36 -50 13 -27 26 -50 30 -50 4
0 13 19 19 43 13 43 30 71 38 63 3 -3 -9 -49 -27 -103z m148 85 c7 -7 12 -19
12 -27 0 -11 -4 -11 -19 3 -20 18 -52 19 -58 1 -1 -5 14 -19 35 -30 27 -15 37
-26 37 -45 0 -35 -44 -50 -79 -26 -29 18 -34 36 -11 36 8 0 15 -4 15 -9 0 -13
27 -21 45 -15 25 10 17 22 -25 44 -57 29 -51 80 10 80 14 0 31 -5 38 -12z
m-339 -80 c19 -62 18 -89 -1 -70 -7 7 -16 4 -29 -9 -33 -33 -81 -23 -104 22
-21 39 -19 56 11 86 20 20 32 24 55 19 19 -3 28 -2 24 4 -3 6 1 10 9 10 10 0
22 -22 35 -62z m-204 -14 c18 -7 70 -103 60 -112 -7 -7 -20 8 -47 58 -14 25
-23 31 -45 28 -37 -4 -42 -42 -13 -97 15 -30 17 -41 7 -41 -7 0 -27 29 -45 65
-26 52 -29 65 -16 65 9 0 27 9 41 20 28 22 33 23 58 14z m995 -54 c-12 -17
-21 -32 -19 -34 2 -1 19 -13 38 -26 l34 -23 27 33 c15 18 30 29 33 23 7 -12
-88 -153 -103 -153 -15 0 -12 9 12 43 l22 30 -34 29 c-19 15 -37 28 -40 28 -3
0 -14 -13 -23 -30 -10 -16 -25 -30 -34 -30 -17 0 -20 -6 55 108 23 34 39 49
45 43 6 -6 1 -21 -13 -41z m-1135 -72 c58 -38 75 -53 61 -56 -10 -2 -23 1 -28
6 -8 8 -21 3 -43 -14 -24 -18 -31 -30 -28 -48 3 -13 1 -26 -5 -30 -11 -6 -66
170 -57 184 10 16 15 13 100 -42z m955 27 c0 -8 -4 -15 -9 -15 -13 0 -22 16
-14 24 11 11 23 6 23 -9z m320 -59 c0 -8 -9 -35 -20 -61 -11 -26 -20 -49 -20
-51 0 -2 22 7 50 21 53 27 74 31 68 14 -5 -15 -186 -91 -206 -86 -12 3 -6 9
20 20 31 14 40 26 64 87 25 65 44 89 44 56z m-1432 -136 c23 -18 42 -40 42
-47 0 -8 -4 -12 -9 -9 -5 3 -14 -7 -19 -23 -19 -54 -79 -64 -122 -21 -35 35
-16 110 28 110 8 0 12 6 9 14 -7 18 3 28 17 18 6 -5 30 -24 54 -42z m1572 -10
c11 -11 20 -32 20 -46 l0 -25 26 20 c28 22 44 27 44 12 0 -9 -144 -121 -156
-121 -3 0 -4 9 -1 20 3 13 0 20 -8 20 -24 0 -45 31 -45 65 0 62 77 98 120 55z
m-1734 -103 c-5 -20 1 -27 35 -46 32 -18 43 -20 55 -10 19 16 30 4 14 -16 -17
-20 -42 -19 -83 5 -19 11 -41 18 -49 15 -9 -4 -18 1 -22 12 -3 10 -9 24 -12
32 -5 9 -1 11 13 7 12 -4 25 0 33 9 18 21 23 19 16 -8z m1819 -38 c-4 -5 1
-12 9 -15 9 -3 16 -12 16 -20 0 -18 -9 -18 -31 2 -16 14 -21 13 -68 -11 -73
-37 -68 -7 6 33 54 28 81 33 68 11z m-1755 -108 c0 -7 -6 -11 -13 -8 -10 4
-12 -3 -9 -23 9 -63 -75 -94 -123 -45 -31 31 -32 59 -1 90 13 13 19 26 13 28
-6 2 -8 8 -4 14 9 15 137 -37 137 -56z m1813 -4 c13 -14 17 -30 13 -49 -3 -18
-1 -27 6 -25 6 1 12 -3 14 -8 2 -6 -24 -20 -58 -33 -73 -25 -81 -27 -75 -9 2
6 -4 23 -14 36 -33 42 -24 79 26 105 35 18 63 13 88 -17z m-1939 -121 c34 -14
62 -66 52 -97 -2 -8 -7 -26 -10 -40 l-6 -27 -67 14 c-123 25 -115 21 -108 57
20 93 66 123 139 93z m1990 -35 c4 -5 -13 -12 -36 -16 -60 -10 -78 -22 -78
-50 0 -25 29 -48 52 -41 44 14 78 15 78 2 0 -8 -17 -16 -45 -19 -25 -4 -57
-10 -71 -13 -23 -6 -25 -4 -20 14 4 11 2 23 -4 27 -16 10 -12 60 8 78 25 22
106 35 116 18z m76 -170 c0 -12 -53 -21 -131 -21 -78 0 -94 17 -21 23 96 7
152 7 152 -2z m-2032 -63 c-6 -18 -28 -21 -28 -4 0 9 7 16 16 16 9 0 14 -5 12
-12z m1982 -13 c0 -12 -14 -15 -70 -15 -56 0 -70 3 -70 15 0 12 14 15 70 15
56 0 70 -3 70 -15z m58 -3 c2 -7 -3 -12 -12 -12 -9 0 -16 7 -16 16 0 17 22 14
28 -4z m-79 -68 c12 -15 21 -35 21 -46 0 -23 -52 -78 -57 -61 -3 7 5 21 17 33
27 27 23 50 -12 69 -21 12 -31 13 -52 3 -28 -12 -35 -49 -15 -69 6 -6 9 -17 7
-23 -7 -21 -38 19 -38 48 0 46 26 72 70 72 30 0 43 -6 59 -26z m-2009 -62 c43
2 60 -1 60 -9 0 -7 -8 -13 -17 -14 -10 0 -42 -4 -71 -8 -45 -6 -52 -5 -50 8 1
9 -1 22 -5 29 -5 6 -5 17 -1 24 5 7 10 4 16 -11 7 -21 13 -22 68 -19z m20
-122 c15 -50 16 -52 33 -36 24 24 21 43 -9 71 -25 23 -25 25 -7 25 43 0 67
-71 36 -108 -27 -33 -85 -40 -112 -13 -29 29 -28 85 1 105 32 23 41 16 58 -44z
m1914 -110 c60 -27 66 -32 56 -49 -5 -11 -14 -31 -20 -46 -5 -14 -14 -23 -20
-20 -6 4 -4 17 6 37 17 32 12 42 -22 52 -17 5 -24 0 -34 -24 -16 -38 -32 -30
-17 10 13 34 11 36 -24 45 -23 6 -28 3 -37 -24 -6 -17 -16 -31 -22 -31 -7 0
-10 3 -8 8 2 4 10 24 18 45 17 44 20 44 124 -3z m-1816 4 c14 -10 22 -25 22
-45 0 -34 1 -34 42 -13 21 11 33 13 41 5 7 -7 -20 -24 -88 -56 -53 -25 -99
-45 -102 -45 -2 0 -2 8 2 19 3 12 0 21 -10 25 -24 9 -37 53 -23 79 25 47 74
61 116 31z m1723 -110 c57 -36 73 -54 46 -54 -7 0 -13 -10 -14 -22 -3 -31 -40
-60 -67 -52 -34 11 -96 56 -90 65 3 5 24 -2 48 -16 51 -30 72 -31 86 -6 16 31
13 38 -35 71 -25 17 -45 35 -45 40 0 15 8 12 71 -26z m-1629 -54 c24 -25 29
-36 24 -58 -21 -88 -146 -79 -146 11 0 33 18 58 50 70 29 11 42 7 72 -23z
m1452 -16 c22 -8 10 -24 -18 -24 -43 0 -63 -53 -31 -80 12 -10 16 -9 21 6 21
58 77 72 119 29 14 -13 25 -35 25 -47 0 -31 -27 -68 -49 -68 -11 0 -18 -6 -17
-12 0 -7 -3 -14 -7 -16 -10 -4 -113 91 -127 118 -13 24 1 63 32 84 25 18 29
19 52 10z m-1440 -148 c-42 -39 -73 -61 -79 -55 -5 6 17 33 60 73 41 37 74 60
79 55 5 -5 -20 -35 -60 -73z m141 -1 c14 -13 25 -36 25 -50 0 -34 -42 -75 -76
-75 -34 0 -74 36 -74 65 0 12 6 30 14 40 13 18 15 17 57 -18 35 -31 44 -35 51
-22 10 17 -6 54 -25 57 -7 0 -16 2 -22 3 -5 2 -14 3 -18 4 -5 0 -5 6 -2 11 11
18 45 11 70 -15z m1293 -97 c11 -15 11 -18 -1 -18 -19 0 -100 97 -92 111 6 9
55 -39 93 -93z m-85 4 c39 -62 44 -76 25 -70 -7 3 -21 -6 -31 -19 -31 -39 -70
-31 -107 21 -16 25 -30 49 -30 55 0 22 17 10 48 -34 34 -48 51 -55 76 -29 21
21 20 29 -9 72 -25 36 -32 62 -17 62 4 0 24 -26 45 -58z m-1084 -4 c-2 -44
-27 -142 -35 -138 -5 3 -8 12 -7 20 1 8 5 35 9 60 8 50 13 50 -64 -8 -17 -12
-33 -18 -37 -13 -3 5 18 28 47 50 53 41 89 52 87 29z m1206 -58 c-5 -8 -11 -8
-17 -2 -6 6 -7 16 -3 22 5 8 11 8 17 2 6 -6 7 -16 3 -22z m-290 14 c18 -7 45
-55 45 -79 0 -25 -46 -65 -75 -65 -24 0 -65 31 -65 49 0 4 23 18 51 30 44 18
50 23 39 36 -20 24 -43 18 -72 -17 -25 -30 -27 -31 -28 -11 0 40 61 73 105 57z
m-775 -24 c28 -28 26 -75 -5 -105 -30 -30 -54 -31 -89 -4 -17 14 -26 30 -26
49 0 40 11 43 65 20 57 -24 55 -24 55 -1 0 28 -26 44 -60 38 -29 -6 -51 7 -28
16 29 12 69 6 88 -13z m638 -44 c7 -7 15 -28 18 -48 5 -28 2 -40 -15 -57 -30
-30 -86 -29 -107 4 -16 25 -12 45 9 45 35 0 86 22 81 34 -10 26 -43 25 -74 -1
-19 -16 -30 -20 -30 -11 1 48 79 71 118 34z m-442 -9 c10 -10 -29 -177 -41
-177 -59 0 -125 48 -125 92 0 33 23 83 42 92 16 7 116 1 124 -7z m289 -44 c3
-27 8 -58 11 -71 4 -18 1 -23 -13 -20 -10 1 -24 -1 -31 -6 -8 -5 -18 -4 -24 2
-7 7 -3 12 11 17 24 7 24 11 21 78 -1 27 3 47 8 47 6 0 14 -21 17 -47z m-165
22 c0 -8 -4 -15 -9 -15 -13 0 -22 16 -14 24 11 11 23 6 23 -9z"/>
<path d="M798 2149 c-37 -21 -10 -99 34 -99 18 0 48 31 48 51 0 23 -30 59 -48
59 -9 0 -25 -5 -34 -11z"/>
<path d="M481 1998 c0 -7 6 -28 12 -46 12 -31 13 -32 35 -17 29 21 28 26 -13
53 -22 14 -35 18 -34 10z"/>
<path d="M307 1802 c-22 -24 -21 -45 1 -65 25 -23 69 -22 82 2 14 28 13 38
-10 61 -25 25 -52 26 -73 2z"/>
<path d="M1886 1781 c-25 -28 -14 -69 21 -77 21 -6 31 -2 50 21 22 24 23 29
10 49 -19 28 -58 32 -81 7z"/>
<path d="M166 1564 c-21 -21 -20 -40 4 -64 24 -24 53 -26 74 -4 32 32 8 84
-39 84 -13 0 -31 -7 -39 -16z"/>
<path d="M2022 1544 c-27 -18 -28 -45 -4 -67 24 -22 55 -21 75 1 21 23 22 46
1 66 -20 20 -43 20 -72 0z"/>
<path d="M87 1408 c-9 -7 -21 -27 -26 -45 l-9 -31 71 -16 c38 -9 71 -15 72
-14 2 2 6 17 9 34 14 62 -65 110 -117 72z"/>
<path d="M124 916 c-9 -24 3 -63 22 -70 24 -9 27 -2 17 40 -9 40 -29 55 -39
30z"/>
<path d="M202 774 c-41 -29 -23 -84 28 -84 14 0 31 5 38 12 19 19 15 66 -7 78
-26 13 -33 13 -59 -6z"/>
<path d="M286 614 c-19 -18 -21 -55 -4 -72 29 -29 88 1 88 44 0 42 -53 60 -84
28z"/>
<path d="M1827 532 c-10 -10 -17 -26 -17 -35 0 -21 35 -57 55 -57 17 0 55 35
55 50 0 16 -47 60 -63 60 -8 0 -21 -8 -30 -18z"/>
<path d="M425 420 c-11 -18 6 -50 30 -56 26 -7 48 2 40 16 -13 21 -64 50 -70
40z"/>
<path d="M1533 243 c-40 -20 -42 -30 -8 -39 29 -7 55 10 55 37 0 23 -5 23 -47
2z"/>
<path d="M690 235 c0 -8 11 -22 24 -30 19 -13 29 -14 45 -5 28 14 27 17 -15
35 -45 19 -54 19 -54 0z"/>
<path d="M1372 189 c-39 -12 -38 -33 3 -37 19 -3 33 2 42 14 26 35 15 40 -45
23z"/>
<path d="M867 223 c-29 -33 -31 -68 -5 -96 13 -14 34 -27 47 -29 22 -3 26 3
42 64 9 37 14 70 11 73 -13 12 -80 4 -95 -12z"/>
</g>
</svg>
