<?xml version="1.0" standalone="no"?>
<!DOCTYPE svg PUBLIC "-//W3C//DTD SVG 20010904//EN"
 "http://www.w3.org/TR/2001/REC-SVG-20010904/DTD/svg10.dtd">
<svg version="1.0" xmlns="http://www.w3.org/2000/svg"
 width="422.000000pt" height="591.000000pt" viewBox="0 0 422.000000 591.000000"
 preserveAspectRatio="xMidYMid meet">

<g transform="translate(0.000000,591.000000) scale(0.100000,-0.100000)"
fill="#000000" stroke="none">
<path d="M2186 4308 c-13 -102 -13 -198 -1 -198 13 0 25 91 25 188 0 62 -17
69 -24 10z"/>
<path d="M1989 4264 c-53 -57 -13 -154 65 -154 31 0 76 30 76 50 0 17 -25 11
-38 -10 -7 -11 -23 -20 -37 -20 -25 0 -65 31 -65 50 0 6 28 10 63 10 80 0 91
7 76 48 -13 38 -35 52 -82 52 -23 0 -41 -8 -58 -26z m105 -16 c22 -31 12 -38
-50 -38 -58 0 -66 10 -37 42 22 25 68 23 87 -4z"/>
<path d="M1897 4267 c-3 -8 -8 -44 -12 -80 -4 -37 -10 -67 -14 -67 -3 0 -23
30 -45 65 -21 36 -44 65 -52 65 -20 0 -19 -4 36 -85 50 -75 74 -91 84 -57 8
27 26 134 26 154 0 21 -15 24 -23 5z"/>
<path d="M2271 4247 c-45 -49 -22 -139 39 -152 63 -14 113 29 113 97 0 69
-103 106 -152 55z m109 -17 c22 -22 24 -37 10 -74 -25 -68 -120 -49 -120 25 0
36 31 69 65 69 14 0 34 -9 45 -20z"/>
<path d="M2448 4117 c-30 -82 -41 -124 -34 -129 7 -5 19 14 32 48 l21 56 16
-26 c33 -50 105 -46 137 7 27 44 25 83 -6 113 -20 21 -33 25 -65 22 -28 -2
-38 0 -35 8 3 7 -1 15 -8 17 -9 4 -27 -32 -58 -116z m144 56 c40 -36 8 -115
-47 -115 -31 0 -65 32 -65 62 0 9 9 29 21 44 24 30 63 34 91 9z"/>
<path d="M1641 4209 c-35 -14 -50 -39 -51 -82 0 -29 7 -45 29 -68 16 -16 39
-29 51 -29 35 0 79 29 86 56 9 34 -3 42 -17 11 -15 -34 -52 -50 -83 -35 -44
19 -36 33 30 57 46 16 64 28 64 40 0 39 -64 69 -109 50z m69 -34 c15 -19 15
-19 -34 -39 -49 -20 -66 -20 -66 1 0 44 72 71 100 38z"/>
<path d="M1379 4132 l-46 -27 49 -85 c27 -47 53 -91 57 -99 10 -17 37 -4 92
46 32 29 39 42 39 72 0 20 -9 51 -20 69 -36 58 -99 67 -171 24z m124 -12 c34
-27 51 -79 37 -111 -15 -34 -75 -72 -88 -56 -16 21 -82 138 -82 146 0 11 61
40 86 40 12 1 33 -8 47 -19z"/>
<path d="M2703 4120 c-29 -12 -56 -55 -56 -91 0 -51 58 -96 109 -83 36 9 23
30 -15 26 -39 -4 -71 20 -71 55 0 30 9 29 75 -8 30 -17 59 -28 65 -24 13 8 13
70 0 95 -5 10 -24 23 -41 29 -37 13 -37 13 -66 1z m71 -31 c25 -19 34 -48 20
-62 -4 -4 -29 5 -56 20 l-50 27 22 18 c28 23 32 23 64 -3z"/>
<path d="M2841 3968 c-33 -44 -49 -74 -43 -80 6 -6 24 10 48 42 34 45 43 51
71 48 38 -3 46 15 9 20 -16 2 -23 8 -20 17 3 7 1 15 -3 18 -5 3 -33 -26 -62
-65z"/>
<path d="M2886 3841 c-4 -7 -5 -15 -2 -18 9 -9 19 4 14 18 -4 11 -6 11 -12 0z"/>
<path d="M1056 3783 c-3 -3 -6 -17 -6 -29 0 -17 -4 -22 -15 -18 -9 4 -15 1
-15 -7 0 -18 129 -111 143 -102 5 3 -14 27 -43 52 -46 41 -52 51 -47 73 7 26
-3 44 -17 31z"/>
<path d="M3122 3729 l-92 -61 17 -30 c26 -44 80 -88 109 -88 68 0 124 53 124
118 0 22 -51 122 -62 122 -2 0 -45 -28 -96 -61z m135 -54 c5 -30 1 -39 -26
-64 -57 -54 -103 -48 -150 18 l-21 29 77 50 77 49 19 -23 c10 -13 21 -39 24
-59z"/>
<path d="M1210 3720 c0 -5 5 -10 10 -10 6 0 10 5 10 10 0 6 -4 10 -10 10 -5 0
-10 -4 -10 -10z"/>
<path d="M955 3624 c-42 -45 -30 -110 25 -139 43 -22 68 -19 101 14 28 28 36
61 23 95 -10 27 -24 7 -17 -25 7 -38 -19 -69 -59 -69 -28 0 -35 8 -19 26 5 5
20 30 34 56 25 46 26 48 7 58 -33 18 -70 11 -95 -16z m71 -8 c4 -10 -21 -67
-43 -95 -1 -2 -9 2 -18 9 -21 18 -19 50 7 77 24 26 46 30 54 9z"/>
<path d="M3209 3525 c-53 -29 -57 -104 -7 -139 18 -13 20 -18 9 -25 -7 -5 -11
-14 -7 -19 4 -7 33 1 83 22 72 30 104 56 70 56 -11 0 -15 10 -14 36 2 67 -70
104 -134 69z m107 -40 c28 -43 -10 -98 -68 -98 -35 0 -58 24 -58 60 0 59 93
88 126 38z"/>
<path d="M894 3459 c-47 -24 -62 -105 -26 -141 23 -24 91 -34 120 -19 31 16
47 75 32 112 -8 18 -17 26 -22 21 -5 -5 -4 -20 3 -36 11 -23 10 -30 -8 -54
-21 -28 -63 -42 -63 -21 0 6 10 38 21 71 12 32 20 60 18 62 -11 11 -57 14 -75
5z m46 -27 c0 -18 -32 -102 -39 -102 -31 0 -41 62 -14 92 16 18 53 25 53 10z"/>
<path d="M3370 3335 c0 -8 -6 -15 -13 -15 -7 0 -36 -7 -64 -15 -52 -16 -68
-34 -58 -66 9 -27 25 -24 25 4 0 20 9 26 56 41 47 15 58 16 65 4 5 -7 9 -16 9
-20 0 -5 5 -8 11 -8 7 0 9 9 5 24 -4 18 -1 25 14 29 30 8 25 30 -5 25 -14 -3
-25 -1 -25 3 0 5 -4 9 -10 9 -5 0 -10 -7 -10 -15z"/>
<path d="M812 3235 c-24 -31 -27 -47 -12 -76 8 -15 7 -19 -5 -19 -18 0 -20
-16 -2 -23 30 -11 158 -30 164 -23 12 11 -15 23 -68 30 -60 8 -86 38 -70 80 6
14 18 27 28 27 21 2 15 2 81 -7 33 -4 52 -3 52 4 0 14 -24 22 -90 29 -53 5
-58 4 -78 -22z"/>
<path d="M3292 3194 c-38 -26 -46 -61 -24 -105 11 -22 16 -39 11 -39 -5 0 -9
-7 -9 -16 0 -10 6 -14 18 -10 9 3 50 8 90 12 51 5 72 11 72 20 0 8 -7 14 -15
14 -18 0 -18 5 -4 32 13 25 5 62 -21 88 -25 25 -86 27 -118 4z m103 -29 c30
-29 31 -45 4 -79 -14 -18 -30 -26 -51 -26 -80 0 -93 95 -18 123 28 10 41 7 65
-18z"/>
<path d="M710 3045 c0 -8 7 -15 15 -15 8 0 15 7 15 15 0 8 -7 15 -15 15 -8 0
-15 -7 -15 -15z"/>
<path d="M776 3041 c-8 -12 44 -21 115 -21 63 0 79 14 28 24 -46 9 -137 7
-143 -3z"/>
<path d="M885 2973 c-38 -2 -80 -5 -92 -8 -26 -6 -31 -25 -7 -25 14 0 14 -2 0
-22 -24 -34 -19 -66 13 -99 38 -37 88 -39 127 -5 34 28 38 84 9 116 -18 20
-18 20 13 20 57 0 96 -68 57 -100 -17 -14 -20 -40 -6 -40 18 0 41 44 41 77 0
36 -33 79 -65 85 -11 2 -51 2 -90 1z m27 -50 c22 -20 24 -66 2 -87 -16 -16
-71 -21 -90 -8 -18 12 -35 52 -28 65 28 49 80 63 116 30z"/>
<path d="M3270 2905 c0 -9 12 -21 26 -27 22 -10 25 -17 20 -41 -3 -16 -6 -38
-6 -49 0 -12 -11 -23 -30 -29 -16 -6 -30 -17 -30 -23 0 -10 28 -7 108 12 104
24 132 35 132 53 0 5 -49 34 -110 64 -81 41 -110 51 -110 40z m133 -82 l52
-26 -59 -14 c-33 -7 -61 -11 -64 -9 -5 6 7 76 14 76 2 0 28 -12 57 -27z"/>
<path d="M890 2754 c-82 -22 -111 -69 -75 -121 8 -12 12 -28 9 -37 -8 -20 1
-20 95 2 41 10 77 24 79 31 4 11 -2 12 -24 7 -16 -3 -50 -9 -75 -12 -43 -6
-48 -4 -64 20 -16 24 -16 28 -1 50 12 19 31 28 76 37 34 6 59 16 57 22 -5 16
-17 16 -77 1z"/>
<path d="M3240 2687 c0 -8 24 -21 60 -30 73 -21 94 -49 66 -92 -19 -29 -33
-30 -100 -10 -59 18 -69 19 -64 3 5 -15 83 -38 131 -38 34 0 40 4 52 33 8 19
11 44 8 55 -3 14 -1 22 7 22 30 0 -2 24 -53 40 -96 30 -107 32 -107 17z"/>
<path d="M1004 2545 c22 -53 20 -60 -20 -73 -35 -10 -36 -10 -50 24 -8 19 -19
34 -24 34 -13 0 -13 -1 5 -43 l14 -35 -37 -15 -37 -15 -21 46 c-11 27 -23 42
-27 35 -5 -8 24 -95 38 -111 3 -3 195 74 202 82 8 8 -33 100 -47 104 -7 3 -6
-9 4 -33z"/>
<path d="M3193 2490 c-33 -13 -56 -55 -49 -86 6 -21 4 -25 -8 -21 -8 3 -17 0
-19 -7 -3 -8 23 -27 74 -51 76 -37 105 -41 80 -11 -10 12 -8 16 9 21 30 10 53
66 40 100 -10 26 -64 65 -90 64 -8 0 -25 -4 -37 -9z m84 -42 c28 -26 30 -61 3
-88 -27 -27 -66 -25 -95 5 -30 29 -32 54 -5 83 26 28 67 28 97 0z"/>
<path d="M3080 2316 c0 -19 190 -140 201 -129 6 6 -29 35 -91 76 -55 37 -102
67 -105 67 -3 0 -5 -6 -5 -14z"/>
<path d="M2966 2300 c-4 -9 19 -63 55 -130 73 -136 65 -123 78 -116 6 4 -6 34
-29 74 -21 37 -37 68 -36 69 2 2 36 -8 76 -22 57 -19 76 -22 82 -13 8 14 10
13 -108 48 -65 19 -72 24 -91 63 -15 30 -23 38 -27 27z"/>
<path d="M1115 2271 c-3 -6 2 -14 12 -17 57 -18 63 -23 63 -58 0 -39 -36 -76
-75 -76 -31 0 -59 34 -53 65 6 29 -10 45 -23 24 -13 -19 -2 -60 23 -86 30 -32
88 -31 125 1 35 30 39 95 8 125 -25 24 -70 37 -80 22z"/>
<path d="M1211 2088 c-35 -33 -60 -63 -55 -68 5 -5 31 12 59 39 64 62 78 78
68 84 -4 3 -37 -22 -72 -55z"/>
<path d="M2891 2099 c-33 -31 -26 -83 11 -87 15 -2 40 4 57 12 38 20 47 20 55
0 9 -22 -22 -55 -47 -52 -11 2 -22 -3 -24 -9 -8 -22 51 -15 76 8 26 24 25 66
-1 83 -13 8 -26 7 -50 -3 -59 -23 -68 -24 -74 -7 -8 22 25 59 48 53 9 -3 22 1
29 9 20 24 -53 18 -80 -7z"/>
<path d="M1250 2013 c-81 -91 -89 -103 -68 -103 7 0 38 28 68 61 97 111 101
117 87 122 -7 2 -46 -33 -87 -80z"/>
<path d="M1353 2017 c-12 -17 -34 -49 -49 -70 -19 -25 -24 -41 -17 -48 7 -7
21 6 44 41 35 52 70 71 98 53 28 -18 25 -65 -9 -111 -31 -43 -37 -62 -20 -62
17 0 80 104 80 132 0 29 -40 68 -71 68 -11 0 -18 5 -16 11 5 25 -19 17 -40
-14z"/>
<path d="M2767 1999 c-24 -14 -12 -32 13 -19 26 14 24 15 65 -41 36 -48 37
-51 19 -64 -11 -7 -16 -17 -12 -21 4 -4 15 -1 24 7 14 11 18 11 29 -4 16 -23
39 -23 30 1 -4 9 -7 27 -6 39 0 15 -4 21 -14 17 -9 -4 -27 13 -50 45 -38 52
-61 62 -98 40z"/>
<path d="M1104 1989 c-10 -17 13 -36 27 -22 12 12 4 33 -11 33 -5 0 -12 -5
-16 -11z"/>
<path d="M2673 1940 c-23 -13 -33 -27 -33 -44 0 -37 22 -49 80 -41 41 6 51 4
56 -9 11 -28 -16 -49 -54 -42 -23 3 -32 1 -29 -7 6 -19 56 -20 83 -2 20 13 24
23 22 48 l-3 32 -64 0 c-68 0 -85 12 -60 41 9 11 23 14 46 11 38 -7 52 7 24
22 -26 15 -31 14 -68 -9z"/>
<path d="M1499 1862 c-25 -52 -33 -79 -25 -84 6 -4 13 -3 14 2 6 16 20 11 27
-8 6 -21 45 -42 76 -42 11 0 34 13 50 29 60 61 24 158 -55 149 -27 -3 -35 0
-33 10 1 8 -2 16 -8 18 -5 2 -26 -31 -46 -74z m131 8 c28 -28 25 -57 -10 -91
-23 -23 -35 -29 -52 -24 -47 14 -63 69 -32 113 19 28 67 29 94 2z"/>
<path d="M2570 1880 c0 -5 7 -10 15 -10 8 0 15 5 15 10 0 6 -7 10 -15 10 -8 0
-15 -4 -15 -10z"/>
<path d="M2075 1758 c-27 -67 -51 -126 -53 -130 -2 -4 2 -8 10 -8 8 0 24 29
38 66 14 36 28 68 31 70 4 2 17 -27 31 -64 15 -40 31 -68 41 -70 13 -3 9 14
-19 84 -36 88 -36 90 -9 157 5 11 3 17 -6 17 -8 0 -35 -51 -64 -122z"/>
<path d="M1760 1815 c-5 -14 -13 -37 -16 -50 -8 -31 -37 -57 -59 -53 -10 2
-20 -3 -23 -11 -3 -10 3 -13 27 -9 22 3 31 1 31 -10 0 -7 5 -12 12 -10 11 4
39 76 53 136 8 39 -11 44 -25 7z"/>
<path d="M1830 1808 c-1 -7 -9 -59 -19 -115 -14 -81 -15 -103 -5 -107 9 -3 15
9 20 39 l6 45 28 -20 c37 -27 73 -25 107 4 23 20 28 32 28 71 0 63 -30 89 -92
82 -24 -2 -43 -1 -43 4 0 14 -30 10 -30 -3z m122 -35 c26 -23 23 -69 -7 -98
-13 -14 -31 -25 -40 -25 -22 0 -65 45 -65 68 0 11 9 31 21 46 24 30 63 34 91
9z"/>
<path d="M2361 1773 c4 -27 4 -51 1 -54 -4 -4 -30 -10 -58 -14 -48 -6 -52 -5
-58 17 -3 13 -6 33 -6 45 0 21 -16 40 -26 30 -10 -10 29 -228 40 -224 6 2 10
13 9 23 -1 10 -3 32 -5 49 -3 28 -1 30 44 38 61 11 78 5 78 -30 0 -31 15 -61
26 -51 3 4 1 44 -5 90 -16 111 -21 128 -35 128 -10 0 -11 -12 -5 -47z"/>
</g>
</svg>
