<?xml version="1.0" standalone="no"?>
<!DOCTYPE svg PUBLIC "-//W3C//DTD SVG 20010904//EN"
 "http://www.w3.org/TR/2001/REC-SVG-20010904/DTD/svg10.dtd">
<svg version="1.0" xmlns="http://www.w3.org/2000/svg"
 width="242.000000pt" height="244.000000pt" viewBox="0 0 242.000000 244.000000"
 preserveAspectRatio="xMidYMid meet">

<g transform="translate(0.000000,244.000000) scale(0.100000,-0.100000)"
fill="#000000" stroke="none">
<path d="M1255 2317 c-5 -12 -8 -51 -5 -86 4 -55 8 -65 28 -72 13 -5 22 -5 22
2 0 5 -7 12 -15 15 -10 4 -15 20 -15 51 0 36 4 46 20 50 23 6 27 23 5 23 -8 0
-15 9 -15 20 0 27 -13 25 -25 -3z"/>
<path d="M863 2286 c4 -9 16 -49 28 -89 22 -74 33 -95 42 -80 9 14 -47 176
-62 181 -10 3 -12 0 -8 -12z"/>
<path d="M1112 2288 c-21 -21 -14 -48 16 -59 62 -25 69 -34 38 -54 -10 -6 -21
-4 -34 9 -13 11 -22 13 -26 7 -4 -6 5 -18 19 -27 21 -14 31 -15 51 -6 50 23
42 57 -18 78 -18 6 -34 16 -36 22 -6 18 28 27 49 14 24 -15 29 -15 29 2 0 26
-66 36 -88 14z"/>
<path d="M1035 2235 c-4 -30 -11 -55 -15 -55 -5 0 -21 20 -37 45 -15 25 -34
45 -42 45 -14 0 -14 1 47 -92 19 -29 23 -46 19 -74 -4 -25 -2 -34 6 -31 7 2
20 44 29 93 20 103 21 124 9 124 -5 0 -13 -25 -16 -55z"/>
<path d="M1644 2239 c-16 -20 -74 -136 -74 -149 0 -21 17 -9 33 25 l17 35 40
-20 c45 -23 47 -30 24 -66 -12 -17 -14 -28 -7 -35 7 -7 24 16 52 69 22 44 41
83 41 86 0 17 -21 2 -35 -24 -18 -35 -29 -37 -73 -10 -33 20 -33 21 -17 46 19
29 18 67 -1 43z"/>
<path d="M810 2216 c0 -9 -7 -12 -20 -9 -11 3 -31 -2 -45 -11 -52 -34 -19
-136 43 -136 12 0 32 10 44 22 13 13 31 21 41 20 15 -3 13 6 -15 62 -31 63
-48 82 -48 52z m12 -43 c22 -20 23 -51 1 -75 -21 -23 -38 -23 -63 2 -52 52 7
123 62 73z"/>
<path d="M1452 2138 c6 -18 28 -21 28 -4 0 9 -7 16 -16 16 -9 0 -14 -5 -12
-12z"/>
<path d="M604 2105 c-14 -14 -29 -25 -34 -25 -6 0 -10 -4 -10 -10 0 -15 70
-110 81 -110 14 0 11 7 -17 49 -32 49 -29 85 7 89 21 2 33 -6 59 -38 39 -50
61 -42 24 8 -51 70 -71 76 -110 37z"/>
<path d="M1766 2050 c-16 -59 -24 -73 -47 -86 -26 -13 -40 -34 -22 -34 18 0
203 115 190 118 -9 2 -37 -9 -62 -23 -51 -30 -55 -25 -31 43 13 37 12 52 -4
52 -3 0 -14 -32 -24 -70z"/>
<path d="M430 2011 c0 -21 73 -171 82 -171 6 0 8 10 5 23 -9 34 34 82 65 74
53 -14 35 8 -34 40 -87 40 -118 49 -118 34z m73 -37 c43 -22 43 -21 22 -44
-24 -27 -29 -26 -48 15 -25 53 -24 54 26 29z"/>
<path d="M1870 1972 c-16 -17 -30 -40 -30 -52 0 -22 41 -70 60 -70 6 0 9 -4 5
-9 -3 -5 -2 -12 3 -15 11 -7 149 120 140 130 -5 4 -18 -1 -29 -12 -16 -13 -23
-15 -26 -7 -9 26 -39 52 -65 59 -22 5 -33 0 -58 -24z m88 -14 c29 -29 -1 -88
-44 -88 -43 0 -61 50 -31 88 12 15 59 16 75 0z"/>
<path d="M1986 1831 c-32 -21 -53 -42 -47 -45 6 -4 29 6 51 21 35 22 45 25 61
15 10 -7 23 -12 29 -12 18 0 11 18 -10 25 -11 4 -18 10 -15 15 15 24 -18 15
-69 -19z"/>
<path d="M325 1820 c-3 -5 0 -10 7 -10 7 0 2 -7 -10 -16 -12 -8 -27 -24 -33
-35 -22 -42 25 -99 81 -99 26 0 60 38 60 67 0 14 4 21 10 18 6 -3 10 0 10 8 0
9 -25 29 -55 46 -61 35 -61 35 -70 21z m63 -46 c26 -18 29 -56 6 -78 -19 -20
-34 -20 -62 0 -27 19 -30 68 -4 83 24 14 34 13 60 -5z"/>
<path d="M2025 1745 c-32 -31 -32 -66 -1 -96 13 -13 22 -29 19 -36 -7 -19 0
-17 67 17 54 27 77 50 50 50 -5 0 -10 9 -10 20 0 29 -44 70 -75 70 -14 0 -37
-11 -50 -25z m83 -11 c49 -34 2 -111 -53 -86 -38 17 -42 52 -11 79 32 27 35
28 64 7z"/>
<path d="M246 1668 c-5 -10 -17 -18 -27 -18 -10 0 -19 -4 -19 -10 0 -5 5 -10
10 -10 6 0 10 -7 10 -16 0 -11 5 -14 17 -10 9 4 38 -1 64 -10 39 -15 50 -15
63 -5 16 13 22 41 10 41 -4 0 -12 -7 -18 -15 -10 -14 -16 -14 -53 1 -32 13
-43 23 -46 43 -3 22 -4 23 -11 9z"/>
<path d="M2124 1589 c-62 -23 -74 -50 -44 -91 13 -18 16 -28 8 -28 -8 0 -9 -3
-2 -10 14 -14 134 18 134 36 0 9 -12 8 -52 -3 -50 -15 -52 -15 -70 7 -25 31
-9 55 52 75 28 9 48 21 44 26 -7 12 -10 11 -70 -12z"/>
<path d="M213 1550 c3 -11 -1 -24 -9 -31 -20 -16 -17 -73 4 -92 26 -24 85 -22
107 3 9 10 17 32 17 47 0 15 5 34 10 40 12 15 10 15 -75 37 -57 14 -59 14 -54
-4z m87 -40 c24 -24 24 -29 4 -58 -28 -40 -94 -22 -94 26 0 52 52 70 90 32z"/>
<path d="M2165 1425 c-38 -7 -72 -13 -74 -14 -3 0 -1 -5 5 -10 5 -5 42 -3 89
5 44 7 86 13 93 13 6 1 12 6 12 11 0 12 -34 11 -125 -5z"/>
<path d="M174 1376 c-35 -15 -39 -24 -49 -88 -6 -42 -5 -46 17 -51 12 -4 56
-7 96 -7 l72 0 0 39 c0 60 -16 90 -55 106 -41 18 -42 18 -81 1z m96 -36 c12
-12 20 -33 20 -55 0 -39 -2 -40 -99 -28 l-53 6 6 36 c3 20 13 42 23 48 26 20
80 16 103 -7z"/>
<path d="M2190 1362 c-62 -3 -90 -11 -90 -22 0 -12 130 -2 143 10 13 12 -3 15
-53 12z"/>
<path d="M2272 1359 c2 -6 8 -10 13 -10 5 0 11 4 13 10 2 6 -4 11 -13 11 -9 0
-15 -5 -13 -11z"/>
<path d="M2126 1284 c-21 -21 -20 -78 1 -100 12 -12 18 -13 21 -4 3 7 0 15 -5
19 -6 3 -13 16 -17 27 -15 49 68 76 98 32 14 -20 14 -24 0 -46 -20 -30 -14
-50 9 -28 23 23 22 78 -1 99 -23 21 -86 22 -106 1z"/>
<path d="M292 1119 c2 -6 8 -10 13 -10 5 0 11 4 13 10 2 6 -4 11 -13 11 -9 0
-15 -5 -13 -11z"/>
<path d="M2061 980 c-6 -20 -11 -43 -11 -49 0 -23 18 -1 25 29 8 34 5 33 40
20 24 -9 26 -14 21 -45 -8 -43 1 -46 16 -4 9 27 14 30 37 24 35 -9 36 -10 24
-50 -16 -52 3 -42 21 10 11 35 12 47 3 50 -7 2 -46 14 -88 28 l-76 25 -12 -38z"/>
<path d="M200 981 c0 -5 6 -14 14 -21 8 -6 12 -19 9 -27 -5 -12 -2 -15 8 -11
8 3 40 13 73 22 71 21 62 38 -12 23 -48 -10 -55 -9 -63 6 -10 18 -29 23 -29 8z"/>
<path d="M330 912 c0 -5 12 -14 26 -20 21 -10 25 -18 22 -44 -5 -48 -23 -44
-46 12 -23 54 -31 59 -55 33 -33 -38 -22 -94 23 -113 70 -29 134 66 81 119
-21 21 -51 28 -51 13z m-10 -71 c20 -41 15 -56 -15 -45 -22 9 -35 45 -23 67
12 24 15 22 38 -22z"/>
<path d="M2030 891 c0 -5 20 -21 45 -35 34 -20 45 -33 45 -51 0 -42 -32 -49
-90 -20 -35 18 -50 21 -50 12 0 -15 81 -57 110 -57 21 0 50 35 50 62 0 10 5
18 10 18 24 0 6 18 -49 48 -63 34 -71 37 -71 23z"/>
<path d="M1893 779 c-26 -9 -43 -38 -43 -73 0 -19 16 -39 67 -81 68 -56 90
-67 79 -40 -4 10 2 19 18 25 41 15 50 76 16 110 -42 42 -120 16 -120 -40 0
-22 -1 -23 -20 -5 -34 31 -21 85 21 85 10 0 20 4 23 9 9 13 -16 19 -41 10z
m119 -76 c36 -32 17 -83 -32 -83 -33 0 -50 17 -50 50 0 48 45 67 82 33z"/>
<path d="M390 773 c-32 -12 -50 -37 -50 -69 0 -31 21 -64 40 -64 5 0 10 -9 12
-20 3 -18 12 -14 84 37 44 32 81 63 81 68 1 13 -15 8 -49 -16 l-28 -20 0 25
c0 15 -10 33 -26 45 -27 21 -38 24 -64 14z m64 -44 c19 -28 7 -61 -28 -74 -34
-12 -60 3 -64 37 -6 52 62 79 92 37z"/>
<path d="M487 620 c-14 -11 -29 -29 -32 -40 -7 -23 18 -75 40 -84 80 -30 144
72 79 123 -33 26 -54 26 -87 1z m77 -19 c24 -26 17 -62 -16 -81 -36 -19 -62
-5 -66 38 -2 22 3 34 20 46 29 21 41 20 62 -3z"/>
<path d="M1840 622 c0 -14 99 -106 107 -99 4 4 -15 30 -42 57 -47 48 -65 59
-65 42z"/>
<path d="M1800 584 c0 -3 14 -26 32 -50 34 -47 33 -65 -6 -88 -15 -9 -24 -4
-55 32 -36 42 -51 51 -51 32 0 -21 73 -90 95 -90 23 0 55 28 55 48 0 6 7 9 15
6 24 -10 18 6 -26 63 -37 47 -59 65 -59 47z"/>
<path d="M593 480 c-50 -65 -63 -90 -45 -90 10 0 112 136 112 150 0 21 -17 6
-67 -60z"/>
<path d="M1960 496 c0 -9 7 -16 16 -16 9 0 14 5 12 12 -6 18 -28 21 -28 4z"/>
<path d="M681 491 c-17 -11 1 -23 22 -15 25 9 57 -14 57 -41 0 -31 -1 -31 -51
1 -48 30 -69 26 -69 -14 0 -35 37 -72 71 -72 34 0 69 39 69 76 0 35 -8 47 -37
63 -26 13 -43 14 -62 2z m30 -78 c32 -19 33 -36 2 -41 -23 -3 -53 22 -53 44 0
19 16 18 51 -3z"/>
<path d="M1623 465 c-25 -18 -37 -55 -17 -55 8 0 14 6 14 14 0 22 28 39 55 32
37 -9 31 -23 -20 -48 -49 -24 -55 -36 -27 -61 25 -23 54 -21 86 4 34 27 35 71
1 104 -27 28 -61 32 -92 10z m97 -67 c0 -18 -31 -48 -50 -48 -9 0 -21 5 -28
12 -9 9 -3 17 26 33 38 22 52 23 52 3z"/>
<path d="M811 369 c-31 -34 -46 -59 -38 -59 8 0 33 21 56 48 l40 47 1 -67 c0
-37 5 -70 10 -73 6 -4 10 23 10 73 0 103 -12 108 -79 31z"/>
<path d="M1467 392 c-18 -19 -23 -42 -9 -42 4 0 13 9 20 20 14 23 54 26 71 6
10 -12 3 -18 -43 -32 -31 -10 -56 -22 -56 -26 0 -5 11 -20 26 -34 19 -20 31
-24 52 -20 58 14 78 72 41 120 -25 32 -77 36 -102 8z m103 -67 c0 -23 -49 -51
-68 -39 -27 18 -24 31 10 41 47 15 58 15 58 -2z"/>
<path d="M972 379 c-12 -5 -22 -13 -22 -19 0 -13 6 -13 31 1 16 8 26 7 45 -6
31 -20 33 -49 2 -42 -13 3 -40 9 -60 12 -35 7 -38 5 -38 -17 0 -42 27 -68 70
-68 46 0 70 26 70 76 0 48 -50 81 -98 63z m31 -80 c41 -11 47 -23 18 -39 -24
-12 -48 -4 -61 21 -18 33 -15 34 43 18z"/>
<path d="M1393 329 c10 -49 9 -53 -13 -71 -25 -20 -21 -35 7 -23 10 5 24 7 31
6 14 -2 14 17 -1 83 -17 69 -38 74 -24 5z"/>
<path d="M1120 331 c-38 -38 -39 -78 -4 -120 22 -27 32 -31 74 -31 55 0 57 3
62 115 l3 60 -53 3 c-47 3 -56 0 -82 -27z m101 -66 c-2 -38 -4 -71 -6 -73 -2
-2 -21 2 -43 7 -43 12 -52 25 -52 74 0 44 26 69 69 65 l36 -3 -4 -70z"/>
</g>
</svg>
