<?xml version="1.0" encoding="UTF-8"?>
<svg width="171px" height="81px" viewBox="0 0 171 81" version="1.1" xmlns="http://www.w3.org/2000/svg" xmlns:xlink="http://www.w3.org/1999/xlink">
    <title>Group 31</title>
    <defs>
        <path d="M147.919632,1.134 C135.056632,3.26 123.006632,7.799 111.351632,13.502 L111.351632,13.502 C110.670632,13.835 109.961632,14.108 108.895632,14.568 L108.895632,14.568 C109.823632,11.819 110.613632,9.482 111.401632,7.146 L111.401632,7.146 C111.235632,7.097 111.069632,7.048 110.902632,7.001 L110.902632,7.001 C110.046632,9.275 109.251632,11.575 108.296632,13.807 L108.296632,13.807 C107.976632,14.557 107.378632,15.356 106.689632,15.755 L106.689632,15.755 C100.872632,19.125 95.0106323,22.419 89.1416323,25.698 L89.1416323,25.698 C88.5386323,26.036 87.7976323,26.126 87.1206323,26.331 L87.1206323,26.331 C87.2186323,25.539 87.5386323,25.075 87.8386323,24.597 L87.8386323,24.597 C88.6846323,23.258 89.5496323,21.93 90.3406323,20.56 L90.3406323,20.56 C90.5036323,20.278 90.3786323,19.83 90.3866323,19.458 L90.3866323,19.458 C89.9986323,19.498 89.5436323,19.424 89.2386323,19.606 L89.2386323,19.606 C88.7986323,19.868 88.4016323,20.267 88.1066323,20.691 L88.1066323,20.691 C87.0196323,22.25 85.9986323,23.856 84.9176323,25.419 L84.9176323,25.419 C84.6276323,25.839 84.2526323,26.441 83.8496323,26.498 L83.8496323,26.498 C81.3846323,26.859 78.9006323,27.086 76.0936323,27.396 L76.0936323,27.396 C78.1706323,24.848 80.0276323,22.685 81.7516323,20.421 L81.7516323,20.421 C84.0676323,17.378 86.3756323,14.31 87.5656323,10.594 L87.5656323,10.594 C88.1646323,8.723 87.2676323,7.412 85.3296323,7.705 L85.3296323,7.705 C82.9936323,8.058 80.7196323,9.051 79.4386323,11.075 L79.4386323,11.075 C76.7276323,15.358 74.0426323,19.696 71.8346323,24.248 L71.8346323,24.248 C70.3876323,27.231 68.7506323,28.724 65.2666323,29.241 L65.2666323,29.241 C53.5036323,30.986 41.9196323,33.626 30.6886323,37.669 L30.6886323,37.669 C23.6566323,40.202 16.7036323,42.817 10.8666323,47.715 L10.8666323,47.715 C5.65663231,52.086 1.69863231,57.273 0.263632314,64.027 L0.263632314,64.027 C-0.873367686,69.368 1.61763231,76.964 8.70563231,79.046 L8.70563231,79.046 C16.0616323,81.206 23.3406323,80.545 30.3166323,77.948 L30.3166323,77.948 C40.5246323,74.144 47.9376323,66.69 53.8106323,57.797 L53.8106323,57.797 C57.4686323,52.256 60.4036323,46.241 63.7266323,40.474 L63.7266323,40.474 C64.6436323,38.883 65.6536323,37.305 66.8656323,35.937 L66.8656323,35.937 C68.1546323,34.48 69.7436323,33.29 71.1816323,31.962 L71.1816323,31.962 C72.4256323,30.817 73.4616323,29.046 74.9106323,28.605 L74.9106323,28.605 C77.6396323,27.774 80.6006323,27.698 83.5176323,27.3 L83.5176323,27.3 C83.4306323,29.031 82.8306323,30.033 81.5156323,30.738 L81.5156323,30.738 C80.6716323,31.19 80.0366323,32.028 79.3066323,32.693 L79.3066323,32.693 C80.0866323,32.293 80.8676323,31.896 81.6466323,31.496 L81.6466323,31.496 C80.1746323,33.527 79.3086323,36.175 76.6256323,36.882 L76.6256323,36.882 C76.4326323,36.711 76.2416323,36.541 76.0486323,36.37 L76.0486323,36.37 C76.7046323,35.492 77.3606323,34.615 78.0156323,33.737 L78.0156323,33.737 C75.6656323,34.741 75.1286323,36.276 76.5976323,37.801 L76.5976323,37.801 C75.5286323,39.213 74.4606323,40.628 73.3916323,42.043 L73.3916323,42.043 C73.9346323,41.701 74.4876323,41.355 75.1976323,40.91 L75.1976323,40.91 C75.1976323,41.868 75.3906323,42.67 75.1576323,43.32 L75.1576323,43.32 C74.6086323,44.847 75.5506323,45.724 76.5146323,46.356 L76.5146323,46.356 C77.6046323,47.072 78.4616323,46.145 79.2236323,45.388 L79.2236323,45.388 C79.4306323,45.181 79.6736323,45.011 79.9086323,44.821 L79.9086323,44.821 C81.2056323,46.712 81.9846323,46.767 83.5606323,45.212 L83.5606323,45.212 C84.4626323,44.321 85.4016323,43.465 86.3246323,42.594 L86.3246323,42.594 C86.6766323,43.419 86.6406323,44.001 86.6836323,44.577 L86.6836323,44.577 C86.7916323,46.004 87.6636323,46.49 88.8036323,45.699 L88.8036323,45.699 C89.2416323,45.396 89.5046323,44.841 89.8476323,44.401 L89.8476323,44.401 C89.8316323,44.417 89.8156323,44.433 89.7986323,44.451 L89.7986323,44.451 C89.8106323,44.436 89.8226323,44.421 89.8336323,44.407 L89.8336323,44.407 C89.1816323,44.764 88.5296323,45.12 87.8796323,45.476 L87.8796323,45.476 C86.8986323,43.852 87.1176323,42.058 88.3916323,40.305 L88.3916323,40.305 C89.6946323,38.512 90.9616323,36.692 92.2176323,34.863 L92.2176323,34.863 C92.4656323,34.501 92.5896323,34.056 92.7706323,33.65 L92.7706323,33.65 C92.6306323,33.52 92.4896323,33.392 92.3476323,33.265 L92.3476323,33.265 C91.6186323,33.873 90.8886323,34.482 90.1226323,35.123 L90.1226323,35.123 C89.4496323,34.86 88.6846323,34.562 87.7506323,34.197 L87.7506323,34.197 C92.3796323,32.075 96.9566323,29.973 101.533632,27.874 L101.533632,27.874 C101.645632,27.937 101.757632,28.001 101.871632,28.065 L101.871632,28.065 C100.076632,31.712 98.2836323,35.361 96.4876323,39.007 L96.4876323,39.007 C96.3806323,39.005 96.2766323,39.001 96.1696323,38.998 L96.1696323,38.998 L96.1696323,32.347 C95.9796323,32.311 95.7876323,32.275 95.5966323,32.239 L95.5966323,32.239 C95.2166323,35.843 93.5696323,38.898 91.7726323,41.887 L91.7726323,41.887 C92.9146323,40.343 94.0546323,38.8 95.5086323,36.833 L95.5086323,36.833 C95.2566323,39.016 95.1456323,40.884 94.7476323,42.689 L94.7476323,42.689 C94.6676323,43.053 93.5036323,43.357 92.8336323,43.365 L92.8336323,43.365 C92.0786323,43.374 91.3556323,42.993 91.7816323,41.946 L91.7816323,41.946 C91.1336323,42.766 90.4846323,43.585 89.8336323,44.407 L89.8336323,44.407 C89.8396323,44.404 89.8446323,44.4 89.8506323,44.398 L89.8506323,44.398 C89.8496323,44.398 89.8486323,44.4 89.8476323,44.401 L89.8476323,44.401 C90.5636323,43.683 91.3266323,43.577 92.3516323,43.93 L92.3516323,43.93 C93.5916323,44.358 94.8226323,44.308 95.6586323,42.92 L95.6586323,42.92 C97.0106323,40.673 98.4106323,38.453 99.8846323,36.285 L99.8846323,36.285 C100.878632,34.821 102.177632,33.652 103.818632,32.973 L103.818632,32.973 C103.958632,33.079 104.099632,33.183 104.241632,33.288 L104.241632,33.288 C102.395632,36.774 100.547632,40.258 98.7026323,43.743 L98.7026323,43.743 C98.8506323,43.824 98.9976323,43.905 99.1446323,43.987 L99.1446323,43.987 C99.5376323,43.275 99.9346323,42.567 100.319632,41.852 L100.319632,41.852 C101.792632,39.109 103.275632,36.372 104.704632,33.607 L104.704632,33.607 C104.859632,33.304 104.814632,32.592 104.628632,32.485 L104.628632,32.485 C104.282632,32.289 103.598632,32.206 103.341632,32.419 L103.341632,32.419 C101.977632,33.556 100.677632,34.776 99.4086323,36.019 L99.4086323,36.019 C99.0136323,36.406 98.7816323,36.96 98.4746323,37.439 L98.4746323,37.439 C99.5986323,34.448 100.893632,31.611 102.284632,28.824 L102.284632,28.824 C102.662632,28.067 103.193632,27.123 103.891632,26.83 L103.891632,26.83 C109.439632,24.501 115.005632,22.204 120.648632,20.12 L120.648632,20.12 C123.561632,19.044 126.605632,18.172 129.816632,18.796 L129.816632,18.796 C132.595632,19.336 134.147632,21.467 133.466632,24.229 L133.466632,24.229 C133.069632,25.844 132.457632,27.482 131.586632,28.89 L131.586632,28.89 C129.080632,32.934 126.390632,36.866 123.780632,40.845 L123.780632,40.845 C123.613632,41.098 123.500632,41.385 123.360632,41.656 L123.360632,41.656 C123.784632,41.653 124.041632,41.536 124.177632,41.337 L124.177632,41.337 C126.525632,37.944 128.963632,34.607 131.154632,31.116 L131.154632,31.116 C132.542632,28.904 134.176632,26.807 134.185632,23.868 L134.185632,23.868 C134.194632,20.934 133.027632,18.701 130.106632,18.22 L130.106632,18.22 C128.276632,17.92 126.211632,17.795 124.490632,18.344 L124.490632,18.344 C119.261632,20.012 114.142632,22.032 108.993632,23.944 L108.993632,23.944 C107.359632,24.552 105.763632,25.256 103.855632,26.037 L103.855632,26.037 C105.344632,22.823 106.607632,19.968 107.996632,17.18 L107.996632,17.18 C108.390632,16.39 109.022632,15.501 109.776632,15.143 L109.776632,15.143 C114.459632,12.915 119.144632,10.661 123.950632,8.716 L123.950632,8.716 C134.247632,4.551 144.925632,1.76 156.027632,0.932 L156.027632,0.932 C159.422632,0.679 162.888632,1 166.290632,1.365 L166.290632,1.365 C167.387632,1.484 169.020632,2.418 169.241632,3.28 L169.241632,3.28 C169.463632,4.144 168.417632,5.558 167.601632,6.425 L167.601632,6.425 C164.625632,9.582 160.668632,11.319 156.962632,13.406 L156.962632,13.406 C154.992632,14.516 152.985632,15.561 150.996632,16.634 L150.996632,16.634 C151.086632,16.796 151.178632,16.958 151.270632,17.122 L151.270632,17.122 C155.738632,14.622 160.260632,12.215 164.644632,9.577 L164.644632,9.577 C166.338632,8.559 167.852632,7.139 169.206632,5.679 L169.206632,5.679 C170.944632,3.801 170.432632,2.003 168.073632,1.102 L168.073632,1.102 C167.189632,0.765 166.252632,0.512 165.315632,0.38 L165.315632,0.38 C163.415632,0.114 161.520632,0 159.629632,0 L159.629632,0 C155.710632,0 151.809632,0.491 147.919632,1.134 L147.919632,1.134 Z M70.5946323,28.029 C71.8716323,25.422 72.9696323,22.915 74.2976323,20.537 L74.2976323,20.537 C75.8676323,17.721 77.5796323,14.979 79.3376323,12.276 L79.3376323,12.276 C80.5466323,10.414 82.2096323,8.979 84.4146323,8.43 L84.4146323,8.43 C85.1006323,8.259 86.1686323,8.32 86.5876323,8.744 L86.5876323,8.744 C86.9796323,9.137 87.0056323,10.28 86.7276323,10.877 L86.7276323,10.877 C85.8376323,12.79 84.8966323,14.718 83.6776323,16.428 L83.6776323,16.428 C81.3776323,19.651 78.9116323,22.758 76.4316323,25.849 L76.4316323,25.849 C75.1176323,27.487 74.4606323,28.062 71.8246323,28.062 L71.8246323,28.062 C71.4556323,28.062 71.0486323,28.051 70.5946323,28.029 L70.5946323,28.029 Z M90.6786323,26.219 C90.5746323,26.133 90.4586323,26.061 90.0356323,25.763 L90.0356323,25.763 C95.8306323,22.536 101.433632,19.414 107.037632,16.291 L107.037632,16.291 C107.186632,16.424 107.337632,16.556 107.484632,16.689 L107.484632,16.689 C105.897632,19.943 104.465632,23.285 102.632632,26.394 L102.632632,26.394 C102.056632,27.373 100.446632,27.801 99.2496323,28.346 L99.2496323,28.346 C94.9186323,30.32 90.5496323,32.212 86.2186323,34.185 L86.2186323,34.185 C85.1456323,34.673 84.6976323,34.515 84.3066323,33.321 L84.3066323,33.321 C83.3126323,30.276 83.2686323,30.025 86.0836323,28.403 L86.0836323,28.403 C87.5726323,27.544 89.2386323,26.999 90.7956323,26.325 L90.7956323,26.325 C90.8406323,26.364 90.8586323,26.38 90.8596323,26.38 L90.8596323,26.38 C90.8626323,26.38 90.7726323,26.297 90.6786323,26.219 L90.6786323,26.219 Z M85.2336323,25.977 C86.4896323,24.101 87.7456323,22.223 89.0036323,20.346 L89.0036323,20.346 C89.1996323,20.48 89.3976323,20.614 89.5946323,20.748 L89.5946323,20.748 C88.3146323,22.611 87.0336323,24.473 85.7546323,26.336 L85.7546323,26.336 C85.5796323,26.217 85.4066323,26.096 85.2336323,25.977 L85.2336323,25.977 Z M67.3066323,33.952 C68.1276323,32.482 68.7536323,30.837 69.8436323,29.61 L69.8436323,29.61 C70.4786323,28.894 71.8626323,28.846 72.9096323,28.498 L72.9096323,28.498 C73.0346323,28.702 73.1596323,28.903 73.2846323,29.106 L73.2846323,29.106 L67.7146323,34.349 C67.5786323,34.217 67.4416323,34.084 67.3066323,33.952 L67.3066323,33.952 Z M9.46263231,78.656 C3.90063231,77.142 1.18363231,73.068 0.702632314,67.513 L0.702632314,67.513 C0.259632314,62.39 2.63163231,58.208 5.52063231,54.266 L5.52063231,54.266 C11.3636323,46.289 19.7726323,42.153 28.7716323,39.041 L28.7716323,39.041 C34.6096323,37.019 40.5136323,35.114 46.5036323,33.624 L46.5036323,33.624 C52.9016323,32.031 59.4346323,30.977 65.9146323,29.711 L65.9146323,29.711 C66.8206323,29.534 67.7546323,29.495 68.7746323,29.38 L68.7746323,29.38 C66.3736323,36.2 61.5246323,40.311 55.7726323,43.807 L55.7726323,43.807 C56.3796323,43.641 57.0876323,43.623 57.5686323,43.281 L57.5686323,43.281 C59.5036323,41.908 61.3676323,40.437 63.5456323,39.18 L63.5456323,39.18 C62.4356323,41.301 61.3396323,43.429 60.2126323,45.54 L60.2126323,45.54 C56.7426323,52.028 53.2206323,58.504 48.2616323,64.003 L48.2616323,64.003 C42.0866323,70.854 35.1586323,76.682 25.8166323,78.725 L25.8166323,78.725 C23.0176323,79.337 20.2096323,79.693 17.4036323,79.694 L17.4036323,79.694 C14.7536323,79.694 12.1046323,79.376 9.46263231,78.656 L9.46263231,78.656 Z M79.8696323,35.393 C80.8316323,34.183 81.7916323,32.972 83.0186323,31.427 L83.0186323,31.427 C83.3386323,32.768 84.0836323,34.359 83.7226323,34.67 L83.7226323,34.67 C82.8336323,35.439 81.4356323,35.621 80.2426323,36.038 L80.2426323,36.038 C80.1186323,35.823 79.9946323,35.608 79.8696323,35.393 L79.8696323,35.393 Z M80.8276323,44.282 C82.2566323,40.739 83.4156323,36.937 87.4596323,35.353 L87.4596323,35.353 C87.9576323,35.158 88.6106323,35.356 89.1926323,35.371 L89.1926323,35.371 C89.1126323,35.978 89.1526323,36.633 88.9286323,37.182 L88.9286323,37.182 C88.5556323,38.099 88.1416323,39.054 87.5186323,39.807 L87.5186323,39.807 C85.9586323,41.689 84.2806323,43.475 82.6236323,45.276 L82.6236323,45.276 C82.4276323,45.489 82.0716323,45.555 81.5046323,45.825 L81.5046323,45.825 C81.2506323,45.279 80.6836323,44.637 80.8276323,44.282 L80.8276323,44.282 Z M76.1636323,45.028 C74.4746323,41.923 76.4326323,37.704 79.9266323,36.955 L79.9266323,36.955 C81.0136323,36.722 82.1036323,36.51 83.1916323,36.29 L83.1916323,36.29 C83.3626323,36.533 83.5336323,36.775 83.7046323,37.018 L83.7046323,37.018 C81.8936323,39.824 80.1416323,42.669 78.2416323,45.41 L78.2416323,45.41 C77.9506323,45.829 77.6426323,46.012 77.3426323,46.012 L77.3426323,46.012 C76.9086323,46.012 76.4906323,45.629 76.1636323,45.028 L76.1636323,45.028 Z M73.2856323,42.11 L73.3186323,42.139 C73.3436323,42.107 73.3676323,42.075 73.3916323,42.043 L73.3916323,42.043 C73.3566323,42.066 73.3206323,42.087 73.2856323,42.11 L73.2856323,42.11 Z" id="path-1"></path>
        <path d="M4.917,2.707 C5.022,1.908 5.108,1.236 5.195,0.565 L5.195,0.565 C4.842,0.807 4.658,1.09 4.635,1.385 L4.635,1.385 C4.439,3.814 3.374,5.808 1.707,7.548 L1.707,7.548 C1.246,8.028 0.991,8.704 0.64,9.291 L0.64,9.291 C0.654,9.277 0.669,9.263 0.682,9.25 L0.682,9.25 C0.452,10 0.227,10.744 0,11.488 L0,11.488 C0.209,11.579 0.417,11.669 0.626,11.76 L0.626,11.76 C1.076,11.287 1.665,10.884 1.952,10.327 L1.952,10.327 C2.774,8.736 3.467,7.081 4.221,5.455 L4.221,5.455 C5.169,3.408 6.5,1.767 8.865,1.186 L8.865,1.186 C8.452,2.167 7.816,2.963 7.244,3.803 L7.244,3.803 C6.303,5.185 5.258,6.526 4.547,8.022 L4.547,8.022 C4.209,8.734 4.542,9.765 4.572,10.651 L4.572,10.651 C5.327,10.303 6.078,9.952 6.834,9.607 L6.834,9.607 C6.92,9.569 7.022,9.568 7.113,9.55 L7.113,9.55 C8.308,12.495 8.391,12.537 9.867,10.821 L9.867,10.821 C9.364,10.997 8.955,11.141 8.54,11.286 L8.54,11.286 C7.49,9.308 8.325,7.745 9.359,6.214 L9.359,6.214 C10.361,4.729 11.355,3.24 12.353,1.754 L12.353,1.754 C12.199,1.644 12.045,1.534 11.891,1.425 L11.891,1.425 C10.824,2.878 9.695,4.29 8.706,5.795 L8.706,5.795 C7.688,7.347 6.914,9.088 4.665,10.128 L4.665,10.128 C4.952,9.047 4.98,8.265 5.341,7.693 L5.341,7.693 C6.383,6.058 7.595,4.533 8.663,2.914 L8.663,2.914 C9.157,2.168 9.473,1.305 9.87,0.494 L9.87,0.494 C9.666,0.33 9.461,0.165 9.257,0 L9.257,0 C7.848,0.88 6.437,1.76 4.917,2.707 L4.917,2.707 Z M2.481,7.561 C2.555,7.599 2.627,7.636 2.7,7.673 L2.7,7.673 C2.143,8.734 1.585,9.796 1.028,10.857 L1.028,10.857 C0.914,10.835 0.802,10.812 0.688,10.788 L0.688,10.788 C0.688,10.272 0.688,9.759 0.686,9.247 L0.686,9.247 C1.284,8.686 1.883,8.122 2.481,7.561 L2.481,7.561 Z" id="path-3"></path>
        <path d="M6.375,1.647 C4.221,4.438 2.152,7.295 0,10.195 L0,10.195 C0.621,9.877 1.273,9.542 2.001,9.169 L2.001,9.169 C2.69,10.104 3.705,11.052 4.845,10.156 L4.845,10.156 C6.54,8.826 7.997,7.191 9.547,5.677 L9.547,5.677 C9.354,5.765 9.149,5.839 9.006,5.979 L9.006,5.979 C8.03,6.939 7.192,8.1 6.073,8.839 L6.073,8.839 C5.311,9.342 3.762,9.751 3.283,9.349 L3.283,9.349 C2.358,8.572 3.269,7.634 3.965,6.857 L3.965,6.857 C5.413,5.243 6.81,3.581 8.166,1.89 L8.166,1.89 C8.501,1.472 8.6,0.864 8.808,0.344 L8.808,0.344 C8.651,0.23 8.494,0.115 8.337,0 L8.337,0 C7.676,0.543 6.885,0.986 6.375,1.647 L6.375,1.647 Z M9.547,5.677 C9.591,5.657 9.634,5.637 9.675,5.614 L9.675,5.614 L9.642,5.584 C9.611,5.614 9.578,5.646 9.547,5.677 L9.547,5.677 Z" id="path-5"></path>
        <path d="M13.211,2.848 C11.57,5.243 9.883,7.61 8.125,9.92 L8.125,9.92 C5.921,12.817 3.598,15.625 1.389,18.52 L1.389,18.52 C0.805,19.286 0.457,20.232 0,21.096 L0,21.096 C0.136,21.168 0.273,21.241 0.41,21.314 L0.41,21.314 C1.11,20.853 2.221,20.719 1.783,19.341 L1.783,19.341 C1.755,19.247 2.351,18.953 2.657,18.753 L2.657,18.753 C2.839,18.232 2.912,17.631 3.223,17.205 L3.223,17.205 C3.927,16.234 4.747,15.35 5.519,14.429 L5.519,14.429 L6.905,12.817 C8.954,10.001 11.046,7.216 13.028,4.354 L13.028,4.354 C13.932,3.05 14.888,1.69 14.781,-2.84217094e-14 L14.781,-2.84217094e-14 C14.188,0.933 13.813,1.968 13.211,2.848 L13.211,2.848 Z" id="path-7"></path>
        <path d="M0.059,7.536 C0.327,7.616 0.731,7.67 0.757,7.797 L0.757,7.797 C1.086,9.443 1.873,9.055 2.71,8.25 L2.71,8.25 C3.193,7.788 3.585,7.231 4.05,6.678 L4.05,6.678 C5.35,8.618 6.059,8.875 7.694,8.097 L7.694,8.097 C7.498,8.047 7.361,7.985 7.221,7.978 L7.221,7.978 C4.939,7.872 4.672,7.388 5.898,5.435 L5.898,5.435 C6.553,4.391 7.276,3.39 7.971,2.371 L7.971,2.371 L7.587,2.007 C5.181,3.407 4.475,6.692 1.324,8.036 L1.324,8.036 C2.414,5.133 3.36,2.612 4.308,0.089 L4.308,0.089 C4.222,0.059 4.135,0.03 4.049,0 L4.049,0 C2.719,2.513 1.388,5.024 0.059,7.536 L0.059,7.536 Z" id="path-9"></path>
        <path d="M6.91833107,0.158 C5.35133107,1.373 3.83933107,2.734 2.60333107,4.278 L2.60333107,4.278 C1.53033107,5.62 0.73733107,7.233 0.0713310701,8.832 L0.0713310701,8.832 C-0.16966893,9.408 0.25533107,10.312 0.52533107,11.01 L0.52533107,11.01 C0.59033107,11.176 1.40933107,11.293 1.60433107,11.12 L1.60433107,11.12 C2.13233107,10.658 2.52533107,10.047 2.96233107,9.487 L2.96233107,9.487 C2.32933107,9.819 1.68233107,10.155 0.75633107,10.638 L0.75633107,10.638 C0.86133107,9.721 0.73733107,9.001 1.02833107,8.547 L1.02833107,8.547 C2.55733107,6.158 4.11633107,3.779 5.84333107,1.534 L5.84333107,1.534 C6.28833107,0.957 7.38633107,0.64 8.16433107,0.674 L8.16433107,0.674 C8.50433107,0.688 8.79333107,1.886 9.10433107,2.547 L9.10433107,2.547 C9.32033107,1.867 9.51133107,0.841 9.10833107,0.486 L9.10833107,0.486 C8.78433107,0.199 8.10433107,0 7.56133107,0 L7.56133107,0 C7.29433107,0 7.05933107,0.048 6.91833107,0.158 L6.91833107,0.158 Z" id="path-11"></path>
        <path d="M0.044956092,6.69 C-0.120043908,7.059 0.196956092,7.967 0.543956092,8.155 L0.543956092,8.155 C0.922956092,8.359 1.68295609,8.147 2.12095609,7.87 L2.12095609,7.87 C2.66895609,7.526 3.05695609,6.928 3.51895609,6.434 L3.51895609,6.434 C5.88595609,9.002 5.92195609,9.013 7.63295609,7.684 L7.63295609,7.684 C6.37695609,7.95 5.01095609,7.911 4.80995609,6.52 L4.80995609,6.52 C4.67495609,5.592 5.47495609,4.531 5.92595609,3.346 L5.92595609,3.346 C4.31095609,4.911 2.83495609,6.338 1.18595609,7.937 L1.18595609,7.937 C0.344956092,6.063 1.40195609,4.97 1.94695609,3.81 L1.94695609,3.81 C2.51495609,2.604 3.23095609,1.469 3.88195609,0.301 L3.88195609,0.301 C3.69395609,0.202 3.50395609,0.101 3.31595609,0 L3.31595609,0 C2.20895609,2.223 1.05695609,4.425 0.044956092,6.69 L0.044956092,6.69 Z" id="path-13"></path>
        <path d="M4.094,0.59 C2.728,3.047 1.4,5.525 0.062,7.996 L0.062,7.996 C0.389,7.853 0.699,7.718 0.719,7.709 L0.719,7.709 C1.417,8.23 2.235,9.047 2.403,8.93 L2.403,8.93 C3.033,8.491 3.491,7.807 3.997,7.188 L3.997,7.188 C3.461,7.516 2.904,7.853 2.133,8.323 L2.133,8.323 C1.831,4.975 4.071,2.874 5.166,0 L5.166,0 C4.575,0.315 4.209,0.382 4.094,0.59 L4.094,0.59 Z M3.997,7.188 C4.055,7.153 4.112,7.118 4.169,7.083 L4.169,7.083 C4.167,7.082 4.121,7.041 4.121,7.04 L4.121,7.04 C4.079,7.088 4.038,7.138 3.997,7.188 L3.997,7.188 Z" id="path-15"></path>
        <path d="M5.427,1.688 C4.105,2.982 2.834,4.327 1.541,5.652 L1.541,5.652 C1.08,6.19 0.618,6.726 0.157,7.263 L0.157,7.263 C0.104,7.637 0.053,8.009 5.68434189e-14,8.382 L5.68434189e-14,8.382 C2.08,6.176 4.163,3.971 6.244,1.766 L6.244,1.766 C6.336,1.83 6.43,1.895 6.523,1.959 L6.523,1.959 C6.279,2.67 6.035,3.382 5.791,4.093 L5.791,4.093 C5.922,4.143 6.054,4.193 6.185,4.244 L6.185,4.244 C6.774,2.941 7.362,1.636 7.949,0.332 L7.949,0.332 C7.781,0.222 7.613,0.111 7.443,0 L7.443,0 C6.768,0.56 6.05,1.077 5.427,1.688 L5.427,1.688 Z" id="path-17"></path>
        <path d="M0,8.98 C2.078,6.06 4.156,3.141 6.234,0.221 L6.234,0.221 C6.128,0.148 6.021,0.075 5.914,2.84217094e-14 L5.914,2.84217094e-14 C3.802,2.901 1.068,5.378 0,8.98 L0,8.98 Z" id="path-19"></path>
    </defs>
    <g id="Page-1" stroke="none" stroke-width="1" fill="none" fill-rule="evenodd">
        <g id="ND_GradCertificate_Client_Partner_logos" transform="translate(-89.000000, -406.000000)">
            <g id="Group-31" transform="translate(89.000000, 406.000000)">
                <g id="Group-3">
                    <mask id="mask-2" fill="white">
                        <use xlink:href="#path-1"></use>
                    </mask>
                    <g id="Clip-2"></g>
                    <polygon id="Fill-1" fill="#2D3D49" mask="url(#mask-2)" points="-5.00036769 85.341 175.238632 85.341 175.238632 -5 -5.00036769 -5"></polygon>
                </g>
                <g id="Group-6" transform="translate(134.335632, 30.112000)">
                    <mask id="mask-4" fill="white">
                        <use xlink:href="#path-3"></use>
                    </mask>
                    <g id="Clip-5"></g>
                    <polygon id="Fill-4" fill="#2D3D49" mask="url(#mask-4)" points="-5.001 16.968 17.353 16.968 17.353 -5 -5.001 -5"></polygon>
                </g>
                <g id="Group-9" transform="translate(63.643632, 36.525000)">
                    <mask id="mask-6" fill="white">
                        <use xlink:href="#path-5"></use>
                    </mask>
                    <g id="Clip-8"></g>
                    <polygon id="Fill-7" fill="#2D3D49" mask="url(#mask-6)" points="-5 15.516 14.675 15.516 14.675 -5 -5 -5"></polygon>
                </g>
                <g id="Group-12" transform="translate(125.445632, 21.168000)">
                    <mask id="mask-8" fill="white">
                        <use xlink:href="#path-7"></use>
                    </mask>
                    <g id="Clip-11"></g>
                    <polygon id="Fill-10" fill="#2D3D49" mask="url(#mask-8)" points="-5.001 26.315 19.789 26.315 19.789 -4.999 -5.001 -4.999"></polygon>
                </g>
                <g id="Group-15" transform="translate(108.300632, 33.612000)">
                    <mask id="mask-10" fill="white">
                        <use xlink:href="#path-9"></use>
                    </mask>
                    <g id="Clip-14"></g>
                    <polygon id="Fill-13" fill="#2D3D49" mask="url(#mask-10)" points="-5.001 13.943 12.97 13.943 12.97 -5 -5.001 -5"></polygon>
                </g>
                <g id="Group-18" transform="translate(101.155301, 32.704000)">
                    <mask id="mask-12" fill="white">
                        <use xlink:href="#path-11"></use>
                    </mask>
                    <g id="Clip-17"></g>
                    <polygon id="Fill-16" fill="#2D3D49" mask="url(#mask-12)" points="-4.99966893 16.205 14.3443311 16.205 14.3443311 -5.001 -4.99966893 -5.001"></polygon>
                </g>
                <g id="Group-21" transform="translate(146.577676, 31.352000)">
                    <mask id="mask-14" fill="white">
                        <use xlink:href="#path-13"></use>
                    </mask>
                    <g id="Clip-20"></g>
                    <polygon id="Fill-19" fill="#2D3D49" mask="url(#mask-14)" points="-5.00004391 13.559 12.6339561 13.559 12.6339561 -5 -5.00004391 -5"></polygon>
                </g>
                <g id="Group-24" transform="translate(104.179632, 34.089000)">
                    <mask id="mask-16" fill="white">
                        <use xlink:href="#path-15"></use>
                    </mask>
                    <g id="Clip-23"></g>
                    <polygon id="Fill-22" fill="#2D3D49" mask="url(#mask-16)" points="-4.999 13.941 10.167 13.941 10.167 -4.999 -4.999 -4.999"></polygon>
                </g>
                <g id="Group-27" transform="translate(130.809632, 28.334000)">
                    <mask id="mask-18" fill="white">
                        <use xlink:href="#path-17"></use>
                    </mask>
                    <g id="Clip-26"></g>
                    <polygon id="Fill-25" fill="#2D3D49" mask="url(#mask-18)" points="-5 13.382 12.95 13.382 12.95 -5 -5 -5"></polygon>
                </g>
                <g id="Group-30" transform="translate(129.886632, 33.682000)">
                    <mask id="mask-20" fill="white">
                        <use xlink:href="#path-19"></use>
                    </mask>
                    <g id="Clip-29"></g>
                    <polygon id="Fill-28" fill="#2D3D49" mask="url(#mask-20)" points="-5 13.98 11.234 13.98 11.234 -5 -5 -5"></polygon>
                </g>
            </g>
        </g>
    </g>
</svg>