<?xml version="1.0" encoding="UTF-8"?>
<svg width="378px" height="72px" viewBox="0 0 378 72" version="1.1" xmlns="http://www.w3.org/2000/svg" xmlns:xlink="http://www.w3.org/1999/xlink">
    <title>logo</title>
    <g id="R2" stroke="none" stroke-width="1" fill="none" fill-rule="evenodd">
        <g id="ND_GradCertificate_Client_Partner_logos_1440-" transform="translate(-532.000000, -108.000000)">
            <g id="Group" transform="translate(524.000000, 108.000600)">
                <g id="logo" transform="translate(8.637765, 0.000000)">
                    <path d="M5.47653179,16.632 L23.50921,6.124 L23.50921,35.526 C23.5312524,46.502 30.9855877,56.074 41.6380732,58.802 L41.8745279,58.802 L41.7322543,58.99 C41.5078227,59.31 41.2533333,59.61 40.9768015,59.886 C40.0149518,60.824 38.972948,61.676 37.8608092,62.43 C36.7346435,63.194 35.5323314,63.84 34.2739114,64.362 C33.0054721,64.884 31.6949518,65.294 30.3563776,65.588 C29.0498651,65.848 27.7213102,65.974 26.3907514,65.9645516 L26.2484778,65.9645516 C24.8217341,65.9645516 23.3989981,65.822 22.0003083,65.54 C20.6597303,65.246 19.34921,64.836 18.0807707,64.316 C16.8383815,63.794 15.6521002,63.146 14.5399615,62.384 C13.4198073,61.624 12.3757996,60.756 11.4239692,59.792 C9.51630058,57.868 7.99337187,55.596 6.93934489,53.102 C6.41834297,51.836 6.00755299,50.528 5.71298651,49.19 C5.46851638,47.79 5.35830443,46.37 5.38235067,44.95 L5.38235067,16.68 L5.47653179,16.632 Z M50.7976879,53.666 C51.7976108,50.932 52.3246243,48.048 52.3546821,45.138 L52.3546821,14.088 L66.0450096,6.266 L66.0450096,35.668 C66.0430058,36.934 65.916763,38.196 65.6682852,39.436 C65.4198073,40.632 65.0571098,41.8 64.5821965,42.924 C63.6243545,45.12 62.263738,47.118 60.5684778,48.814 C59.7168401,49.656 58.7850482,50.414 57.7831214,51.076 C56.7811946,51.732 55.7231599,52.3 54.6210405,52.772 C53.5008863,53.266 52.328632,53.63 51.1263198,53.856 L50.7015029,53.856 L50.7976879,53.666 Z M0,13.758 L0,44.996 C0,59.462 11.7085164,71.21 26.2003854,71.288 L26.2945665,71.288 C30.8833911,71.278 35.3900578,70.078 39.3717148,67.802 L58.5385742,56.824 C66.4618112,52.734 71.4353757,44.57 71.4273603,35.668 L71.4273603,3.11 C71.4353757,3.008 71.377264,2.914 71.2850867,2.874 L66.6121002,0.14 L66.327553,0.14 L47.114605,10.978 C47.0224277,11.018 46.964316,11.112 46.9723314,11.214 L46.9723314,45.138 C46.9743353,46.546 46.8320617,47.952 46.5475145,49.332 C46.2609634,50.686 45.8501734,52.01 45.3211561,53.29 C45.2309827,53.534 45.1187669,53.77 44.9905202,53.996 L44.9905202,54.09 L44.8482466,54.09 C44.4635067,54.08 44.0827746,54.016 43.7160694,53.902 L43.5737958,53.902 C41.2312909,53.368 39.0070135,52.41 37.0111753,51.076 C36.0112524,50.398 35.0774566,49.624 34.2258189,48.766 C33.3801927,47.918 32.6207322,46.986 31.9614644,45.986 C31.3021965,44.97 30.7331021,43.898 30.2601927,42.782 C29.7732563,41.664 29.4085549,40.494 29.1761079,39.296 C28.9677071,38.082 28.873526,36.852 28.8915607,35.62 L28.8915607,3.062 C28.8915607,2.968 28.8454721,2.92 28.7512909,2.874 L24.0763006,0 L23.7937572,0 L0.142273603,13.57 C0.0480924855,13.616 0,13.664 0,13.758 L0,13.758 Z" id="Fill-1" fill="#2015FF"></path>
                    <path d="M130.012825,39.5312 C130.012825,44.9972 125.339838,49.2852 119.344308,49.2852 C113.348778,49.2852 108.816062,45.0912 108.816062,39.5312 L108.816062,17.4792 L103.433711,17.4792 L103.433711,39.5792 C103.433711,48.0592 110.090513,54.2312 119.344308,54.2312 C128.5961,54.2312 135.395175,48.0592 135.395175,39.5792 L135.395175,17.4332 L130.012825,17.4332 L130.012825,39.5312 Z" id="Fill-3" fill="#0B0B0B"></path>
                    <path d="M176.418867,35.6204 C176.418867,43.9124 171.509426,48.8604 163.29563,48.8604 L156.969464,48.8604 L156.969464,22.3804 L163.29563,22.3804 C171.509426,22.3804 176.418867,27.3284 176.418867,35.6204 M163.626266,17.4804 L151.587114,17.4804 L151.587114,53.8544 L163.578173,53.8544 C174.625418,53.8544 181.801218,46.6924 181.801218,35.6684 C181.801218,24.6424 174.671507,17.4804 163.626266,17.4804" id="Fill-5" fill="#0B0B0B"></path>
                    <polygon id="Fill-7" fill="#0B0B0B" points="370.729341 17.433 360.155006 32.699 349.484486 17.481 349.484486 17.433 343.394775 17.433 357.46383 38.307 357.46383 53.807 362.846181 53.807 362.846181 38.307 376.63069 17.575 376.724871 17.433"></polygon>
                    <polygon id="Fill-9" fill="#0B0B0B" points="304.070952 22.3804 316.486829 22.3804 316.486829 53.8084 321.869179 53.8084 321.869179 22.3804 334.285056 22.3804 334.285056 17.4324 304.070952 17.4324"></polygon>
                    <polygon id="Fill-11" fill="#0B0B0B" points="284.337803 53.7754 289.720154 53.7754 289.720154 17.4334 284.337803 17.4334"></polygon>
                    <path d="M264.368401,44.997 C261.563006,47.697 257.83183,49.229 253.934335,49.285 C246.475992,49.285 240.859191,43.301 240.859191,35.385 C240.859191,27.469 246.429904,21.957 253.840154,21.957 C257.425048,21.935 260.893719,23.207 263.612948,25.537 L264.416493,26.245 L267.247938,22.287 L266.72894,21.721 C266.586667,21.533 262.244316,17.009 253.745973,17.009 C243.36,17.009 235.524933,24.925 235.524933,35.433 C235.524933,45.939 243.408092,54.279 253.888247,54.279 C262.62104,54.279 267.484393,48.861 267.672755,48.625 L268.191753,48.059 L265.075761,44.243 L264.368401,44.997 Z" id="Fill-13" fill="#0B0B0B"></path>
                    <path d="M213.430443,37.5994 L202.713834,39.8134 L208.521002,25.5374 L213.430443,37.5994 Z M210.975723,17.4794 L206.018189,17.4794 L191.289865,53.8074 L197.000848,53.8074 L200.259114,45.7974 L215.508439,42.6874 L219.993064,53.7614 L225.704046,53.7614 L211.021811,17.5274 L210.975723,17.4794 Z" id="Fill-14" fill="#0B0B0B"></path>
                </g>
            </g>
        </g>
    </g>
</svg>