<?xml version="1.0" encoding="UTF-8"?>
<svg width="160px" height="160px" viewBox="0 0 160 160" version="1.1" xmlns="http://www.w3.org/2000/svg" xmlns:xlink="http://www.w3.org/1999/xlink">
    <title>Group 52</title>
    <defs>
        <polygon id="path-1" points="0 160 160 160 160 0 0 0"></polygon>
    </defs>
    <g id="R2" stroke="none" stroke-width="1" fill="none" fill-rule="evenodd">
        <g id="Course_GradCertificate_Client_Partner_logos_1440px" transform="translate(-1132.000000, -124.000000)">
            <g id="Group-52" transform="translate(1132.000000, 124.000000)">
                <path d="M80,160 C35.888,160 0,124.112 0,80 C0,35.888 35.888,0 80,0 C124.112,0 160,35.888 160,80 C160,124.112 124.112,160 80,160" id="Fill-1" fill="#2015FF"></path>
                <path d="M80,3.866 C38.02,3.866 3.866,38.02 3.866,80 C3.866,121.98 38.02,156.134 80,156.134 C121.98,156.134 156.134,121.98 156.134,80 C156.134,38.02 121.98,3.866 80,3.866" id="Fill-3" fill="#FFFFFF"></path>
                <path d="M80,8.9604 C40.672,8.9604 8.676,40.9564 8.676,80.2844 C8.676,119.6124 40.672,151.6084 80,151.6084 C119.328,151.6084 151.324,119.6124 151.324,80.2844 C151.324,40.9564 119.328,8.9604 80,8.9604 M80,153.4064 C39.68,153.4064 6.878,120.6044 6.878,80.2844 C6.878,39.9644 39.68,7.1624 80,7.1624 C120.32,7.1624 153.122,39.9644 153.122,80.2844 C153.122,120.6044 120.32,153.4064 80,153.4064" id="Fill-5" fill="#2015FF"></path>
                <path d="M53.9102,55.0944 L55.6302,55.0944 L52.0782,65.2384 L50.3302,65.2384 L46.7902,55.0944 L48.4982,55.0944 L50.6142,61.4004 C50.7242,61.7024 50.8442,62.0904 50.9682,62.5624 C51.0942,63.0384 51.1742,63.3904 51.2102,63.6224 C51.2722,63.2704 51.3642,62.8644 51.4882,62.4004 C51.6142,61.9384 51.7142,61.5964 51.7922,61.3744 L53.9102,55.0944 Z" id="Fill-7" fill="#0B0B0B"></path>
                <polygon id="Fill-9" fill="#0B0B0B" points="63.5626 65.239 57.8246 65.239 57.8246 55.095 63.5626 55.095 63.5626 56.497 59.4826 56.497 59.4826 59.259 63.3046 59.259 63.3046 60.645 59.4826 60.645 59.4826 63.831 63.5626 63.831"></polygon>
                <path d="M68.2656,59.8132 L69.4156,59.8132 C70.1896,59.8132 70.7496,59.6692 71.0956,59.3832 C71.4436,59.0972 71.6176,58.6712 71.6176,58.1052 C71.6176,57.5312 71.4296,57.1192 71.0556,56.8712 C70.6796,56.6212 70.1156,56.4972 69.3616,56.4972 L68.2656,56.4972 L68.2656,59.8132 Z M68.2656,61.1872 L68.2656,65.2392 L66.6076,65.2392 L66.6076,55.0952 L69.4736,55.0952 C70.7816,55.0952 71.7496,55.3412 72.3796,55.8312 C73.0076,56.3212 73.3236,57.0612 73.3236,58.0512 C73.3236,59.3132 72.6656,60.2132 71.3536,60.7492 L74.2196,65.2392 L72.3316,65.2392 L69.9016,61.1872 L68.2656,61.1872 Z" id="Fill-11" fill="#0B0B0B"></path>
                <mask id="mask-2" fill="white">
                    <use xlink:href="#path-1"></use>
                </mask>
                <g id="Clip-14"></g>
                <polygon id="Fill-13" fill="#0B0B0B" mask="url(#mask-2)" points="76.542 65.238 78.2 65.238 78.2 55.094 76.542 55.094"></polygon>
                <polygon id="Fill-15" fill="#0B0B0B" mask="url(#mask-2)" points="83.375 65.239 81.731 65.239 81.731 55.095 87.455 55.095 87.455 56.497 83.375 56.497 83.375 59.667 87.197 59.667 87.197 61.075 83.375 61.075"></polygon>
                <polygon id="Fill-16" fill="#0B0B0B" mask="url(#mask-2)" points="90.146 65.238 91.804 65.238 91.804 55.094 90.146 55.094"></polygon>
                <polygon id="Fill-17" fill="#0B0B0B" mask="url(#mask-2)" points="101.0722 65.239 95.3342 65.239 95.3342 55.095 101.0722 55.095 101.0722 56.497 96.9922 56.497 96.9922 59.259 100.8142 59.259 100.8142 60.645 96.9922 60.645 96.9922 63.831 101.0722 63.831"></polygon>
                <path d="M110.6192,60.1258 C110.6192,57.6958 109.4852,56.4838 107.2132,56.4838 L105.7772,56.4838 L105.7772,63.8438 L106.9572,63.8438 C109.3992,63.8438 110.6192,62.6038 110.6192,60.1258 M112.3692,60.0698 C112.3692,61.7458 111.9052,63.0238 110.9752,63.9118 C110.0452,64.7958 108.7052,65.2398 106.9572,65.2398 L104.1192,65.2398 L104.1192,55.0938 L107.2532,55.0938 C108.8692,55.0938 110.1252,55.5298 111.0212,56.3998 C111.9192,57.2678 112.3692,58.4938 112.3692,60.0698" id="Fill-18" fill="#0B0B0B" mask="url(#mask-2)"></path>
                <path d="M26.5566,74.3718 C25.6026,74.3718 24.8546,74.7098 24.3086,75.3838 C23.7646,76.0598 23.4906,76.9918 23.4906,78.1798 C23.4906,79.4238 23.7546,80.3658 24.2766,81.0038 C24.8026,81.6438 25.5626,81.9618 26.5566,81.9618 C26.9886,81.9618 27.4046,81.9178 27.8066,81.8338 C28.2086,81.7478 28.6266,81.6398 29.0626,81.5038 L29.0626,82.9258 C28.2646,83.2278 27.3646,83.3778 26.3546,83.3778 C24.8706,83.3778 23.7306,82.9278 22.9346,82.0278 C22.1406,81.1278 21.7426,79.8398 21.7426,78.1658 C21.7426,77.1118 21.9346,76.1898 22.3226,75.3998 C22.7066,74.6078 23.2646,73.9998 23.9966,73.5798 C24.7286,73.1598 25.5866,72.9478 26.5706,72.9478 C27.6066,72.9478 28.5646,73.1658 29.4426,73.5998 L28.8486,74.9818 C28.5046,74.8218 28.1426,74.6778 27.7626,74.5558 C27.3786,74.4318 26.9786,74.3718 26.5566,74.3718" id="Fill-19" fill="#0B0B0B" mask="url(#mask-2)"></path>
                <polygon id="Fill-20" fill="#0B0B0B" mask="url(#mask-2)" points="37.8398 83.239 32.1018 83.239 32.1018 73.095 37.8398 73.095 37.8398 74.497 33.7598 74.497 33.7598 77.259 37.5818 77.259 37.5818 78.645 33.7598 78.645 33.7598 81.831 37.8398 81.831"></polygon>
                <path d="M42.543,77.8132 L43.693,77.8132 C44.467,77.8132 45.027,77.6692 45.373,77.3832 C45.721,77.0972 45.895,76.6712 45.895,76.1052 C45.895,75.5312 45.707,75.1192 45.333,74.8712 C44.957,74.6212 44.393,74.4972 43.639,74.4972 L42.543,74.4972 L42.543,77.8132 Z M42.543,79.1872 L42.543,83.2392 L40.885,83.2392 L40.885,73.0952 L43.751,73.0952 C45.059,73.0952 46.027,73.3412 46.657,73.8312 C47.285,74.3212 47.601,75.0612 47.601,76.0512 C47.601,77.3132 46.943,78.2132 45.631,78.7492 L48.497,83.2392 L46.609,83.2392 L44.179,79.1872 L42.543,79.1872 Z" id="Fill-21" fill="#0B0B0B" mask="url(#mask-2)"></path>
                <polygon id="Fill-22" fill="#0B0B0B" mask="url(#mask-2)" points="54.3242 83.239 52.6662 83.239 52.6662 74.517 49.6822 74.517 49.6822 73.095 57.3062 73.095 57.3062 74.517 54.3242 74.517"></polygon>
                <polygon id="Fill-23" fill="#0B0B0B" mask="url(#mask-2)" points="59.712 83.238 61.37 83.238 61.37 73.094 59.712 73.094"></polygon>
                <polygon id="Fill-24" fill="#0B0B0B" mask="url(#mask-2)" points="66.547 83.239 64.903 83.239 64.903 73.095 70.627 73.095 70.627 74.497 66.547 74.497 66.547 77.667 70.369 77.667 70.369 79.075 66.547 79.075"></polygon>
                <polygon id="Fill-25" fill="#0B0B0B" mask="url(#mask-2)" points="73.316 83.238 74.974 83.238 74.974 73.094 73.316 73.094"></polygon>
                <path d="M82.8204,74.3718 C81.8664,74.3718 81.1184,74.7098 80.5724,75.3838 C80.0284,76.0598 79.7544,76.9918 79.7544,78.1798 C79.7544,79.4238 80.0184,80.3658 80.5404,81.0038 C81.0664,81.6438 81.8264,81.9618 82.8204,81.9618 C83.2524,81.9618 83.6684,81.9178 84.0704,81.8338 C84.4724,81.7478 84.8904,81.6398 85.3264,81.5038 L85.3264,82.9258 C84.5284,83.2278 83.6284,83.3778 82.6184,83.3778 C81.1344,83.3778 79.9944,82.9278 79.1984,82.0278 C78.4044,81.1278 78.0064,79.8398 78.0064,78.1658 C78.0064,77.1118 78.1984,76.1898 78.5864,75.3998 C78.9704,74.6078 79.5284,73.9998 80.2604,73.5798 C80.9924,73.1598 81.8504,72.9478 82.8344,72.9478 C83.8704,72.9478 84.8284,73.1658 85.7064,73.5998 L85.1124,74.9818 C84.7684,74.8218 84.4064,74.6778 84.0264,74.5558 C83.6424,74.4318 83.2424,74.3718 82.8204,74.3718" id="Fill-26" fill="#0B0B0B" mask="url(#mask-2)"></path>
                <path d="M93.2052,78.993 L92.2552,76.231 C92.1852,76.045 92.0892,75.755 91.9672,75.357 C91.8432,74.959 91.7592,74.667 91.7152,74.483 C91.5892,75.051 91.4072,75.675 91.1652,76.349 L90.2492,78.993 L93.2052,78.993 Z M94.6572,83.239 L93.6432,80.423 L89.7632,80.423 L88.7712,83.239 L87.0232,83.239 L90.8192,73.053 L92.6232,73.053 L96.4172,83.239 L94.6572,83.239 Z" id="Fill-27" fill="#0B0B0B" mask="url(#mask-2)"></path>
                <polygon id="Fill-28" fill="#0B0B0B" mask="url(#mask-2)" points="102.1152 83.239 100.4572 83.239 100.4572 74.517 97.4732 74.517 97.4732 73.095 105.0972 73.095 105.0972 74.517 102.1152 74.517"></polygon>
                <polygon id="Fill-29" fill="#0B0B0B" mask="url(#mask-2)" points="113.2422 83.239 107.5042 83.239 107.5042 73.095 113.2422 73.095 113.2422 74.497 109.1622 74.497 109.1622 77.259 112.9842 77.259 112.9842 78.645 109.1622 78.645 109.1622 81.831 113.2422 81.831"></polygon>
                <path d="M122.0938,78.153 C122.0938,79.401 122.3458,80.349 122.8498,80.995 C123.3558,81.639 124.1018,81.961 125.0918,81.961 C126.0758,81.961 126.8198,81.643 127.3218,81.005 C127.8238,80.365 128.0758,79.417 128.0758,78.153 C128.0758,76.909 127.8258,75.965 127.3298,75.321 C126.8318,74.679 126.0918,74.359 125.1058,74.359 C124.1118,74.359 123.3618,74.679 122.8538,75.321 C122.3478,75.965 122.0938,76.909 122.0938,78.153 M129.8378,78.153 C129.8378,79.803 129.4258,81.089 128.5998,82.005 C127.7738,82.921 126.6038,83.377 125.0918,83.377 C123.5598,83.377 122.3858,82.923 121.5618,82.015 C120.7418,81.107 120.3318,79.813 120.3318,78.139 C120.3318,76.463 120.7438,75.179 121.5698,74.281 C122.3958,73.383 123.5738,72.935 125.1058,72.935 C126.6138,72.935 127.7798,73.391 128.6038,74.301 C129.4258,75.213 129.8378,76.497 129.8378,78.153" id="Fill-30" fill="#0B0B0B" mask="url(#mask-2)"></path>
                <polygon id="Fill-31" fill="#0B0B0B" mask="url(#mask-2)" points="134.5156 83.239 132.8716 83.239 132.8716 73.095 138.5956 73.095 138.5956 74.497 134.5156 74.497 134.5156 77.667 138.3376 77.667 138.3376 79.075 134.5156 79.075"></polygon>
                <path d="M35.6308,92.3718 C34.6768,92.3718 33.9288,92.7098 33.3828,93.3838 C32.8388,94.0598 32.5648,94.9918 32.5648,96.1798 C32.5648,97.4238 32.8288,98.3658 33.3508,99.0038 C33.8768,99.6438 34.6368,99.9618 35.6308,99.9618 C36.0628,99.9618 36.4788,99.9178 36.8808,99.8338 C37.2828,99.7478 37.7008,99.6398 38.1368,99.5038 L38.1368,100.9258 C37.3388,101.2278 36.4388,101.3778 35.4288,101.3778 C33.9448,101.3778 32.8048,100.9278 32.0088,100.0278 C31.2148,99.1278 30.8168,97.8398 30.8168,96.1658 C30.8168,95.1118 31.0088,94.1898 31.3968,93.3998 C31.7808,92.6078 32.3388,91.9998 33.0708,91.5798 C33.8028,91.1598 34.6608,90.9478 35.6448,90.9478 C36.6808,90.9478 37.6388,91.1658 38.5168,91.5998 L37.9228,92.9818 C37.5788,92.8218 37.2168,92.6778 36.8368,92.5558 C36.4528,92.4318 36.0528,92.3718 35.6308,92.3718" id="Fill-32" fill="#0B0B0B" mask="url(#mask-2)"></path>
                <path d="M42.4376,96.153 C42.4376,97.401 42.6896,98.349 43.1936,98.995 C43.6996,99.639 44.4456,99.961 45.4356,99.961 C46.4196,99.961 47.1636,99.643 47.6656,99.005 C48.1676,98.365 48.4196,97.417 48.4196,96.153 C48.4196,94.909 48.1696,93.965 47.6736,93.321 C47.1756,92.679 46.4356,92.359 45.4496,92.359 C44.4556,92.359 43.7056,92.679 43.1976,93.321 C42.6916,93.965 42.4376,94.909 42.4376,96.153 M50.1816,96.153 C50.1816,97.803 49.7696,99.089 48.9436,100.005 C48.1176,100.921 46.9476,101.377 45.4356,101.377 C43.9036,101.377 42.7296,100.923 41.9056,100.015 C41.0856,99.107 40.6756,97.813 40.6756,96.139 C40.6756,94.463 41.0876,93.179 41.9136,92.281 C42.7396,91.383 43.9176,90.935 45.4496,90.935 C46.9576,90.935 48.1236,91.391 48.9476,92.301 C49.7696,93.213 50.1816,94.497 50.1816,96.153" id="Fill-33" fill="#0B0B0B" mask="url(#mask-2)"></path>
                <path d="M57.5976,101.239 L54.6556,92.767 L54.5996,92.767 C54.6776,94.027 54.7196,95.203 54.7196,96.305 L54.7196,101.239 L53.2136,101.239 L53.2136,91.095 L55.5516,91.095 L58.3676,99.165 L58.4096,99.165 L61.3096,91.095 L63.6536,91.095 L63.6536,101.239 L62.0576,101.239 L62.0576,96.221 C62.0576,95.717 62.0716,95.061 62.0976,94.253 C62.1236,93.443 62.1436,92.951 62.1636,92.781 L62.1076,92.781 L59.0596,101.239 L57.5976,101.239 Z" id="Fill-34" fill="#0B0B0B" mask="url(#mask-2)"></path>
                <path d="M68.838,96.0496 L69.718,96.0496 C70.57,96.0496 71.194,95.9016 71.592,95.6036 C71.99,95.3096 72.19,94.8456 72.19,94.2176 C72.19,93.6336 72.01,93.1996 71.654,92.9136 C71.298,92.6256 70.742,92.4836 69.988,92.4836 L68.838,92.4836 L68.838,96.0496 Z M73.896,94.1616 C73.896,95.2216 73.548,96.0316 72.856,96.5956 C72.16,97.1616 71.174,97.4436 69.892,97.4436 L68.838,97.4436 L68.838,101.2396 L67.18,101.2396 L67.18,91.0936 L70.1,91.0936 C71.368,91.0936 72.316,91.3536 72.95,91.8716 C73.58,92.3896 73.896,93.1536 73.896,94.1616 L73.896,94.1616 Z" id="Fill-35" fill="#0B0B0B" mask="url(#mask-2)"></path>
                <polygon id="Fill-36" fill="#0B0B0B" mask="url(#mask-2)" points="76.7734 101.239 76.7734 91.095 78.4314 91.095 78.4314 99.817 82.7274 99.817 82.7274 101.239"></polygon>
                <polygon id="Fill-37" fill="#0B0B0B" mask="url(#mask-2)" points="91.0664 101.239 85.3284 101.239 85.3284 91.095 91.0664 91.095 91.0664 92.497 86.9864 92.497 86.9864 95.259 90.8084 95.259 90.8084 96.645 86.9864 96.645 86.9864 99.831 91.0664 99.831"></polygon>
                <polygon id="Fill-38" fill="#0B0B0B" mask="url(#mask-2)" points="97.6152 101.239 95.9572 101.239 95.9572 92.517 92.9732 92.517 92.9732 91.095 100.5972 91.095 100.5972 92.517 97.6152 92.517"></polygon>
                <polygon id="Fill-39" fill="#0B0B0B" mask="url(#mask-2)" points="103.006 101.238 104.664 101.238 104.664 91.094 103.006 91.094"></polygon>
                <path d="M109.4552,96.153 C109.4552,97.401 109.7072,98.349 110.2112,98.995 C110.7172,99.639 111.4632,99.961 112.4532,99.961 C113.4372,99.961 114.1812,99.643 114.6832,99.005 C115.1852,98.365 115.4372,97.417 115.4372,96.153 C115.4372,94.909 115.1872,93.965 114.6912,93.321 C114.1932,92.679 113.4532,92.359 112.4672,92.359 C111.4732,92.359 110.7232,92.679 110.2152,93.321 C109.7092,93.965 109.4552,94.909 109.4552,96.153 M117.1992,96.153 C117.1992,97.803 116.7872,99.089 115.9612,100.005 C115.1352,100.921 113.9652,101.377 112.4532,101.377 C110.9212,101.377 109.7472,100.923 108.9232,100.015 C108.1032,99.107 107.6932,97.813 107.6932,96.139 C107.6932,94.463 108.1052,93.179 108.9312,92.281 C109.7572,91.383 110.9352,90.935 112.4672,90.935 C113.9752,90.935 115.1412,91.391 115.9652,92.301 C116.7872,93.213 117.1992,94.497 117.1992,96.153" id="Fill-40" fill="#0B0B0B" mask="url(#mask-2)"></path>
                <path d="M128.6836,101.239 L126.6496,101.239 L121.6596,93.155 L121.6056,93.155 L121.6416,93.607 C121.7056,94.467 121.7376,95.253 121.7376,95.965 L121.7376,101.239 L120.2316,101.239 L120.2316,91.095 L122.2436,91.095 L127.2196,99.137 L127.2596,99.137 C127.2516,99.031 127.2316,98.643 127.2056,97.975 C127.1776,97.305 127.1636,96.783 127.1636,96.409 L127.1636,91.095 L128.6836,91.095 L128.6836,101.239 Z" id="Fill-41" fill="#0B0B0B" mask="url(#mask-2)"></path>
                <path d="M111.3092,36.8208 C109.7572,36.7388 108.2412,36.7368 106.7312,36.8088 C107.9932,35.8588 109.2912,34.9248 110.6212,34.0348 C110.2352,32.6048 109.7712,31.1668 109.2252,29.7368 C110.6212,30.5488 111.9892,31.4188 113.2932,32.3508 C114.6932,31.5488 116.1412,30.7708 117.5972,30.0348 C117.0352,31.4748 116.4412,32.9088 115.7872,34.3068 C116.9992,35.3548 118.1472,36.4548 119.2432,37.6028 C117.6252,37.3248 116.0052,37.1308 114.4132,37.0108 C113.6692,38.3548 112.8732,39.6808 112.0512,40.9788 C111.8952,39.6028 111.6412,38.2208 111.3092,36.8208" id="Fill-42" fill="#2015FF" mask="url(#mask-2)"></path>
                <path d="M96.7324,28.9178 C95.2404,29.3378 93.8084,29.8198 92.4384,30.3558 C93.2564,29.0598 94.1264,27.7878 95.0324,26.5198 C94.1484,25.3038 93.1804,24.0998 92.1344,22.9178 C93.7364,23.2438 95.3524,23.6378 96.9344,24.0998 C97.9564,22.8978 99.0104,21.7298 100.1144,20.5638 C100.1224,22.1118 100.0864,23.6298 100.0024,25.1478 C101.5324,25.7578 103.0164,26.4298 104.4804,27.1598 C102.8324,27.4178 101.2444,27.7338 99.7144,28.1278 C99.4984,29.6358 99.2604,31.1158 98.9644,32.6038 C98.3024,31.3658 97.5624,30.1338 96.7324,28.9178" id="Fill-43" fill="#2015FF" mask="url(#mask-2)"></path>
                <path d="M80.0942,26.1106 C78.8502,26.9786 77.6762,27.8786 76.5762,28.8166 C76.8802,27.3446 77.2282,25.8686 77.6202,24.3946 C76.3302,23.5326 74.9622,22.6966 73.5382,21.9266 C75.1762,21.7226 76.8382,21.5846 78.4902,21.5186 C79.0042,20.0666 79.5522,18.6406 80.1602,17.1966 C80.7402,18.6406 81.2762,20.0846 81.7702,21.5426 C83.4202,21.6246 85.0742,21.7786 86.7162,22.0106 C85.2682,22.7666 83.9022,23.5766 82.6002,24.4246 C82.9602,25.9026 83.2782,27.3826 83.5602,28.8626 C82.4782,27.9126 81.3262,26.9966 80.0942,26.1106" id="Fill-44" fill="#2015FF" mask="url(#mask-2)"></path>
                <path d="M63.4014,28.6926 C62.5554,29.8946 61.7954,31.1106 61.1134,32.3346 C60.8414,30.8646 60.6254,29.3626 60.4434,27.8606 C58.9074,27.4526 57.3174,27.0986 55.6954,26.8266 C57.1634,26.1106 58.6614,25.4626 60.1974,24.8746 C60.1434,23.3606 60.1314,21.8266 60.1574,20.2926 C61.2374,21.4686 62.2814,22.6486 63.2814,23.8706 C64.8754,23.4306 66.4794,23.0606 68.1094,22.7686 C67.0394,23.9266 66.0434,25.1086 65.1334,26.3246 C66.0234,27.5986 66.8654,28.8786 67.6814,30.1886 C66.3134,29.6406 64.8874,29.1286 63.4014,28.6926" id="Fill-45" fill="#2015FF" mask="url(#mask-2)"></path>
                <path d="M48.6952,36.3876 C48.3432,37.7836 48.0912,39.1736 47.8952,40.5416 C47.1012,39.2316 46.3232,37.8996 45.5992,36.5436 C43.9972,36.6356 42.3872,36.8156 40.7572,37.0676 C41.8712,35.9336 43.0452,34.8496 44.2572,33.8216 C43.6452,32.4056 43.0632,30.9756 42.5272,29.5216 C43.9712,30.2796 45.4032,31.0756 46.7812,31.8976 C48.1072,30.9796 49.4812,30.1236 50.9052,29.3256 C50.3252,30.7576 49.8472,32.1916 49.4352,33.6136 C50.7492,34.5256 52.0312,35.4736 53.2772,36.4376 C51.7772,36.3516 50.2612,36.3336 48.6952,36.3876" id="Fill-46" fill="#2015FF" mask="url(#mask-2)"></path>
                <path d="M114.4176,128.5672 C115.9636,128.7272 117.4616,128.9612 118.9416,129.2672 C117.8436,128.1312 116.7056,127.0072 115.5296,125.9212 C116.1336,124.5692 116.8156,123.2212 117.5796,121.8932 C116.0716,122.4772 114.5856,123.1252 113.1536,123.8432 C111.8936,122.8332 110.5856,121.8392 109.2616,120.8852 C109.5936,122.3952 109.9576,123.9052 110.3856,125.3872 C109.0236,126.2352 107.7196,127.1432 106.4576,128.1052 C108.1016,128.0832 109.7296,128.1432 111.3216,128.2712 C111.8476,129.7172 112.4276,131.1492 113.0376,132.5592 C113.4056,131.2232 113.8716,129.8992 114.4176,128.5672" id="Fill-47" fill="#2015FF" mask="url(#mask-2)"></path>
                <path d="M100.1354,137.7774 C101.6654,138.0274 103.1414,138.3454 104.5634,138.7234 C103.6054,137.5274 102.5994,136.3614 101.5554,135.2034 C102.2954,133.8954 103.1234,132.5894 104.0294,131.2994 C102.4754,131.8034 100.9114,132.3774 99.3934,133.0114 C98.2414,131.9334 97.0634,130.8914 95.8374,129.8574 C96.0034,131.3954 96.2074,132.8994 96.4614,134.3994 C95.0114,135.1774 93.6114,136.0114 92.2374,136.9014 C93.9054,136.9734 95.5194,137.1094 97.0834,137.3274 C97.4674,138.8014 97.8714,140.2454 98.3314,141.6894 C98.8494,140.3874 99.4474,139.0794 100.1354,137.7774" id="Fill-48" fill="#2015FF" mask="url(#mask-2)"></path>
                <path d="M80.1798,142.2702 C81.4278,143.1302 82.6098,144.0242 83.7138,144.9562 C83.3998,143.4842 83.0438,142.0102 82.6438,140.5382 C83.9278,139.6682 85.2918,138.8242 86.7098,138.0462 C85.0698,137.8522 83.4098,137.7242 81.7578,137.6682 C81.2318,136.2202 80.6758,134.7962 80.0598,133.3562 C79.4878,134.8062 78.9598,136.2522 78.4778,137.7122 C76.8278,137.8042 75.1738,137.9682 73.5338,138.2102 C74.9858,138.9582 76.3558,139.7602 77.6638,140.5982 C77.3118,142.0802 77.0038,143.5602 76.7318,145.0422 C77.8078,144.0862 78.9518,143.1642 80.1798,142.2702" id="Fill-49" fill="#2015FF" mask="url(#mask-2)"></path>
                <path d="M60.25,138.18 C61.014,139.436 61.694,140.698 62.292,141.966 C62.662,140.516 62.976,139.03 63.258,137.544 C64.816,137.238 66.426,136.99 68.062,136.826 C66.646,136.014 65.192,135.27 63.698,134.582 C63.852,133.076 63.966,131.544 64.04,130.012 C62.886,131.114 61.766,132.224 60.688,133.376 C59.126,132.834 57.55,132.358 55.942,131.958 C56.934,133.184 57.85,134.43 58.678,135.702 C57.706,136.916 56.782,138.138 55.88,139.392 C57.282,138.934 58.74,138.516 60.25,138.18" id="Fill-50" fill="#2015FF" mask="url(#mask-2)"></path>
                <path d="M45.2898,128.6794 C45.5938,130.0874 45.7978,131.4834 45.9458,132.8594 C46.7838,131.5754 47.6078,130.2734 48.3778,128.9414 C49.9758,129.0894 51.5778,129.3254 53.1998,129.6334 C52.1238,128.4614 50.9898,127.3394 49.8138,126.2674 C50.4738,124.8754 51.1058,123.4654 51.6918,122.0314 C50.2218,122.7394 48.7638,123.4834 47.3578,124.2594 C46.0638,123.2954 44.7198,122.3934 43.3258,121.5454 C43.8558,122.9974 44.2838,124.4454 44.6458,125.8814 C43.3018,126.7474 41.9878,127.6494 40.7078,128.5714 C42.2098,128.5354 43.7258,128.5714 45.2898,128.6794" id="Fill-51" fill="#2015FF" mask="url(#mask-2)"></path>
            </g>
        </g>
    </g>
</svg>